{"glyphs":{"0":{"ha":764,"x_min":83,"x_max":681,"o":"m 382 -24 q 157 98 231 -24 q 83 467 83 219 q 382 956 83 956 q 604 831 528 956 q 681 467 681 707 q 604 99 681 222 q 382 -24 528 -24 m 382 72 q 523 171 474 72 q 572 474 572 269 q 522 763 572 665 q 382 860 472 860 q 239 763 286 860 q 192 467 192 665 q 239 168 192 264 q 382 72 286 72 z "},"1":{"ha":764,"x_min":154,"x_max":614,"o":"m 614 99 l 614 0 l 154 0 l 154 99 l 332 99 l 332 838 l 182 838 l 182 936 l 438 936 l 438 99 l 614 99 z "},"2":{"ha":764,"x_min":82,"x_max":692,"o":"m 82 99 l 106 121 q 372 374 289 290 q 500 530 456 457 q 544 676 544 603 q 494 813 544 765 q 356 860 443 860 q 117 803 228 860 l 117 904 q 365 956 232 956 q 573 885 493 956 q 653 682 653 814 q 609 516 653 596 q 499 365 565 436 q 314 183 433 294 l 224 99 l 692 99 l 692 0 l 82 0 l 82 99 z "},"3":{"ha":764,"x_min":111,"x_max":667,"o":"m 494 497 q 623 408 579 471 q 667 257 667 346 q 584 52 667 128 q 360 -24 501 -24 q 111 25 225 -24 l 111 126 q 226 86 163 100 q 350 72 289 72 q 504 123 450 72 q 558 265 558 174 q 498 402 558 356 q 324 449 438 449 l 222 449 l 222 543 l 324 543 q 488 584 432 543 q 544 706 544 625 q 494 819 544 779 q 353 860 444 860 q 235 848 296 860 q 125 811 175 836 l 125 913 q 360 956 228 956 q 574 890 494 956 q 653 714 653 825 q 613 582 653 635 q 494 497 574 529 z "},"4":{"ha":764,"x_min":38,"x_max":743,"o":"m 743 215 l 583 215 l 583 -24 l 478 -24 l 478 215 l 38 215 l 38 311 l 464 949 l 583 949 l 583 311 l 743 311 l 743 215 m 478 311 l 478 793 l 151 311 l 478 311 z "},"5":{"ha":764,"x_min":107,"x_max":674,"o":"m 343 599 q 587 515 500 599 q 674 294 674 432 q 583 59 674 142 q 333 -24 493 -24 q 107 17 210 -24 l 107 117 q 329 72 213 72 q 505 128 444 72 q 565 294 565 183 q 504 449 565 396 q 333 503 443 503 q 222 491 278 503 q 122 461 167 479 l 132 936 l 619 936 l 619 838 l 235 838 l 229 588 q 343 599 285 599 z "},"6":{"ha":764,"x_min":82,"x_max":692,"o":"m 399 583 q 553 546 486 583 q 656 440 619 508 q 692 283 692 372 q 653 122 692 192 q 547 15 614 53 q 396 -24 479 -24 q 164 71 246 -24 q 82 338 82 165 q 190 680 82 524 q 492 953 297 836 l 556 881 q 350 717 433 803 q 226 529 267 631 q 399 583 307 583 m 394 69 q 530 126 476 69 q 583 281 583 183 q 528 435 583 378 q 389 492 474 492 q 196 417 278 492 q 190 333 190 382 q 246 134 192 199 q 394 69 300 69 z "},"7":{"ha":764,"x_min":106,"x_max":701,"o":"m 701 936 l 701 838 l 343 -24 l 226 -24 l 596 838 l 106 838 l 106 936 l 701 936 z "},"8":{"ha":764,"x_min":74,"x_max":690,"o":"m 526 488 q 647 392 603 456 q 690 246 690 329 q 650 104 690 165 q 540 10 610 43 q 382 -24 469 -24 q 224 10 294 -24 q 114 104 154 43 q 74 246 74 165 q 117 392 74 329 q 236 488 161 456 q 140 576 175 519 q 104 704 104 633 q 140 833 104 775 q 240 923 176 890 q 382 956 303 956 q 523 923 460 956 q 623 833 586 890 q 660 704 660 775 q 624 576 660 633 q 526 488 588 519 m 382 863 q 262 816 311 863 q 213 699 213 769 q 262 581 213 626 q 382 535 311 535 q 503 581 454 535 q 551 699 551 626 q 503 816 551 769 q 382 863 454 863 m 382 69 q 525 119 468 69 q 582 251 582 168 q 525 384 582 335 q 382 433 468 433 q 239 384 296 433 q 182 251 182 335 q 239 119 182 168 q 382 69 296 69 z "},"9":{"ha":764,"x_min":72,"x_max":682,"o":"m 368 956 q 600 860 518 956 q 682 594 682 765 q 574 252 682 408 q 271 -21 467 96 l 208 51 q 413 215 331 129 q 536 403 496 301 q 365 349 460 349 q 211 386 278 349 q 108 492 144 424 q 72 649 72 560 q 110 810 72 740 q 216 917 149 879 q 368 956 283 956 m 375 439 q 480 459 431 439 q 567 515 529 479 q 574 599 574 560 q 517 797 572 732 q 368 863 463 863 q 233 806 286 863 q 181 651 181 749 q 235 497 181 554 q 375 439 290 439 z "},"\r":{"ha":833,"x_min":0,"x_max":0,"o":""}," ":{"ha":306,"x_min":0,"x_max":0,"o":""},"A":{"ha":988,"x_min":36,"x_max":951,"o":"m 715 329 l 271 329 l 147 0 l 36 0 l 439 1065 l 547 1065 l 951 0 l 840 0 l 715 329 m 678 428 l 493 918 l 308 428 l 678 428 z "},"Á":{"ha":988,"x_min":36,"x_max":951,"o":"m 36 0 m 715 329 l 271 329 l 147 0 l 36 0 l 439 1065 l 547 1065 l 951 0 l 840 0 l 715 329 m 678 428 l 493 918 l 308 428 l 678 428 m 583 1374 l 708 1374 l 540 1161 l 436 1161 l 583 1374 z "},"Ă":{"ha":988,"x_min":36,"x_max":951,"o":"m 36 0 m 715 329 l 271 329 l 147 0 l 36 0 l 439 1065 l 547 1065 l 951 0 l 840 0 l 715 329 m 678 428 l 493 918 l 308 428 l 678 428 m 493 1161 q 338 1212 396 1161 q 281 1358 281 1263 l 281 1371 l 368 1371 l 368 1360 q 398 1269 368 1299 q 493 1240 428 1240 q 588 1269 558 1240 q 618 1360 618 1299 l 618 1371 l 706 1371 l 706 1358 q 651 1212 710 1263 q 493 1161 593 1161 z "},"Â":{"ha":988,"x_min":36,"x_max":951,"o":"m 36 0 m 715 329 l 271 329 l 147 0 l 36 0 l 439 1065 l 547 1065 l 951 0 l 840 0 l 715 329 m 678 428 l 493 918 l 308 428 l 678 428 m 594 1161 l 493 1315 l 390 1161 l 272 1161 l 433 1374 l 551 1374 l 713 1161 l 594 1161 z "},"Ä":{"ha":988,"x_min":36,"x_max":951,"o":"m 36 0 m 715 329 l 271 329 l 147 0 l 36 0 l 439 1065 l 547 1065 l 951 0 l 840 0 l 715 329 m 678 428 l 493 918 l 308 428 l 678 428 m 582 1349 l 681 1349 l 681 1186 l 582 1186 l 582 1349 m 306 1349 l 403 1349 l 403 1186 l 306 1186 l 306 1349 z "},"À":{"ha":988,"x_min":36,"x_max":951,"o":"m 36 0 m 715 329 l 271 329 l 147 0 l 36 0 l 439 1065 l 547 1065 l 951 0 l 840 0 l 715 329 m 678 428 l 493 918 l 308 428 l 678 428 m 293 1374 l 417 1374 l 565 1161 l 461 1161 l 293 1374 z "},"Ā":{"ha":988,"x_min":36,"x_max":951,"o":"m 36 0 m 715 329 l 271 329 l 147 0 l 36 0 l 439 1065 l 547 1065 l 951 0 l 840 0 l 715 329 m 678 428 l 493 918 l 308 428 l 678 428 m 278 1308 l 707 1308 l 707 1228 l 278 1228 l 278 1308 z "},"Ą":{"ha":988,"x_min":36,"x_max":951,"o":"m 36 0 m 715 329 l 271 329 l 147 0 l 36 0 l 439 1065 l 547 1065 l 951 0 l 840 0 l 715 329 m 678 428 l 493 918 l 308 428 l 678 428 m 872 -319 q 760 -287 799 -319 q 722 -199 722 -254 q 754 -99 722 -146 q 851 0 786 -51 l 951 0 q 847 -98 883 -56 q 811 -186 811 -140 q 828 -226 811 -211 q 879 -242 846 -242 q 951 -225 921 -242 l 951 -303 q 872 -319 913 -319 z "},"Å":{"ha":988,"x_min":36,"x_max":951,"o":"m 36 0 m 715 329 l 271 329 l 147 0 l 36 0 l 439 1065 l 547 1065 l 951 0 l 840 0 l 715 329 m 678 428 l 493 918 l 308 428 l 678 428 m 493 1139 q 395 1176 433 1139 q 357 1267 357 1213 q 394 1358 357 1322 q 493 1393 432 1393 q 590 1357 553 1393 q 628 1267 628 1321 q 590 1175 628 1211 q 493 1139 553 1139 m 493 1199 q 541 1217 522 1199 q 560 1267 560 1236 q 542 1316 560 1297 q 493 1335 524 1335 q 444 1316 464 1335 q 425 1267 425 1297 q 444 1217 425 1236 q 493 1199 464 1199 z "},"Ã":{"ha":988,"x_min":36,"x_max":951,"o":"m 36 0 m 715 329 l 271 329 l 147 0 l 36 0 l 439 1065 l 547 1065 l 951 0 l 840 0 l 715 329 m 678 428 l 493 918 l 308 428 l 678 428 m 286 1192 q 318 1301 288 1268 q 394 1335 349 1335 q 476 1314 435 1335 l 528 1288 q 572 1274 556 1274 q 614 1335 614 1274 l 699 1335 q 667 1225 697 1258 q 590 1192 636 1192 q 510 1213 551 1192 l 458 1239 q 413 1253 428 1253 q 371 1192 371 1253 l 286 1192 z "},"Æ":{"ha":1486,"x_min":46,"x_max":1403,"o":"m 1403 96 l 1403 0 l 772 0 l 772 342 l 381 342 l 164 0 l 46 0 l 721 1053 l 1396 1053 l 1396 957 l 879 957 l 879 578 l 1326 578 l 1326 482 l 879 482 l 879 96 l 1403 96 m 772 438 l 772 958 l 442 438 l 772 438 z "},"B":{"ha":971,"x_min":157,"x_max":869,"o":"m 682 535 q 869 283 869 474 q 785 70 869 140 q 503 0 700 0 l 157 0 l 157 1053 l 503 1053 q 755 984 682 1053 q 828 771 828 915 q 682 535 828 600 m 264 575 l 503 575 q 665 623 611 575 q 718 771 718 671 q 670 916 718 872 q 503 960 622 960 l 264 960 l 264 575 m 760 289 q 695 435 760 389 q 503 482 631 482 l 264 482 l 264 93 l 503 93 q 702 140 644 93 q 760 289 760 186 z "},"C":{"ha":979,"x_min":86,"x_max":931,"o":"m 592 -24 q 313 45 426 -24 q 142 238 199 114 q 86 525 86 361 q 142 804 86 681 q 310 1000 197 928 q 592 1072 424 1072 q 723 1060 665 1072 q 847 1021 781 1049 l 847 919 q 593 976 732 976 q 379 919 469 976 q 242 758 289 861 q 194 525 194 656 q 242 288 196 390 q 378 129 289 186 q 592 72 467 72 q 741 93 668 72 q 894 153 814 114 l 931 61 q 761 -2 850 19 q 592 -24 672 -24 z "},"Ć":{"ha":979,"x_min":86,"x_max":931,"o":"m 86 0 m 592 -24 q 313 45 426 -24 q 142 238 199 114 q 86 525 86 361 q 142 804 86 681 q 310 1000 197 928 q 592 1072 424 1072 q 723 1060 665 1072 q 847 1021 781 1049 l 847 919 q 593 976 732 976 q 379 919 469 976 q 242 758 289 861 q 194 525 194 656 q 242 288 196 390 q 378 129 289 186 q 592 72 467 72 q 741 93 668 72 q 894 153 814 114 l 931 61 q 761 -2 850 19 q 592 -24 672 -24 m 626 1374 l 751 1374 l 583 1161 l 479 1161 l 626 1374 z "},"Č":{"ha":979,"x_min":86,"x_max":931,"o":"m 86 0 m 592 -24 q 313 45 426 -24 q 142 238 199 114 q 86 525 86 361 q 142 804 86 681 q 310 1000 197 928 q 592 1072 424 1072 q 723 1060 665 1072 q 847 1021 781 1049 l 847 919 q 593 976 732 976 q 379 919 469 976 q 242 758 289 861 q 194 525 194 656 q 242 288 196 390 q 378 129 289 186 q 592 72 467 72 q 741 93 668 72 q 894 153 814 114 l 931 61 q 761 -2 850 19 q 592 -24 672 -24 m 756 1374 l 594 1161 l 476 1161 l 315 1374 l 433 1374 l 536 1219 l 638 1374 l 756 1374 z "},"Ç":{"ha":979,"x_min":86,"x_max":931,"o":"m 617 -93 q 728 -129 689 -93 q 768 -225 768 -165 q 723 -327 768 -289 q 594 -365 678 -365 q 461 -337 521 -365 l 461 -260 q 589 -289 525 -289 q 658 -271 636 -289 q 681 -226 681 -253 q 603 -168 681 -168 q 488 -190 554 -168 l 539 -22 q 202 142 318 -6 q 86 525 86 289 q 142 804 86 681 q 310 1000 197 928 q 592 1072 424 1072 q 723 1060 665 1072 q 847 1021 781 1049 l 847 919 q 593 976 732 976 q 379 919 469 976 q 242 758 289 861 q 194 525 194 656 q 242 288 196 390 q 378 129 289 186 q 592 72 467 72 q 741 93 668 72 q 894 153 814 114 l 931 61 q 777 2 857 24 q 624 -22 697 -19 l 601 -94 q 617 -93 606 -93 z "},"Ċ":{"ha":979,"x_min":86,"x_max":931,"o":"m 86 0 m 592 -24 q 313 45 426 -24 q 142 238 199 114 q 86 525 86 361 q 142 804 86 681 q 310 1000 197 928 q 592 1072 424 1072 q 723 1060 665 1072 q 847 1021 781 1049 l 847 919 q 593 976 732 976 q 379 919 469 976 q 242 758 289 861 q 194 525 194 656 q 242 288 196 390 q 378 129 289 186 q 592 72 467 72 q 741 93 668 72 q 894 153 814 114 l 931 61 q 761 -2 850 19 q 592 -24 672 -24 m 485 1349 l 588 1349 l 588 1186 l 485 1186 l 485 1349 z "},"D":{"ha":1104,"x_min":157,"x_max":1013,"o":"m 503 1053 q 884 919 756 1053 q 1013 525 1013 785 q 885 132 1013 264 q 503 0 757 0 l 157 0 l 157 1053 l 503 1053 m 503 96 q 803 200 703 96 q 904 529 904 304 q 802 853 904 749 q 503 957 700 957 l 264 957 l 264 96 l 503 96 z "},"Ð":{"ha":1104,"x_min":33,"x_max":1013,"o":"m 503 1053 q 884 919 756 1053 q 1013 525 1013 785 q 885 132 1013 264 q 503 0 757 0 l 157 0 l 157 485 l 33 485 l 33 574 l 157 574 l 157 1053 l 503 1053 m 503 96 q 803 200 703 96 q 904 529 904 304 q 802 853 904 749 q 503 957 700 957 l 264 957 l 264 574 l 536 574 l 536 485 l 264 485 l 264 96 l 503 96 z "},"Ď":{"ha":1104,"x_min":157,"x_max":1013,"o":"m 157 0 m 503 1053 q 884 919 756 1053 q 1013 525 1013 785 q 885 132 1013 264 q 503 0 757 0 l 157 0 l 157 1053 l 503 1053 m 503 96 q 803 200 703 96 q 904 529 904 304 q 802 853 904 749 q 503 957 700 957 l 264 957 l 264 96 l 503 96 m 735 1374 l 574 1161 l 456 1161 l 294 1374 l 413 1374 l 515 1219 l 617 1374 l 735 1374 z "},"Đ":{"ha":1104,"x_min":33,"x_max":1013,"o":"m 33 0 m 503 1053 q 884 919 756 1053 q 1013 525 1013 785 q 885 132 1013 264 q 503 0 757 0 l 157 0 l 157 485 l 33 485 l 33 574 l 157 574 l 157 1053 l 503 1053 m 503 96 q 803 200 703 96 q 904 529 904 304 q 802 853 904 749 q 503 957 700 957 l 264 957 l 264 574 l 536 574 l 536 485 l 264 485 l 264 96 l 503 96 z "},"E":{"ha":872,"x_min":157,"x_max":789,"o":"m 789 96 l 789 0 l 157 0 l 157 1053 l 782 1053 l 782 957 l 264 957 l 264 578 l 713 578 l 713 482 l 264 482 l 264 96 l 789 96 z "},"É":{"ha":872,"x_min":157,"x_max":789,"o":"m 157 0 m 789 96 l 789 0 l 157 0 l 157 1053 l 782 1053 l 782 957 l 264 957 l 264 578 l 713 578 l 713 482 l 264 482 l 264 96 l 789 96 m 558 1374 l 683 1374 l 515 1161 l 411 1161 l 558 1374 z "},"Ě":{"ha":872,"x_min":157,"x_max":789,"o":"m 157 0 m 789 96 l 789 0 l 157 0 l 157 1053 l 782 1053 l 782 957 l 264 957 l 264 578 l 713 578 l 713 482 l 264 482 l 264 96 l 789 96 m 686 1374 l 525 1161 l 407 1161 l 246 1374 l 364 1374 l 467 1219 l 568 1374 l 686 1374 z "},"Ê":{"ha":872,"x_min":157,"x_max":789,"o":"m 157 0 m 789 96 l 789 0 l 157 0 l 157 1053 l 782 1053 l 782 957 l 264 957 l 264 578 l 713 578 l 713 482 l 264 482 l 264 96 l 789 96 m 568 1161 l 467 1315 l 364 1161 l 246 1161 l 407 1374 l 525 1374 l 686 1161 l 568 1161 z "},"Ë":{"ha":872,"x_min":157,"x_max":789,"o":"m 157 0 m 789 96 l 789 0 l 157 0 l 157 1053 l 782 1053 l 782 957 l 264 957 l 264 578 l 713 578 l 713 482 l 264 482 l 264 96 l 789 96 m 557 1349 l 656 1349 l 656 1186 l 557 1186 l 557 1349 m 281 1349 l 378 1349 l 378 1186 l 281 1186 l 281 1349 z "},"Ė":{"ha":872,"x_min":157,"x_max":789,"o":"m 157 0 m 789 96 l 789 0 l 157 0 l 157 1053 l 782 1053 l 782 957 l 264 957 l 264 578 l 713 578 l 713 482 l 264 482 l 264 96 l 789 96 m 417 1349 l 519 1349 l 519 1186 l 417 1186 l 417 1349 z "},"È":{"ha":872,"x_min":157,"x_max":789,"o":"m 157 0 m 789 96 l 789 0 l 157 0 l 157 1053 l 782 1053 l 782 957 l 264 957 l 264 578 l 713 578 l 713 482 l 264 482 l 264 96 l 789 96 m 267 1374 l 390 1374 l 539 1161 l 435 1161 l 267 1374 z "},"Ē":{"ha":872,"x_min":157,"x_max":789,"o":"m 157 0 m 264 1308 l 693 1308 l 693 1228 l 264 1228 l 264 1308 m 789 96 l 789 0 l 157 0 l 157 1053 l 782 1053 l 782 957 l 264 957 l 264 578 l 713 578 l 713 482 l 264 482 l 264 96 l 789 96 z "},"Ę":{"ha":872,"x_min":157,"x_max":789,"o":"m 157 0 m 789 96 l 789 0 l 157 0 l 157 1053 l 782 1053 l 782 957 l 264 957 l 264 578 l 713 578 l 713 482 l 264 482 l 264 96 l 789 96 m 708 -319 q 597 -287 635 -319 q 558 -199 558 -254 q 590 -99 558 -146 q 688 0 622 -51 l 788 0 q 683 -98 719 -56 q 647 -186 647 -140 q 665 -226 647 -211 q 715 -242 682 -242 q 788 -225 757 -242 l 788 -303 q 708 -319 749 -319 z "},"F":{"ha":849,"x_min":157,"x_max":782,"o":"m 264 954 l 264 563 l 713 563 l 713 464 l 264 464 l 264 0 l 157 0 l 157 1053 l 782 1053 l 782 954 l 264 954 z "},"G":{"ha":1078,"x_min":86,"x_max":954,"o":"m 954 643 l 954 74 q 774 1 871 26 q 592 -24 676 -24 q 314 45 428 -24 q 143 238 200 114 q 86 525 86 361 q 141 804 86 681 q 310 1000 196 928 q 592 1072 424 1072 q 747 1055 683 1072 q 889 1003 810 1038 l 889 897 q 749 956 818 936 q 592 976 681 976 q 378 919 468 976 q 242 761 289 863 q 194 529 194 660 q 241 290 194 393 q 377 130 288 188 q 592 72 467 72 q 719 88 657 72 q 849 133 782 104 l 849 544 l 424 544 l 424 643 l 954 643 z "},"Ğ":{"ha":1078,"x_min":86,"x_max":954,"o":"m 86 0 m 954 643 l 954 74 q 774 1 871 26 q 592 -24 676 -24 q 314 45 428 -24 q 143 238 200 114 q 86 525 86 361 q 141 804 86 681 q 310 1000 196 928 q 592 1072 424 1072 q 747 1055 683 1072 q 889 1003 810 1038 l 889 897 q 749 956 818 936 q 592 976 681 976 q 378 919 468 976 q 242 761 289 863 q 194 529 194 660 q 241 290 194 393 q 377 130 288 188 q 592 72 467 72 q 719 88 657 72 q 849 133 782 104 l 849 544 l 424 544 l 424 643 l 954 643 m 571 1161 q 416 1212 474 1161 q 358 1358 358 1263 l 358 1371 l 446 1371 l 446 1360 q 476 1269 446 1299 q 571 1240 506 1240 q 666 1269 636 1240 q 696 1360 696 1299 l 696 1371 l 783 1371 l 783 1358 q 729 1212 788 1263 q 571 1161 671 1161 z "},"Ģ":{"ha":1078,"x_min":86,"x_max":954,"o":"m 86 0 m 954 643 l 954 74 q 774 1 871 26 q 592 -24 676 -24 q 314 45 428 -24 q 143 238 200 114 q 86 525 86 361 q 141 804 86 681 q 310 1000 196 928 q 592 1072 424 1072 q 747 1055 683 1072 q 889 1003 810 1038 l 889 897 q 749 956 818 936 q 592 976 681 976 q 378 919 468 976 q 242 761 289 863 q 194 529 194 660 q 241 290 194 393 q 377 130 288 188 q 592 72 467 72 q 719 88 657 72 q 849 133 782 104 l 849 544 l 424 544 l 424 643 l 954 643 m 526 -111 l 638 -111 l 582 -342 l 482 -342 l 526 -111 z "},"Ġ":{"ha":1078,"x_min":86,"x_max":954,"o":"m 86 0 m 954 643 l 954 74 q 774 1 871 26 q 592 -24 676 -24 q 314 45 428 -24 q 143 238 200 114 q 86 525 86 361 q 141 804 86 681 q 310 1000 196 928 q 592 1072 424 1072 q 747 1055 683 1072 q 889 1003 810 1038 l 889 897 q 749 956 818 936 q 592 976 681 976 q 378 919 468 976 q 242 761 289 863 q 194 529 194 660 q 241 290 194 393 q 377 130 288 188 q 592 72 467 72 q 719 88 657 72 q 849 133 782 104 l 849 544 l 424 544 l 424 643 l 954 643 m 519 1349 l 622 1349 l 622 1186 l 519 1186 l 519 1349 z "},"H":{"ha":1086,"x_min":157,"x_max":929,"o":"m 929 1053 l 929 0 l 822 0 l 822 481 l 264 481 l 264 0 l 157 0 l 157 1053 l 264 1053 l 264 578 l 822 578 l 822 1053 l 929 1053 z "},"Ħ":{"ha":1076,"x_min":157,"x_max":929,"o":"m 929 1053 l 929 0 l 822 0 l 822 481 l 264 481 l 264 0 l 157 0 l 157 1053 l 264 1053 l 264 861 l 822 861 l 822 1053 l 929 1053 m 822 578 l 822 765 l 264 765 l 264 578 l 822 578 z "},"I":{"ha":421,"x_min":157,"x_max":264,"o":"m 157 1053 l 264 1053 l 264 0 l 157 0 l 157 1053 z "},"Ĳ":{"ha":850,"x_min":157,"x_max":692,"o":"m 157 0 m 157 1053 l 264 1053 l 264 0 l 157 0 l 157 1053 m 503 -136 q 433 -129 465 -136 l 433 -32 q 500 -37 461 -37 q 552 -26 535 -37 q 577 19 569 -14 q 585 115 585 51 l 585 1053 l 692 1053 l 692 107 q 675 -43 692 8 q 619 -115 658 -94 q 503 -136 579 -136 z "},"Í":{"ha":421,"x_min":154,"x_max":426,"o":"m 154 0 m 157 1053 l 264 1053 l 264 0 l 157 0 l 157 1053 m 301 1374 l 426 1374 l 258 1161 l 154 1161 l 301 1374 z "},"Î":{"ha":421,"x_min":-10,"x_max":431,"o":"m 0 0 m 157 1053 l 264 1053 l 264 0 l 157 0 l 157 1053 m 313 1161 l 211 1315 l 108 1161 l -10 1161 l 151 1374 l 269 1374 l 431 1161 l 313 1161 z "},"Ï":{"ha":421,"x_min":24,"x_max":399,"o":"m 24 0 m 157 1053 l 264 1053 l 264 0 l 157 0 l 157 1053 m 300 1349 l 399 1349 l 399 1186 l 300 1186 l 300 1349 m 24 1349 l 121 1349 l 121 1186 l 24 1186 l 24 1349 z "},"İ":{"ha":421,"x_min":157,"x_max":264,"o":"m 157 0 m 157 1053 l 264 1053 l 264 0 l 157 0 l 157 1053 m 160 1349 l 263 1349 l 263 1186 l 160 1186 l 160 1349 z "},"Ì":{"ha":421,"x_min":10,"x_max":282,"o":"m 10 0 m 157 1053 l 264 1053 l 264 0 l 157 0 l 157 1053 m 10 1374 l 133 1374 l 282 1161 l 178 1161 l 10 1374 z "},"Ī":{"ha":421,"x_min":-4,"x_max":425,"o":"m 0 0 m 157 1053 l 264 1053 l 264 0 l 157 0 l 157 1053 m -4 1308 l 425 1308 l 425 1228 l -4 1228 l -4 1308 z "},"Į":{"ha":421,"x_min":29,"x_max":264,"o":"m 264 1053 l 264 0 l 258 0 q 154 -98 190 -56 q 118 -186 118 -140 q 135 -226 118 -211 q 186 -242 153 -242 q 258 -225 228 -242 l 258 -303 q 179 -319 219 -319 q 67 -287 106 -319 q 29 -199 29 -254 q 63 -99 29 -146 q 163 0 96 -51 l 157 0 l 157 1053 l 264 1053 z "},"J":{"ha":428,"x_min":13,"x_max":271,"o":"m 82 -136 q 13 -129 44 -136 l 13 -32 q 79 -37 40 -37 q 131 -26 114 -37 q 156 19 149 -14 q 164 115 164 51 l 164 1053 l 271 1053 l 271 107 q 254 -43 271 8 q 198 -115 238 -94 q 82 -136 158 -136 z "},"K":{"ha":936,"x_min":157,"x_max":885,"o":"m 342 499 l 264 419 l 264 0 l 157 0 l 157 1053 l 264 1053 l 264 561 l 742 1053 l 878 1053 l 417 576 l 885 0 l 746 0 l 342 499 z "},"Ķ":{"ha":936,"x_min":157,"x_max":885,"o":"m 157 0 m 342 499 l 264 419 l 264 0 l 157 0 l 157 1053 l 264 1053 l 264 561 l 742 1053 l 878 1053 l 417 576 l 885 0 l 746 0 l 342 499 m 400 -111 l 511 -111 l 456 -342 l 356 -342 l 400 -111 z "},"L":{"ha":775,"x_min":157,"x_max":719,"o":"m 719 99 l 719 0 l 157 0 l 157 1053 l 264 1053 l 264 99 l 719 99 z "},"Ĺ":{"ha":775,"x_min":153,"x_max":719,"o":"m 153 0 m 719 99 l 719 0 l 157 0 l 157 1053 l 264 1053 l 264 99 l 719 99 m 300 1374 l 425 1374 l 257 1161 l 153 1161 l 300 1374 z "},"Ľ":{"ha":775,"x_min":157,"x_max":719,"o":"m 157 0 m 719 99 l 719 0 l 157 0 l 157 1053 l 264 1053 l 264 99 l 719 99 m 464 1053 l 567 1053 l 485 772 l 394 772 l 464 1053 z "},"Ļ":{"ha":775,"x_min":157,"x_max":719,"o":"m 157 0 m 719 99 l 719 0 l 157 0 l 157 1053 l 264 1053 l 264 99 l 719 99 m 374 -111 l 485 -111 l 429 -342 l 329 -342 l 374 -111 z "},"Ŀ":{"ha":775,"x_min":157,"x_max":719,"o":"m 157 0 m 719 99 l 719 0 l 157 0 l 157 1053 l 264 1053 l 264 99 l 719 99 m 500 642 l 617 642 l 617 425 l 500 425 l 500 642 z "},"Ł":{"ha":775,"x_min":18,"x_max":719,"o":"m 719 99 l 719 0 l 157 0 l 157 392 l 18 336 l 18 431 l 157 488 l 157 1053 l 264 1053 l 264 531 l 618 672 l 618 578 l 264 435 l 264 99 l 719 99 z "},"M":{"ha":1268,"x_min":157,"x_max":1111,"o":"m 1111 1053 l 1111 0 l 1004 0 l 1004 886 l 663 413 l 606 413 l 264 886 l 264 0 l 157 0 l 157 1053 l 271 1053 l 635 549 l 999 1053 l 1111 1053 z "},"N":{"ha":1086,"x_min":157,"x_max":929,"o":"m 929 1053 l 929 0 l 818 0 l 264 868 l 264 0 l 157 0 l 157 1053 l 269 1053 l 822 185 l 822 1053 l 929 1053 z "},"Ń":{"ha":1086,"x_min":157,"x_max":929,"o":"m 157 0 m 929 1053 l 929 0 l 818 0 l 264 868 l 264 0 l 157 0 l 157 1053 l 269 1053 l 822 185 l 822 1053 l 929 1053 m 651 1374 l 776 1374 l 608 1161 l 504 1161 l 651 1374 z "},"Ň":{"ha":1086,"x_min":-64,"x_max":929,"o":"m 0 0 m 929 1053 l 929 0 l 818 0 l 264 868 l 264 0 l 157 0 l 157 1053 l 269 1053 l 822 185 l 822 1053 l 929 1053 m 6 1360 l 108 1360 l 26 1079 l -64 1079 l 6 1360 z "},"Ņ":{"ha":1086,"x_min":157,"x_max":929,"o":"m 157 0 m 929 1053 l 929 0 l 818 0 l 264 868 l 264 0 l 157 0 l 157 1053 l 269 1053 l 822 185 l 822 1053 l 929 1053 m 449 -111 l 560 -111 l 504 -342 l 404 -342 l 449 -111 z "},"Ŋ":{"ha":1076,"x_min":157,"x_max":929,"o":"m 929 1053 l 929 -8 q 913 -157 929 -106 q 856 -229 896 -208 q 740 -250 817 -250 q 671 -244 704 -250 l 671 -146 q 738 -153 706 -153 q 790 -141 772 -153 q 815 -97 807 -129 q 822 0 822 -64 l 822 3 l 264 869 l 264 0 l 157 0 l 157 1053 l 269 1053 l 822 192 l 822 1053 l 929 1053 z "},"Ñ":{"ha":1086,"x_min":157,"x_max":929,"o":"m 157 0 m 929 1053 l 929 0 l 818 0 l 264 868 l 264 0 l 157 0 l 157 1053 l 269 1053 l 822 185 l 822 1053 l 929 1053 m 354 1192 q 386 1301 356 1268 q 463 1335 417 1335 q 544 1314 503 1335 l 596 1288 q 640 1274 624 1274 q 682 1335 682 1274 l 767 1335 q 735 1225 765 1258 q 658 1192 704 1192 q 578 1213 619 1192 l 526 1239 q 481 1253 496 1253 q 439 1192 439 1253 l 354 1192 z "},"O":{"ha":1156,"x_min":86,"x_max":1071,"o":"m 579 -24 q 308 48 419 -24 q 142 244 197 119 q 86 525 86 368 q 142 803 86 679 q 308 999 197 926 q 579 1072 419 1072 q 847 999 736 1072 q 1015 802 958 926 q 1071 525 1071 678 q 1015 244 1071 368 q 847 48 958 119 q 579 -24 736 -24 m 579 72 q 785 132 699 72 q 916 296 871 192 q 961 529 961 400 q 916 756 961 654 q 784 917 871 857 q 579 976 697 976 q 370 917 457 976 q 240 754 283 857 q 196 525 196 651 q 240 293 196 396 q 370 131 283 190 q 579 72 457 72 z "},"Ó":{"ha":1156,"x_min":86,"x_max":1071,"o":"m 86 0 m 579 -24 q 308 48 419 -24 q 142 244 197 119 q 86 525 86 368 q 142 803 86 679 q 308 999 197 926 q 579 1072 419 1072 q 847 999 736 1072 q 1015 802 958 926 q 1071 525 1071 678 q 1015 244 1071 368 q 847 48 958 119 q 579 -24 736 -24 m 579 72 q 785 132 699 72 q 916 296 871 192 q 961 529 961 400 q 916 756 961 654 q 784 917 871 857 q 579 976 697 976 q 370 917 457 976 q 240 754 283 857 q 196 525 196 651 q 240 293 196 396 q 370 131 283 190 q 579 72 457 72 m 669 1374 l 794 1374 l 626 1161 l 522 1161 l 669 1374 z "},"Ô":{"ha":1156,"x_min":86,"x_max":1071,"o":"m 86 0 m 579 -24 q 308 48 419 -24 q 142 244 197 119 q 86 525 86 368 q 142 803 86 679 q 308 999 197 926 q 579 1072 419 1072 q 847 999 736 1072 q 1015 802 958 926 q 1071 525 1071 678 q 1015 244 1071 368 q 847 48 958 119 q 579 -24 736 -24 m 579 72 q 785 132 699 72 q 916 296 871 192 q 961 529 961 400 q 916 756 961 654 q 784 917 871 857 q 579 976 697 976 q 370 917 457 976 q 240 754 283 857 q 196 525 196 651 q 240 293 196 396 q 370 131 283 190 q 579 72 457 72 m 681 1161 l 579 1315 l 476 1161 l 358 1161 l 519 1374 l 638 1374 l 799 1161 l 681 1161 z "},"Ö":{"ha":1156,"x_min":86,"x_max":1071,"o":"m 86 0 m 579 -24 q 308 48 419 -24 q 142 244 197 119 q 86 525 86 368 q 142 803 86 679 q 308 999 197 926 q 579 1072 419 1072 q 847 999 736 1072 q 1015 802 958 926 q 1071 525 1071 678 q 1015 244 1071 368 q 847 48 958 119 q 579 -24 736 -24 m 579 72 q 785 132 699 72 q 916 296 871 192 q 961 529 961 400 q 916 756 961 654 q 784 917 871 857 q 579 976 697 976 q 370 917 457 976 q 240 754 283 857 q 196 525 196 651 q 240 293 196 396 q 370 131 283 190 q 579 72 457 72 m 668 1349 l 767 1349 l 767 1186 l 668 1186 l 668 1349 m 392 1349 l 489 1349 l 489 1186 l 392 1186 l 392 1349 z "},"Ò":{"ha":1156,"x_min":86,"x_max":1071,"o":"m 86 0 m 579 -24 q 308 48 419 -24 q 142 244 197 119 q 86 525 86 368 q 142 803 86 679 q 308 999 197 926 q 579 1072 419 1072 q 847 999 736 1072 q 1015 802 958 926 q 1071 525 1071 678 q 1015 244 1071 368 q 847 48 958 119 q 579 -24 736 -24 m 579 72 q 785 132 699 72 q 916 296 871 192 q 961 529 961 400 q 916 756 961 654 q 784 917 871 857 q 579 976 697 976 q 370 917 457 976 q 240 754 283 857 q 196 525 196 651 q 240 293 196 396 q 370 131 283 190 q 579 72 457 72 m 378 1374 l 501 1374 l 650 1161 l 546 1161 l 378 1374 z "},"Ő":{"ha":1156,"x_min":86,"x_max":1071,"o":"m 86 0 m 579 -24 q 308 48 419 -24 q 142 244 197 119 q 86 525 86 368 q 142 803 86 679 q 308 999 197 926 q 579 1072 419 1072 q 847 999 736 1072 q 1015 802 958 926 q 1071 525 1071 678 q 1015 244 1071 368 q 847 48 958 119 q 579 -24 736 -24 m 579 72 q 785 132 699 72 q 916 296 871 192 q 961 529 961 400 q 916 756 961 654 q 784 917 871 857 q 579 976 697 976 q 370 917 457 976 q 240 754 283 857 q 196 525 196 651 q 240 293 196 396 q 370 131 283 190 q 579 72 457 72 m 794 1374 l 915 1374 l 747 1161 l 647 1161 l 794 1374 m 546 1374 l 667 1374 l 499 1161 l 399 1161 l 546 1374 z "},"Ō":{"ha":1156,"x_min":86,"x_max":1071,"o":"m 86 0 m 579 -24 q 308 48 419 -24 q 142 244 197 119 q 86 525 86 368 q 142 803 86 679 q 308 999 197 926 q 579 1072 419 1072 q 847 999 736 1072 q 1015 802 958 926 q 1071 525 1071 678 q 1015 244 1071 368 q 847 48 958 119 q 579 -24 736 -24 m 579 72 q 785 132 699 72 q 916 296 871 192 q 961 529 961 400 q 916 756 961 654 q 784 917 871 857 q 579 976 697 976 q 370 917 457 976 q 240 754 283 857 q 196 525 196 651 q 240 293 196 396 q 370 131 283 190 q 579 72 457 72 m 364 1308 l 793 1308 l 793 1228 l 364 1228 l 364 1308 z "},"Ø":{"ha":1156,"x_min":42,"x_max":1115,"o":"m 982 861 q 1071 525 1071 719 q 1015 244 1071 368 q 847 48 958 119 q 579 -24 736 -24 q 226 115 358 -24 l 107 -3 l 42 60 l 171 188 q 86 525 86 326 q 142 803 86 679 q 308 999 197 926 q 579 1072 419 1072 q 776 1036 689 1072 q 926 933 864 1000 l 1051 1056 l 1115 992 l 982 861 m 196 525 q 251 267 196 376 l 850 858 q 733 946 801 915 q 579 976 664 976 q 370 917 457 976 q 240 754 283 857 q 196 525 196 651 m 961 525 q 903 782 961 674 l 303 190 q 579 72 406 72 q 785 131 699 72 q 915 293 871 190 q 961 525 960 396 z "},"Õ":{"ha":1156,"x_min":86,"x_max":1071,"o":"m 86 0 m 579 -24 q 308 48 419 -24 q 142 244 197 119 q 86 525 86 368 q 142 803 86 679 q 308 999 197 926 q 579 1072 419 1072 q 847 999 736 1072 q 1015 802 958 926 q 1071 525 1071 678 q 1015 244 1071 368 q 847 48 958 119 q 579 -24 736 -24 m 579 72 q 785 132 699 72 q 916 296 871 192 q 961 529 961 400 q 916 756 961 654 q 784 917 871 857 q 579 976 697 976 q 370 917 457 976 q 240 754 283 857 q 196 525 196 651 q 240 293 196 396 q 370 131 283 190 q 579 72 457 72 m 372 1192 q 404 1301 374 1268 q 481 1335 435 1335 q 563 1314 521 1335 l 614 1288 q 658 1274 642 1274 q 700 1335 700 1274 l 785 1335 q 753 1225 783 1258 q 676 1192 722 1192 q 596 1213 638 1192 l 544 1239 q 499 1253 514 1253 q 457 1192 457 1253 l 372 1192 z "},"Œ":{"ha":1556,"x_min":92,"x_max":1472,"o":"m 1472 96 l 1472 0 l 601 0 q 220 134 349 0 q 92 528 92 268 q 219 921 92 789 q 601 1053 347 1053 l 1465 1053 l 1465 957 l 947 957 l 947 578 l 1396 578 l 1396 482 l 947 482 l 947 96 l 1472 96 m 840 96 l 840 957 l 601 957 q 301 853 401 957 q 201 524 201 750 q 303 200 201 304 q 601 96 404 96 l 840 96 z "},"P":{"ha":904,"x_min":157,"x_max":842,"o":"m 513 1053 q 842 747 842 1053 q 759 523 842 600 q 513 446 676 446 l 264 446 l 264 0 l 157 0 l 157 1053 l 513 1053 m 732 751 q 677 908 732 858 q 513 957 622 957 l 264 957 l 264 540 l 513 540 q 732 751 732 540 z "},"Þ":{"ha":892,"x_min":157,"x_max":842,"o":"m 513 838 q 842 532 842 838 q 759 308 842 385 q 513 231 676 231 l 264 231 l 264 0 l 157 0 l 157 1053 l 264 1053 l 264 838 l 513 838 m 732 536 q 677 692 732 643 q 513 742 622 742 l 264 742 l 264 325 l 513 325 q 732 536 732 325 z "},"Q":{"ha":1156,"x_min":86,"x_max":1071,"o":"m 1071 525 q 1028 274 1071 388 q 900 88 985 161 l 1056 -89 l 924 -89 l 819 32 q 579 -24 717 -24 q 308 48 419 -24 q 142 244 197 119 q 86 525 86 368 q 142 803 86 679 q 308 999 197 926 q 579 1072 419 1072 q 847 999 736 1072 q 1015 802 958 926 q 1071 525 1071 678 m 196 525 q 240 293 196 396 q 370 131 283 190 q 579 72 457 72 q 751 111 674 72 l 564 329 l 690 329 l 829 169 q 927 324 893 231 q 961 529 961 417 q 916 756 961 654 q 784 917 871 857 q 579 976 697 976 q 370 917 457 976 q 240 754 283 857 q 196 525 196 651 z "},"R":{"ha":969,"x_min":157,"x_max":894,"o":"m 489 461 l 264 461 l 264 0 l 157 0 l 157 1053 l 513 1053 q 842 756 842 1053 q 783 560 842 633 q 604 468 724 488 l 894 0 l 772 0 l 489 461 m 264 557 l 513 557 q 732 760 732 557 q 677 910 732 863 q 513 957 622 957 l 264 957 l 264 557 z "},"Ŕ":{"ha":969,"x_min":157,"x_max":894,"o":"m 157 0 m 489 461 l 264 461 l 264 0 l 157 0 l 157 1053 l 513 1053 q 842 756 842 1053 q 783 560 842 633 q 604 468 724 488 l 894 0 l 772 0 l 489 461 m 264 557 l 513 557 q 732 760 732 557 q 677 910 732 863 q 513 957 622 957 l 264 957 l 264 557 m 538 1374 l 663 1374 l 494 1161 l 390 1161 l 538 1374 z "},"Ř":{"ha":969,"x_min":157,"x_max":894,"o":"m 157 0 m 489 461 l 264 461 l 264 0 l 157 0 l 157 1053 l 513 1053 q 842 756 842 1053 q 783 560 842 633 q 604 468 724 488 l 894 0 l 772 0 l 489 461 m 264 557 l 513 557 q 732 760 732 557 q 677 910 732 863 q 513 957 622 957 l 264 957 l 264 557 m 665 1374 l 504 1161 l 386 1161 l 225 1374 l 343 1374 l 446 1219 l 547 1374 l 665 1374 z "},"Ŗ":{"ha":969,"x_min":157,"x_max":894,"o":"m 157 0 m 489 461 l 264 461 l 264 0 l 157 0 l 157 1053 l 513 1053 q 842 756 842 1053 q 783 560 842 633 q 604 468 724 488 l 894 0 l 772 0 l 489 461 m 264 557 l 513 557 q 732 760 732 557 q 677 910 732 863 q 513 957 622 957 l 264 957 l 264 557 m 413 -111 l 524 -111 l 468 -342 l 368 -342 l 413 -111 z "},"S":{"ha":883,"x_min":89,"x_max":790,"o":"m 442 -24 q 89 51 244 -24 l 89 153 q 442 72 243 72 q 623 125 565 72 q 682 265 681 178 q 628 390 682 347 q 476 460 574 432 l 382 486 q 247 540 303 510 q 153 627 190 569 q 117 775 117 685 q 201 997 117 921 q 438 1072 285 1072 q 597 1056 528 1072 q 739 1004 667 1039 l 739 904 q 438 976 599 976 q 277 923 329 976 q 225 778 225 869 q 276 653 226 694 q 422 586 325 613 l 518 560 q 660 506 601 538 q 754 416 718 474 q 790 267 790 358 q 697 54 789 132 q 442 -24 604 -24 z "},"Ś":{"ha":883,"x_min":89,"x_max":790,"o":"m 89 0 m 442 -24 q 89 51 244 -24 l 89 153 q 442 72 243 72 q 623 125 565 72 q 682 265 681 178 q 628 390 682 347 q 476 460 574 432 l 382 486 q 247 540 303 510 q 153 627 190 569 q 117 775 117 685 q 201 997 117 921 q 438 1072 285 1072 q 597 1056 528 1072 q 739 1004 667 1039 l 739 904 q 438 976 599 976 q 277 923 329 976 q 225 778 225 869 q 276 653 226 694 q 422 586 325 613 l 518 560 q 660 506 601 538 q 754 416 718 474 q 790 267 790 358 q 697 54 789 132 q 442 -24 604 -24 m 542 1374 l 667 1374 l 499 1161 l 394 1161 l 542 1374 z "},"Š":{"ha":883,"x_min":89,"x_max":790,"o":"m 89 0 m 442 -24 q 89 51 244 -24 l 89 153 q 442 72 243 72 q 623 125 565 72 q 682 265 681 178 q 628 390 682 347 q 476 460 574 432 l 382 486 q 247 540 303 510 q 153 627 190 569 q 117 775 117 685 q 201 997 117 921 q 438 1072 285 1072 q 597 1056 528 1072 q 739 1004 667 1039 l 739 904 q 438 976 599 976 q 277 923 329 976 q 225 778 225 869 q 276 653 226 694 q 422 586 325 613 l 518 560 q 660 506 601 538 q 754 416 718 474 q 790 267 790 358 q 697 54 789 132 q 442 -24 604 -24 m 669 1374 l 508 1161 l 390 1161 l 229 1374 l 347 1374 l 450 1219 l 551 1374 l 669 1374 z "},"Ş":{"ha":883,"x_min":89,"x_max":790,"o":"m 790 267 q 706 63 789 140 q 479 -22 624 -14 l 457 -94 q 474 -93 463 -93 q 585 -129 546 -93 q 625 -225 625 -165 q 580 -327 625 -289 q 450 -365 535 -365 q 318 -337 378 -365 l 318 -260 q 446 -289 382 -289 q 515 -271 493 -289 q 538 -226 538 -253 q 460 -168 538 -168 q 344 -190 408 -168 l 394 -22 q 89 51 228 -17 l 89 153 q 442 72 243 72 q 623 125 565 72 q 682 265 681 178 q 628 390 682 347 q 476 460 574 432 l 382 486 q 247 540 303 510 q 153 627 190 569 q 117 775 117 685 q 201 997 117 921 q 438 1072 285 1072 q 597 1056 528 1072 q 739 1004 667 1039 l 739 904 q 438 976 599 976 q 277 923 329 976 q 225 778 225 869 q 276 653 226 694 q 422 586 325 613 l 518 560 q 660 506 601 538 q 754 416 718 474 q 790 267 790 358 z "},"Ș":{"ha":883,"x_min":89,"x_max":790,"o":"m 89 0 m 442 -24 q 89 51 244 -24 l 89 153 q 442 72 243 72 q 623 125 565 72 q 682 265 681 178 q 628 390 682 347 q 476 460 574 432 l 382 486 q 247 540 303 510 q 153 627 190 569 q 117 775 117 685 q 201 997 117 921 q 438 1072 285 1072 q 597 1056 528 1072 q 739 1004 667 1039 l 739 904 q 438 976 599 976 q 277 923 329 976 q 225 778 225 869 q 276 653 226 694 q 422 586 325 613 l 518 560 q 660 506 601 538 q 754 416 718 474 q 790 267 790 358 q 697 54 789 132 q 442 -24 604 -24 m 381 -111 l 492 -111 l 436 -342 l 336 -342 l 381 -111 z "},"T":{"ha":867,"x_min":56,"x_max":811,"o":"m 811 954 l 486 954 l 486 0 l 381 0 l 381 954 l 56 954 l 56 1053 l 811 1053 l 811 954 z "},"Ŧ":{"ha":853,"x_min":53,"x_max":808,"o":"m 485 954 l 485 735 l 724 735 l 724 640 l 485 640 l 485 0 l 378 0 l 378 640 l 139 640 l 139 735 l 378 735 l 378 954 l 53 954 l 53 1053 l 808 1053 l 808 954 l 485 954 z "},"Ť":{"ha":867,"x_min":56,"x_max":811,"o":"m 56 0 m 811 954 l 486 954 l 486 0 l 381 0 l 381 954 l 56 954 l 56 1053 l 811 1053 l 811 954 m 653 1374 l 492 1161 l 374 1161 l 213 1374 l 331 1374 l 433 1219 l 535 1374 l 653 1374 z "},"Ţ":{"ha":867,"x_min":56,"x_max":811,"o":"m 475 0 l 446 -94 q 463 -93 451 -93 q 574 -129 535 -93 q 614 -225 614 -165 q 569 -327 614 -289 q 439 -365 524 -365 q 307 -337 367 -365 l 307 -260 q 435 -289 371 -289 q 504 -271 482 -289 q 526 -226 526 -253 q 449 -168 526 -168 q 333 -190 397 -168 l 390 0 l 381 0 l 381 954 l 56 954 l 56 1053 l 811 1053 l 811 954 l 486 954 l 486 0 l 475 0 z "},"Ț":{"ha":867,"x_min":56,"x_max":811,"o":"m 56 0 m 811 954 l 486 954 l 486 0 l 381 0 l 381 954 l 56 954 l 56 1053 l 811 1053 l 811 954 m 369 -111 l 481 -111 l 425 -342 l 325 -342 l 369 -111 z "},"U":{"ha":1076,"x_min":151,"x_max":925,"o":"m 539 -24 q 248 75 344 -24 q 151 356 151 174 l 151 1053 l 258 1053 l 258 356 q 328 144 258 215 q 539 72 399 72 q 748 144 678 72 q 818 356 818 215 l 818 1053 l 925 1053 l 925 356 q 829 75 925 174 q 539 -24 733 -24 z "},"Ú":{"ha":1076,"x_min":151,"x_max":925,"o":"m 151 0 m 539 -24 q 248 75 344 -24 q 151 356 151 174 l 151 1053 l 258 1053 l 258 356 q 328 144 258 215 q 539 72 399 72 q 748 144 678 72 q 818 356 818 215 l 818 1053 l 925 1053 l 925 356 q 829 75 925 174 q 539 -24 733 -24 m 629 1374 l 754 1374 l 586 1161 l 482 1161 l 629 1374 z "},"Û":{"ha":1076,"x_min":151,"x_max":925,"o":"m 151 0 m 539 -24 q 248 75 344 -24 q 151 356 151 174 l 151 1053 l 258 1053 l 258 356 q 328 144 258 215 q 539 72 399 72 q 748 144 678 72 q 818 356 818 215 l 818 1053 l 925 1053 l 925 356 q 829 75 925 174 q 539 -24 733 -24 m 639 1161 l 538 1315 l 435 1161 l 317 1161 l 478 1374 l 596 1374 l 757 1161 l 639 1161 z "},"Ü":{"ha":1076,"x_min":151,"x_max":925,"o":"m 151 0 m 628 1349 l 726 1349 l 726 1186 l 628 1186 l 628 1349 m 351 1349 l 449 1349 l 449 1186 l 351 1186 l 351 1349 m 539 -24 q 248 75 344 -24 q 151 356 151 174 l 151 1053 l 258 1053 l 258 356 q 328 144 258 215 q 539 72 399 72 q 748 144 678 72 q 818 356 818 215 l 818 1053 l 925 1053 l 925 356 q 829 75 925 174 q 539 -24 733 -24 z "},"Ù":{"ha":1076,"x_min":151,"x_max":925,"o":"m 151 0 m 539 -24 q 248 75 344 -24 q 151 356 151 174 l 151 1053 l 258 1053 l 258 356 q 328 144 258 215 q 539 72 399 72 q 748 144 678 72 q 818 356 818 215 l 818 1053 l 925 1053 l 925 356 q 829 75 925 174 q 539 -24 733 -24 m 338 1374 l 461 1374 l 610 1161 l 506 1161 l 338 1374 z "},"Ű":{"ha":1076,"x_min":151,"x_max":925,"o":"m 151 0 m 539 -24 q 248 75 344 -24 q 151 356 151 174 l 151 1053 l 258 1053 l 258 356 q 328 144 258 215 q 539 72 399 72 q 748 144 678 72 q 818 356 818 215 l 818 1053 l 925 1053 l 925 356 q 829 75 925 174 q 539 -24 733 -24 m 753 1374 l 874 1374 l 706 1161 l 606 1161 l 753 1374 m 504 1374 l 625 1374 l 457 1161 l 357 1161 l 504 1374 z "},"Ū":{"ha":1076,"x_min":151,"x_max":925,"o":"m 151 0 m 539 -24 q 248 75 344 -24 q 151 356 151 174 l 151 1053 l 258 1053 l 258 356 q 328 144 258 215 q 539 72 399 72 q 748 144 678 72 q 818 356 818 215 l 818 1053 l 925 1053 l 925 356 q 829 75 925 174 q 539 -24 733 -24 m 322 1308 l 751 1308 l 751 1228 l 322 1228 l 322 1308 z "},"Ų":{"ha":1076,"x_min":151,"x_max":925,"o":"m 925 1053 l 925 356 q 853 103 925 199 q 636 -17 782 8 q 547 -103 578 -62 q 515 -186 515 -143 q 533 -226 515 -211 q 583 -242 550 -242 q 657 -225 625 -242 l 657 -303 q 578 -319 615 -319 q 465 -287 503 -319 q 426 -199 426 -254 q 451 -110 426 -153 q 526 -24 476 -68 q 245 78 339 -21 q 151 356 151 178 l 151 1053 l 258 1053 l 258 356 q 328 144 258 215 q 539 72 399 72 q 748 144 678 72 q 818 356 818 215 l 818 1053 l 925 1053 z "},"Ů":{"ha":1076,"x_min":151,"x_max":925,"o":"m 151 0 m 539 -24 q 248 75 344 -24 q 151 356 151 174 l 151 1053 l 258 1053 l 258 356 q 328 144 258 215 q 539 72 399 72 q 748 144 678 72 q 818 356 818 215 l 818 1053 l 925 1053 l 925 356 q 829 75 925 174 q 539 -24 733 -24 m 538 1139 q 440 1176 478 1139 q 401 1267 401 1213 q 439 1358 401 1322 q 538 1393 476 1393 q 635 1357 597 1393 q 672 1267 672 1321 q 635 1175 672 1211 q 538 1139 597 1139 m 538 1199 q 585 1217 567 1199 q 604 1267 604 1236 q 586 1316 604 1297 q 538 1335 568 1335 q 489 1316 508 1335 q 469 1267 469 1297 q 489 1217 469 1236 q 538 1199 508 1199 z "},"V":{"ha":1010,"x_min":47,"x_max":963,"o":"m 963 1053 l 560 -12 l 451 -12 l 47 1053 l 160 1053 l 506 136 l 850 1053 l 963 1053 z "},"W":{"ha":1490,"x_min":53,"x_max":1439,"o":"m 1439 1053 l 1124 -12 l 1015 -12 l 746 886 l 476 -12 l 368 -12 l 53 1053 l 163 1053 l 422 147 l 686 1053 l 804 1053 l 1069 146 l 1328 1053 l 1439 1053 z "},"Ẃ":{"ha":1490,"x_min":53,"x_max":1439,"o":"m 53 0 m 1439 1053 l 1124 -12 l 1015 -12 l 746 886 l 476 -12 l 368 -12 l 53 1053 l 163 1053 l 422 147 l 686 1053 l 804 1053 l 1069 146 l 1328 1053 l 1439 1053 m 836 1374 l 961 1374 l 793 1161 l 689 1161 l 836 1374 z "},"Ŵ":{"ha":1490,"x_min":53,"x_max":1439,"o":"m 53 0 m 1439 1053 l 1124 -12 l 1015 -12 l 746 886 l 476 -12 l 368 -12 l 53 1053 l 163 1053 l 422 147 l 686 1053 l 804 1053 l 1069 146 l 1328 1053 l 1439 1053 m 847 1161 l 746 1315 l 643 1161 l 525 1161 l 686 1374 l 804 1374 l 965 1161 l 847 1161 z "},"Ẅ":{"ha":1490,"x_min":53,"x_max":1439,"o":"m 53 0 m 1439 1053 l 1124 -12 l 1015 -12 l 746 886 l 476 -12 l 368 -12 l 53 1053 l 163 1053 l 422 147 l 686 1053 l 804 1053 l 1069 146 l 1328 1053 l 1439 1053 m 835 1349 l 933 1349 l 933 1186 l 835 1186 l 835 1349 m 558 1349 l 656 1349 l 656 1186 l 558 1186 l 558 1349 z "},"Ẁ":{"ha":1490,"x_min":53,"x_max":1439,"o":"m 53 0 m 1439 1053 l 1124 -12 l 1015 -12 l 746 886 l 476 -12 l 368 -12 l 53 1053 l 163 1053 l 422 147 l 686 1053 l 804 1053 l 1069 146 l 1328 1053 l 1439 1053 m 544 1374 l 668 1374 l 817 1161 l 713 1161 l 544 1374 z "},"X":{"ha":1006,"x_min":64,"x_max":946,"o":"m 819 0 l 506 467 l 190 0 l 64 0 l 438 542 l 89 1053 l 214 1053 l 506 619 l 797 1053 l 922 1053 l 574 542 l 946 0 l 819 0 z "},"Y":{"ha":983,"x_min":46,"x_max":939,"o":"m 544 407 l 544 0 l 439 0 l 439 407 l 46 1053 l 157 1053 l 492 497 l 828 1053 l 939 1053 l 544 407 z "},"Ý":{"ha":983,"x_min":46,"x_max":939,"o":"m 46 0 m 544 407 l 544 0 l 439 0 l 439 407 l 46 1053 l 157 1053 l 492 497 l 828 1053 l 939 1053 l 544 407 m 582 1374 l 707 1374 l 539 1161 l 435 1161 l 582 1374 z "},"Ŷ":{"ha":983,"x_min":46,"x_max":939,"o":"m 46 0 m 544 407 l 544 0 l 439 0 l 439 407 l 46 1053 l 157 1053 l 492 497 l 828 1053 l 939 1053 l 544 407 m 593 1161 l 492 1315 l 389 1161 l 271 1161 l 432 1374 l 550 1374 l 711 1161 l 593 1161 z "},"Ÿ":{"ha":983,"x_min":46,"x_max":939,"o":"m 46 0 m 544 407 l 544 0 l 439 0 l 439 407 l 46 1053 l 157 1053 l 492 497 l 828 1053 l 939 1053 l 544 407 m 581 1349 l 679 1349 l 679 1186 l 581 1186 l 581 1349 m 304 1349 l 401 1349 l 401 1186 l 304 1186 l 304 1349 z "},"Ỳ":{"ha":983,"x_min":46,"x_max":939,"o":"m 46 0 m 544 407 l 544 0 l 439 0 l 439 407 l 46 1053 l 157 1053 l 492 497 l 828 1053 l 939 1053 l 544 407 m 290 1374 l 414 1374 l 563 1161 l 458 1161 l 290 1374 z "},"Z":{"ha":990,"x_min":111,"x_max":883,"o":"m 883 99 l 883 0 l 111 0 l 111 96 l 710 954 l 129 954 l 129 1053 l 838 1053 l 838 957 l 240 99 l 883 99 z "},"Ź":{"ha":990,"x_min":111,"x_max":883,"o":"m 111 0 m 883 99 l 883 0 l 111 0 l 111 96 l 710 954 l 129 954 l 129 1053 l 838 1053 l 838 957 l 240 99 l 883 99 m 579 1374 l 704 1374 l 536 1161 l 432 1161 l 579 1374 z "},"Ž":{"ha":990,"x_min":111,"x_max":883,"o":"m 111 0 m 883 99 l 883 0 l 111 0 l 111 96 l 710 954 l 129 954 l 129 1053 l 838 1053 l 838 957 l 240 99 l 883 99 m 708 1374 l 547 1161 l 429 1161 l 268 1374 l 386 1374 l 489 1219 l 590 1374 l 708 1374 z "},"Ż":{"ha":990,"x_min":111,"x_max":883,"o":"m 111 0 m 883 99 l 883 0 l 111 0 l 111 96 l 710 954 l 129 954 l 129 1053 l 838 1053 l 838 957 l 240 99 l 883 99 m 438 1349 l 540 1349 l 540 1186 l 438 1186 l 438 1349 z "},"a":{"ha":714,"x_min":47,"x_max":624,"o":"m 351 763 q 524 722 465 763 q 603 612 583 681 q 624 439 624 543 l 624 0 l 521 0 l 521 79 q 412 5 465 28 q 297 -18 358 -18 q 172 13 229 -18 q 81 103 115 44 q 47 242 47 161 q 125 435 47 367 q 333 504 203 504 q 430 492 381 504 q 521 458 479 481 q 506 578 519 533 q 451 647 492 622 q 331 671 411 671 l 242 671 l 242 763 l 351 763 m 306 75 q 521 171 415 75 l 521 371 q 343 413 442 413 q 208 373 263 413 q 153 242 153 333 q 199 115 153 154 q 306 75 246 75 z "},"á":{"ha":714,"x_min":47,"x_max":624,"o":"m 47 0 m 351 763 q 524 722 465 763 q 603 612 583 681 q 624 439 624 543 l 624 0 l 521 0 l 521 79 q 412 5 465 28 q 297 -18 358 -18 q 172 13 229 -18 q 81 103 115 44 q 47 242 47 161 q 125 435 47 367 q 333 504 203 504 q 430 492 381 504 q 521 458 479 481 q 506 578 519 533 q 451 647 492 622 q 331 671 411 671 l 242 671 l 242 763 l 351 763 m 306 75 q 521 171 415 75 l 521 371 q 343 413 442 413 q 208 373 263 413 q 153 242 153 333 q 199 115 153 154 q 306 75 246 75 m 464 1124 l 589 1124 l 421 911 l 317 911 l 464 1124 z "},"ă":{"ha":714,"x_min":47,"x_max":624,"o":"m 47 0 m 351 763 q 524 722 465 763 q 603 612 583 681 q 624 439 624 543 l 624 0 l 521 0 l 521 79 q 412 5 465 28 q 297 -18 358 -18 q 172 13 229 -18 q 81 103 115 44 q 47 242 47 161 q 125 435 47 367 q 333 504 203 504 q 430 492 381 504 q 521 458 479 481 q 506 578 519 533 q 451 647 492 622 q 331 671 411 671 l 242 671 l 242 763 l 351 763 m 306 75 q 521 171 415 75 l 521 371 q 343 413 442 413 q 208 373 263 413 q 153 242 153 333 q 199 115 153 154 q 306 75 246 75 m 375 911 q 220 962 278 911 q 163 1108 163 1013 l 163 1121 l 250 1121 l 250 1110 q 280 1019 250 1049 q 375 990 310 990 q 470 1019 440 990 q 500 1110 500 1049 l 500 1121 l 588 1121 l 588 1108 q 533 962 592 1013 q 375 911 475 911 z "},"â":{"ha":714,"x_min":47,"x_max":624,"o":"m 47 0 m 351 763 q 524 722 465 763 q 603 612 583 681 q 624 439 624 543 l 624 0 l 521 0 l 521 79 q 412 5 465 28 q 297 -18 358 -18 q 172 13 229 -18 q 81 103 115 44 q 47 242 47 161 q 125 435 47 367 q 333 504 203 504 q 430 492 381 504 q 521 458 479 481 q 506 578 519 533 q 451 647 492 622 q 331 671 411 671 l 242 671 l 242 763 l 351 763 m 306 75 q 521 171 415 75 l 521 371 q 343 413 442 413 q 208 373 263 413 q 153 242 153 333 q 199 115 153 154 q 306 75 246 75 m 475 911 l 374 1065 l 271 911 l 153 911 l 314 1124 l 432 1124 l 593 911 l 475 911 z "},"ä":{"ha":714,"x_min":47,"x_max":624,"o":"m 47 0 m 351 763 q 524 722 465 763 q 603 612 583 681 q 624 439 624 543 l 624 0 l 521 0 l 521 79 q 412 5 465 28 q 297 -18 358 -18 q 172 13 229 -18 q 81 103 115 44 q 47 242 47 161 q 125 435 47 367 q 333 504 203 504 q 430 492 381 504 q 521 458 479 481 q 506 578 519 533 q 451 647 492 622 q 331 671 411 671 l 242 671 l 242 763 l 351 763 m 306 75 q 521 171 415 75 l 521 371 q 343 413 442 413 q 208 373 263 413 q 153 242 153 333 q 199 115 153 154 q 306 75 246 75 m 463 1099 l 561 1099 l 561 936 l 463 936 l 463 1099 m 186 1099 l 283 1099 l 283 936 l 186 936 l 186 1099 z "},"à":{"ha":714,"x_min":47,"x_max":624,"o":"m 47 0 m 351 763 q 524 722 465 763 q 603 612 583 681 q 624 439 624 543 l 624 0 l 521 0 l 521 79 q 412 5 465 28 q 297 -18 358 -18 q 172 13 229 -18 q 81 103 115 44 q 47 242 47 161 q 125 435 47 367 q 333 504 203 504 q 430 492 381 504 q 521 458 479 481 q 506 578 519 533 q 451 647 492 622 q 331 671 411 671 l 242 671 l 242 763 l 351 763 m 306 75 q 521 171 415 75 l 521 371 q 343 413 442 413 q 208 373 263 413 q 153 242 153 333 q 199 115 153 154 q 306 75 246 75 m 161 1124 l 286 1124 l 433 911 l 329 911 l 161 1124 z "},"ā":{"ha":714,"x_min":47,"x_max":624,"o":"m 47 0 m 351 763 q 524 722 465 763 q 603 612 583 681 q 624 439 624 543 l 624 0 l 521 0 l 521 79 q 412 5 465 28 q 297 -18 358 -18 q 172 13 229 -18 q 81 103 115 44 q 47 242 47 161 q 125 435 47 367 q 333 504 203 504 q 430 492 381 504 q 521 458 479 481 q 506 578 519 533 q 451 647 492 622 q 331 671 411 671 l 242 671 l 242 763 l 351 763 m 306 75 q 521 171 415 75 l 521 371 q 343 413 442 413 q 208 373 263 413 q 153 242 153 333 q 199 115 153 154 q 306 75 246 75 m 158 1058 l 588 1058 l 588 978 l 158 978 l 158 1058 z "},"ą":{"ha":714,"x_min":47,"x_max":624,"o":"m 351 763 q 524 722 465 763 q 603 612 583 681 q 624 439 624 543 l 624 0 q 520 -97 556 -54 q 485 -186 485 -140 q 501 -226 485 -211 q 551 -242 518 -242 q 624 -225 592 -242 l 624 -303 q 544 -319 582 -319 q 433 -287 471 -319 q 396 -199 396 -254 q 429 -99 396 -146 q 529 0 463 -51 l 521 0 l 521 79 q 412 5 465 28 q 297 -18 358 -18 q 172 13 229 -18 q 81 103 115 44 q 47 242 47 161 q 125 435 47 367 q 333 504 203 504 q 430 492 381 504 q 521 458 479 481 q 506 578 519 533 q 451 647 492 622 q 331 671 411 671 l 242 671 l 242 763 l 351 763 m 306 75 q 521 171 415 75 l 521 371 q 343 413 442 413 q 208 373 263 413 q 153 242 153 333 q 199 115 153 154 q 306 75 246 75 z "},"å":{"ha":714,"x_min":47,"x_max":624,"o":"m 47 0 m 351 763 q 524 722 465 763 q 603 612 583 681 q 624 439 624 543 l 624 0 l 521 0 l 521 79 q 412 5 465 28 q 297 -18 358 -18 q 172 13 229 -18 q 81 103 115 44 q 47 242 47 161 q 125 435 47 367 q 333 504 203 504 q 430 492 381 504 q 521 458 479 481 q 506 578 519 533 q 451 647 492 622 q 331 671 411 671 l 242 671 l 242 763 l 351 763 m 306 75 q 521 171 415 75 l 521 371 q 343 413 442 413 q 208 373 263 413 q 153 242 153 333 q 199 115 153 154 q 306 75 246 75 m 374 889 q 276 926 314 889 q 238 1017 238 963 q 275 1108 238 1072 q 374 1143 313 1143 q 471 1107 433 1143 q 508 1017 508 1071 q 471 925 508 961 q 374 889 433 889 m 374 949 q 422 967 403 949 q 440 1017 440 986 q 422 1066 440 1047 q 374 1085 404 1085 q 325 1066 344 1085 q 306 1017 306 1047 q 325 967 306 986 q 374 949 344 949 z "},"ã":{"ha":714,"x_min":47,"x_max":624,"o":"m 47 0 m 351 763 q 524 722 465 763 q 603 612 583 681 q 624 439 624 543 l 624 0 l 521 0 l 521 79 q 412 5 465 28 q 297 -18 358 -18 q 172 13 229 -18 q 81 103 115 44 q 47 242 47 161 q 125 435 47 367 q 333 504 203 504 q 430 492 381 504 q 521 458 479 481 q 506 578 519 533 q 451 647 492 622 q 331 671 411 671 l 242 671 l 242 763 l 351 763 m 306 75 q 521 171 415 75 l 521 371 q 343 413 442 413 q 208 373 263 413 q 153 242 153 333 q 199 115 153 154 q 306 75 246 75 m 167 942 q 199 1051 168 1018 q 275 1085 229 1085 q 357 1064 315 1085 l 408 1038 q 453 1024 436 1024 q 494 1085 494 1024 l 579 1085 q 547 975 578 1008 q 471 942 517 942 q 390 963 432 942 l 339 989 q 293 1003 308 1003 q 251 942 251 1003 l 167 942 z "},"æ":{"ha":1238,"x_min":47,"x_max":1174,"o":"m 628 385 q 692 160 628 246 q 896 72 756 74 q 1121 129 997 72 l 1154 40 q 890 -24 1032 -24 q 715 13 790 -24 q 592 118 639 50 q 448 15 519 49 q 297 -18 376 -18 q 172 13 229 -18 q 81 103 115 44 q 47 242 47 161 q 125 435 47 367 q 333 504 203 504 q 430 492 381 504 q 521 458 479 481 q 506 578 519 533 q 451 647 492 622 q 331 671 411 671 l 242 671 l 242 763 l 351 763 q 508 729 451 763 q 589 632 564 696 q 705 746 633 707 q 864 785 776 785 q 1090 692 1007 785 q 1174 428 1172 600 l 1174 388 l 628 388 l 628 385 m 860 689 q 710 637 769 689 q 635 481 651 585 l 1065 481 q 1007 638 1057 588 q 860 689 957 689 m 306 75 q 427 106 364 75 q 550 200 490 138 q 521 371 521 281 q 343 413 442 413 q 208 373 263 413 q 153 242 153 333 q 199 115 153 154 q 306 75 246 75 z "},"b":{"ha":881,"x_min":132,"x_max":796,"o":"m 460 785 q 704 682 613 785 q 796 381 796 579 q 704 80 796 183 q 460 -24 613 -24 q 235 75 347 -24 l 235 0 l 132 0 l 132 1175 l 235 1175 l 235 688 q 460 785 346 785 m 451 75 q 629 153 569 75 q 689 381 689 231 q 628 609 689 531 q 451 688 568 688 q 235 593 343 688 l 235 168 q 451 75 342 75 z "},"c":{"ha":758,"x_min":86,"x_max":710,"o":"m 451 -24 q 181 88 275 -22 q 86 383 86 197 q 181 676 86 568 q 451 785 275 785 q 556 776 511 785 q 650 747 600 768 l 650 644 q 553 678 599 668 q 456 688 508 688 q 256 604 318 686 q 193 385 193 522 q 255 160 193 244 q 454 75 317 76 q 675 132 557 75 l 710 42 q 451 -24 586 -24 z "},"ć":{"ha":758,"x_min":86,"x_max":710,"o":"m 86 0 m 451 -24 q 181 88 275 -22 q 86 383 86 197 q 181 676 86 568 q 451 785 275 785 q 556 776 511 785 q 650 747 600 768 l 650 644 q 553 678 599 668 q 456 688 508 688 q 256 604 318 686 q 193 385 193 522 q 255 160 193 244 q 454 75 317 76 q 675 132 557 75 l 710 42 q 451 -24 586 -24 m 515 1124 l 640 1124 l 472 911 l 368 911 l 515 1124 z "},"č":{"ha":758,"x_min":86,"x_max":710,"o":"m 86 0 m 451 -24 q 181 88 275 -22 q 86 383 86 197 q 181 676 86 568 q 451 785 275 785 q 556 776 511 785 q 650 747 600 768 l 650 644 q 553 678 599 668 q 456 688 508 688 q 256 604 318 686 q 193 385 193 522 q 255 160 193 244 q 454 75 317 76 q 675 132 557 75 l 710 42 q 451 -24 586 -24 m 644 1124 l 483 911 l 365 911 l 204 1124 l 322 1124 l 425 969 l 526 1124 l 644 1124 z "},"ç":{"ha":758,"x_min":86,"x_max":710,"o":"m 460 -93 q 572 -129 532 -93 q 611 -225 611 -165 q 566 -327 611 -289 q 436 -365 521 -365 q 304 -337 364 -365 l 304 -260 q 432 -289 368 -289 q 501 -271 479 -289 q 524 -226 524 -253 q 446 -168 524 -168 q 331 -190 394 -168 l 382 -18 q 163 110 239 3 q 86 383 86 217 q 181 676 86 568 q 451 785 275 785 q 556 776 511 785 q 650 747 600 768 l 650 644 q 553 678 599 668 q 456 688 508 688 q 256 604 318 686 q 193 385 193 522 q 255 160 193 244 q 454 75 317 76 q 675 132 557 75 l 710 42 q 464 -24 596 -19 l 443 -94 q 460 -93 449 -93 z "},"ċ":{"ha":758,"x_min":86,"x_max":710,"o":"m 86 0 m 451 -24 q 181 88 275 -22 q 86 383 86 197 q 181 676 86 568 q 451 785 275 785 q 556 776 511 785 q 650 747 600 768 l 650 644 q 553 678 599 668 q 456 688 508 688 q 256 604 318 686 q 193 385 193 522 q 255 160 193 244 q 454 75 317 76 q 675 132 557 75 l 710 42 q 451 -24 586 -24 m 375 1099 l 478 1099 l 478 936 l 375 936 l 375 1099 z "},"d":{"ha":881,"x_min":86,"x_max":749,"o":"m 749 1175 l 749 0 l 646 0 l 646 75 q 421 -24 533 -24 q 177 80 268 -24 q 86 382 86 183 q 177 682 86 579 q 421 785 268 785 q 646 688 535 785 l 646 1175 l 749 1175 m 431 75 q 646 168 539 75 l 646 593 q 431 688 538 688 q 253 610 314 688 q 193 382 193 532 q 253 153 193 231 q 431 75 313 75 z "},"ð":{"ha":869,"x_min":86,"x_max":785,"o":"m 532 1076 q 718 787 651 956 q 785 438 785 618 q 694 102 785 228 q 436 -24 604 -24 q 180 79 274 -24 q 86 379 86 182 q 181 685 86 588 q 424 783 275 783 q 533 758 478 783 q 640 690 589 733 q 456 1010 583 878 l 336 903 l 281 953 l 400 1060 q 306 1125 363 1092 l 374 1197 q 475 1128 422 1169 l 572 1214 l 629 1163 l 532 1076 m 679 435 q 668 572 679 499 q 435 685 550 685 q 260 617 329 685 q 192 379 192 550 q 436 75 192 75 q 614 167 550 75 q 679 435 678 260 z "},"ď":{"ha":881,"x_min":86,"x_max":1000,"o":"m 86 0 m 749 1175 l 749 0 l 646 0 l 646 75 q 421 -24 533 -24 q 177 80 268 -24 q 86 382 86 183 q 177 682 86 579 q 421 785 268 785 q 646 688 535 785 l 646 1175 l 749 1175 m 431 75 q 646 168 539 75 l 646 593 q 431 688 538 688 q 253 610 314 688 q 193 382 193 532 q 253 153 193 231 q 431 75 313 75 m 897 1042 l 1000 1042 l 918 761 l 828 761 l 897 1042 z "},"đ":{"ha":881,"x_min":86,"x_max":839,"o":"m 839 915 l 749 915 l 749 0 l 646 0 l 646 75 q 421 -24 533 -24 q 177 80 268 -24 q 86 382 86 183 q 177 682 86 579 q 421 785 268 785 q 646 688 535 785 l 646 915 l 397 915 l 397 1001 l 646 1001 l 646 1175 l 749 1175 l 749 1001 l 839 1001 l 839 915 m 431 75 q 646 168 539 75 l 646 593 q 431 688 538 688 q 253 610 314 688 q 193 382 193 532 q 253 153 193 231 q 431 75 313 75 z "},"e":{"ha":803,"x_min":86,"x_max":739,"o":"m 193 385 q 257 158 193 244 q 461 72 321 72 q 686 129 563 72 l 719 40 q 456 -24 597 -24 q 183 88 279 -24 q 86 383 86 199 q 131 601 86 511 q 252 738 175 692 q 425 785 329 785 q 654 693 571 785 q 739 428 738 601 l 739 388 l 193 388 l 193 385 m 425 689 q 276 637 335 689 q 200 481 217 585 l 631 481 q 572 638 622 588 q 425 689 522 689 z "},"é":{"ha":803,"x_min":86,"x_max":739,"o":"m 86 0 m 193 385 q 257 158 193 244 q 461 72 321 72 q 686 129 563 72 l 719 40 q 456 -24 597 -24 q 183 88 279 -24 q 86 383 86 199 q 131 601 86 511 q 252 738 175 692 q 425 785 329 785 q 654 693 571 785 q 739 428 738 601 l 739 388 l 193 388 l 193 385 m 425 689 q 276 637 335 689 q 200 481 217 585 l 631 481 q 572 638 622 588 q 425 689 522 689 m 515 1124 l 640 1124 l 472 911 l 368 911 l 515 1124 z "},"ě":{"ha":803,"x_min":86,"x_max":739,"o":"m 86 0 m 193 385 q 257 158 193 244 q 461 72 321 72 q 686 129 563 72 l 719 40 q 456 -24 597 -24 q 183 88 279 -24 q 86 383 86 199 q 131 601 86 511 q 252 738 175 692 q 425 785 329 785 q 654 693 571 785 q 739 428 738 601 l 739 388 l 193 388 l 193 385 m 425 689 q 276 637 335 689 q 200 481 217 585 l 631 481 q 572 638 622 588 q 425 689 522 689 m 644 1124 l 483 911 l 365 911 l 204 1124 l 322 1124 l 425 969 l 526 1124 l 644 1124 z "},"ê":{"ha":803,"x_min":86,"x_max":739,"o":"m 86 0 m 193 385 q 257 158 193 244 q 461 72 321 72 q 686 129 563 72 l 719 40 q 456 -24 597 -24 q 183 88 279 -24 q 86 383 86 199 q 131 601 86 511 q 252 738 175 692 q 425 785 329 785 q 654 693 571 785 q 739 428 738 601 l 739 388 l 193 388 l 193 385 m 425 689 q 276 637 335 689 q 200 481 217 585 l 631 481 q 572 638 622 588 q 425 689 522 689 m 526 911 l 425 1065 l 322 911 l 204 911 l 365 1124 l 483 1124 l 644 911 l 526 911 z "},"ë":{"ha":803,"x_min":86,"x_max":739,"o":"m 86 0 m 193 385 q 257 158 193 244 q 461 72 321 72 q 686 129 563 72 l 719 40 q 456 -24 597 -24 q 183 88 279 -24 q 86 383 86 199 q 131 601 86 511 q 252 738 175 692 q 425 785 329 785 q 654 693 571 785 q 739 428 738 601 l 739 388 l 193 388 l 193 385 m 425 689 q 276 637 335 689 q 200 481 217 585 l 631 481 q 572 638 622 588 q 425 689 522 689 m 514 1099 l 613 1099 l 613 936 l 514 936 l 514 1099 m 238 1099 l 335 1099 l 335 936 l 238 936 l 238 1099 z "},"ė":{"ha":803,"x_min":86,"x_max":739,"o":"m 86 0 m 193 385 q 257 158 193 244 q 461 72 321 72 q 686 129 563 72 l 719 40 q 456 -24 597 -24 q 183 88 279 -24 q 86 383 86 199 q 131 601 86 511 q 252 738 175 692 q 425 785 329 785 q 654 693 571 785 q 739 428 738 601 l 739 388 l 193 388 l 193 385 m 425 689 q 276 637 335 689 q 200 481 217 585 l 631 481 q 572 638 622 588 q 425 689 522 689 m 375 1099 l 478 1099 l 478 936 l 375 936 l 375 1099 z "},"è":{"ha":803,"x_min":86,"x_max":739,"o":"m 86 0 m 193 385 q 257 158 193 244 q 461 72 321 72 q 686 129 563 72 l 719 40 q 456 -24 597 -24 q 183 88 279 -24 q 86 383 86 199 q 131 601 86 511 q 252 738 175 692 q 425 785 329 785 q 654 693 571 785 q 739 428 738 601 l 739 388 l 193 388 l 193 385 m 425 689 q 276 637 335 689 q 200 481 217 585 l 631 481 q 572 638 622 588 q 425 689 522 689 m 211 1124 l 336 1124 l 483 911 l 379 911 l 211 1124 z "},"ē":{"ha":803,"x_min":86,"x_max":739,"o":"m 86 0 m 193 385 q 257 158 193 244 q 461 72 321 72 q 686 129 563 72 l 719 40 q 456 -24 597 -24 q 183 88 279 -24 q 86 383 86 199 q 131 601 86 511 q 252 738 175 692 q 425 785 329 785 q 654 693 571 785 q 739 428 738 601 l 739 388 l 193 388 l 193 385 m 425 689 q 276 637 335 689 q 200 481 217 585 l 631 481 q 572 638 622 588 q 425 689 522 689 m 210 1058 l 639 1058 l 639 978 l 210 978 l 210 1058 z "},"ę":{"ha":803,"x_min":86,"x_max":739,"o":"m 193 385 q 257 158 193 244 q 461 72 321 72 q 686 129 563 72 l 719 40 l 694 28 q 565 -83 610 -33 q 521 -186 521 -133 q 538 -226 521 -211 q 589 -242 556 -242 q 661 -225 629 -242 l 661 -303 q 582 -319 619 -319 q 469 -287 507 -319 q 431 -199 431 -254 q 456 -106 431 -150 q 532 -19 481 -62 q 456 -24 494 -24 q 183 88 279 -24 q 86 383 86 199 q 131 601 86 511 q 252 738 175 692 q 425 785 329 785 q 654 693 571 785 q 739 428 738 601 l 739 388 l 193 388 l 193 385 m 425 689 q 276 637 335 689 q 200 481 217 585 l 631 481 q 572 638 622 588 q 425 689 522 689 z "},"f":{"ha":439,"x_min":54,"x_max":404,"o":"m 338 1094 q 269 1074 288 1094 q 251 997 251 1054 l 251 763 l 404 763 l 404 665 l 251 665 l 251 0 l 149 0 l 149 665 l 54 665 l 54 763 l 149 763 l 149 1018 q 191 1154 149 1115 q 332 1193 233 1193 q 404 1185 365 1193 l 404 1089 q 338 1094 376 1094 z "},"g":{"ha":853,"x_min":85,"x_max":749,"o":"m 749 763 l 749 -21 q 722 -194 749 -124 q 626 -307 696 -265 q 429 -349 556 -349 q 288 -337 347 -349 q 163 -299 229 -326 l 163 -192 q 283 -235 222 -219 q 399 -250 344 -250 q 560 -222 507 -250 q 630 -144 614 -194 q 646 -7 646 -93 l 646 103 q 421 4 531 4 q 245 49 321 4 q 127 183 169 94 q 85 396 85 271 q 176 685 85 586 q 421 785 268 785 q 646 688 532 785 l 646 763 l 749 763 m 429 103 q 646 196 539 103 l 646 593 q 429 688 538 688 q 253 610 314 688 q 192 396 192 532 q 252 179 192 256 q 429 103 313 103 z "},"ğ":{"ha":853,"x_min":85,"x_max":749,"o":"m 85 0 m 749 763 l 749 -21 q 722 -194 749 -124 q 626 -307 696 -265 q 429 -349 556 -349 q 288 -337 347 -349 q 163 -299 229 -326 l 163 -192 q 283 -235 222 -219 q 399 -250 344 -250 q 560 -222 507 -250 q 630 -144 614 -194 q 646 -7 646 -93 l 646 103 q 421 4 531 4 q 245 49 321 4 q 127 183 169 94 q 85 396 85 271 q 176 685 85 586 q 421 785 268 785 q 646 688 532 785 l 646 763 l 749 763 m 429 103 q 646 196 539 103 l 646 593 q 429 688 538 688 q 253 610 314 688 q 192 396 192 532 q 252 179 192 256 q 429 103 313 103 m 433 911 q 278 962 336 911 q 221 1108 221 1013 l 221 1121 l 308 1121 l 308 1110 q 338 1019 308 1049 q 433 990 368 990 q 528 1019 499 990 q 558 1110 558 1049 l 558 1121 l 646 1121 l 646 1108 q 592 962 650 1013 q 433 911 533 911 z "},"ģ":{"ha":853,"x_min":85,"x_max":749,"o":"m 85 0 m 749 763 l 749 -21 q 722 -194 749 -124 q 626 -307 696 -265 q 429 -349 556 -349 q 288 -337 347 -349 q 163 -299 229 -326 l 163 -192 q 283 -235 222 -219 q 399 -250 344 -250 q 560 -222 507 -250 q 630 -144 614 -194 q 646 -7 646 -93 l 646 103 q 421 4 531 4 q 245 49 321 4 q 127 183 169 94 q 85 396 85 271 q 176 685 85 586 q 421 785 268 785 q 646 688 532 785 l 646 763 l 749 763 m 429 103 q 646 196 539 103 l 646 593 q 429 688 538 688 q 253 610 314 688 q 192 396 192 532 q 252 179 192 256 q 429 103 313 103 m 432 1171 l 532 1171 l 488 940 l 376 940 l 432 1171 z "},"ġ":{"ha":853,"x_min":85,"x_max":749,"o":"m 85 0 m 749 763 l 749 -21 q 722 -194 749 -124 q 626 -307 696 -265 q 429 -349 556 -349 q 288 -337 347 -349 q 163 -299 229 -326 l 163 -192 q 283 -235 222 -219 q 399 -250 344 -250 q 560 -222 507 -250 q 630 -144 614 -194 q 646 -7 646 -93 l 646 103 q 421 4 531 4 q 245 49 321 4 q 127 183 169 94 q 85 396 85 271 q 176 685 85 586 q 421 785 268 785 q 646 688 532 785 l 646 763 l 749 763 m 429 103 q 646 196 539 103 l 646 593 q 429 688 538 688 q 253 610 314 688 q 192 396 192 532 q 252 179 192 256 q 429 103 313 103 m 382 1099 l 485 1099 l 485 936 l 382 936 l 382 1099 z "},"h":{"ha":868,"x_min":132,"x_max":743,"o":"m 472 779 q 677 706 611 779 q 743 461 743 633 l 743 0 l 640 0 l 640 461 q 601 632 640 582 q 464 682 563 682 q 235 581 347 682 l 235 0 l 132 0 l 132 1175 l 235 1175 l 235 676 q 350 752 289 725 q 472 779 411 779 z "},"ħ":{"ha":868,"x_min":42,"x_max":743,"o":"m 472 779 q 677 706 611 779 q 743 461 743 633 l 743 0 l 640 0 l 640 461 q 601 632 640 582 q 464 682 563 682 q 235 581 347 682 l 235 0 l 132 0 l 132 915 l 42 915 l 42 1001 l 132 1001 l 132 1175 l 235 1175 l 235 1001 l 483 1001 l 483 915 l 235 915 l 235 676 q 350 752 289 725 q 472 779 411 779 z "},"i":{"ha":367,"x_min":132,"x_max":235,"o":"m 132 1122 l 235 1122 l 235 913 l 132 913 l 132 1122 m 132 763 l 235 763 l 235 0 l 132 0 l 132 763 z "},"ı":{"ha":367,"x_min":132,"x_max":235,"o":"m 132 763 l 235 763 l 235 0 l 132 0 l 132 763 z "},"í":{"ha":367,"x_min":125,"x_max":397,"o":"m 125 0 m 132 763 l 235 763 l 235 0 l 132 0 l 132 763 m 272 1124 l 397 1124 l 229 911 l 125 911 l 272 1124 z "},"î":{"ha":367,"x_min":-39,"x_max":401,"o":"m 0 0 m 132 763 l 235 763 l 235 0 l 132 0 l 132 763 m 283 911 l 182 1065 l 79 911 l -39 911 l 122 1124 l 240 1124 l 401 911 l 283 911 z "},"ï":{"ha":367,"x_min":-6,"x_max":369,"o":"m 0 0 m 132 763 l 235 763 l 235 0 l 132 0 l 132 763 m 271 1099 l 369 1099 l 369 936 l 271 936 l 271 1099 m -6 1099 l 92 1099 l 92 936 l -6 936 l -6 1099 z "},"ì":{"ha":367,"x_min":-31,"x_max":242,"o":"m 0 0 m 132 763 l 235 763 l 235 0 l 132 0 l 132 763 m -31 1124 l 94 1124 l 242 911 l 138 911 l -31 1124 z "},"ĳ":{"ha":733,"x_min":132,"x_max":601,"o":"m 132 0 m 132 1122 l 235 1122 l 235 913 l 132 913 l 132 1122 m 132 763 l 235 763 l 235 0 l 132 0 l 132 763 m 499 1122 l 601 1122 l 601 913 l 499 913 l 499 1122 m 418 -349 q 346 -340 385 -349 l 346 -244 q 413 -250 374 -250 q 465 -238 447 -250 q 491 -197 483 -226 q 499 -106 499 -167 l 499 764 l 601 764 l 601 -128 q 585 -261 601 -214 q 528 -328 568 -308 q 418 -349 489 -349 z "},"ī":{"ha":367,"x_min":-33,"x_max":396,"o":"m 0 0 m 132 763 l 235 763 l 235 0 l 132 0 l 132 763 m -33 1058 l 396 1058 l 396 978 l -33 978 l -33 1058 z "},"į":{"ha":367,"x_min":3,"x_max":235,"o":"m 235 1122 l 235 913 l 132 913 l 132 1122 l 235 1122 m 132 763 l 235 763 l 235 0 l 231 0 q 127 -97 163 -54 q 92 -186 92 -140 q 108 -226 92 -211 q 158 -242 125 -242 q 231 -225 199 -242 l 231 -303 q 151 -319 189 -319 q 40 -287 78 -319 q 3 -199 3 -254 q 36 -99 3 -146 q 136 0 69 -51 l 132 0 l 132 763 z "},"j":{"ha":367,"x_min":-21,"x_max":235,"o":"m 132 1122 l 235 1122 l 235 913 l 132 913 l 132 1122 m 51 -349 q -21 -340 18 -349 l -21 -244 q 46 -250 7 -250 q 99 -238 81 -250 q 124 -197 117 -226 q 132 -106 132 -167 l 132 764 l 235 764 l 235 -128 q 218 -261 235 -214 q 162 -328 201 -308 q 51 -349 122 -349 z "},"ȷ":{"ha":367,"x_min":-21,"x_max":235,"o":"m 51 -349 q -21 -340 18 -349 l -21 -244 q 46 -250 7 -250 q 99 -238 81 -250 q 124 -197 117 -226 q 132 -106 132 -167 l 132 764 l 235 764 l 235 -128 q 218 -261 235 -214 q 162 -328 201 -308 q 51 -349 122 -349 z "},"k":{"ha":785,"x_min":132,"x_max":749,"o":"m 324 378 l 235 288 l 235 0 l 132 0 l 132 1175 l 235 1175 l 235 421 l 567 758 l 697 758 l 394 450 l 749 0 l 621 0 l 324 378 z "},"ķ":{"ha":785,"x_min":132,"x_max":749,"o":"m 132 0 m 324 378 l 235 288 l 235 0 l 132 0 l 132 1175 l 235 1175 l 235 421 l 567 758 l 697 758 l 394 450 l 749 0 l 621 0 l 324 378 m 343 -111 l 454 -111 l 399 -342 l 299 -342 l 343 -111 z "},"l":{"ha":422,"x_min":132,"x_max":388,"o":"m 315 -18 q 174 21 215 -18 q 132 157 132 60 l 132 1175 l 235 1175 l 235 179 q 253 101 235 122 q 321 81 271 81 q 388 86 360 81 l 388 -10 q 315 -18 347 -18 z "},"ĺ":{"ha":422,"x_min":125,"x_max":397,"o":"m 125 0 m 315 -18 q 174 21 215 -18 q 132 157 132 60 l 132 1175 l 235 1175 l 235 179 q 253 101 235 122 q 321 81 271 81 q 388 86 360 81 l 388 -10 q 315 -18 347 -18 m 272 1540 l 397 1540 l 229 1328 l 125 1328 l 272 1540 z "},"ľ":{"ha":422,"x_min":132,"x_max":513,"o":"m 132 0 m 315 -18 q 174 21 215 -18 q 132 157 132 60 l 132 1175 l 235 1175 l 235 179 q 253 101 235 122 q 321 81 271 81 q 388 86 360 81 l 388 -10 q 315 -18 347 -18 m 410 1053 l 513 1053 l 431 772 l 340 772 l 410 1053 z "},"ļ":{"ha":422,"x_min":132,"x_max":388,"o":"m 132 0 m 315 -18 q 174 21 215 -18 q 132 157 132 60 l 132 1175 l 235 1175 l 235 179 q 253 101 235 122 q 321 81 271 81 q 388 86 360 81 l 388 -10 q 315 -18 347 -18 m 221 -111 l 332 -111 l 276 -342 l 176 -342 l 221 -111 z "},"ŀ":{"ha":422,"x_min":132,"x_max":436,"o":"m 132 0 m 315 -18 q 174 21 215 -18 q 132 157 132 60 l 132 1175 l 235 1175 l 235 179 q 253 101 235 122 q 321 81 271 81 q 388 86 360 81 l 388 -10 q 315 -18 347 -18 m 319 581 l 436 581 l 436 364 l 319 364 l 319 581 z "},"ł":{"ha":422,"x_min":13,"x_max":388,"o":"m 321 81 q 388 86 360 81 l 388 -10 q 315 -18 347 -18 q 174 21 215 -18 q 132 157 132 60 l 132 529 l 13 485 l 13 576 l 132 621 l 132 1175 l 235 1175 l 235 660 l 383 715 l 383 622 l 235 567 l 235 179 q 253 101 235 122 q 321 81 271 81 z "},"m":{"ha":1339,"x_min":132,"x_max":1243,"o":"m 975 779 q 1178 706 1113 779 q 1243 461 1243 633 l 1243 0 l 1140 0 l 1140 461 q 1101 632 1140 582 q 965 682 1063 682 q 732 565 846 682 q 739 461 739 514 l 739 0 l 636 0 l 636 461 q 597 632 636 582 q 461 682 558 682 q 235 581 346 682 l 235 0 l 132 0 l 132 763 l 235 763 l 235 676 q 349 751 288 724 q 471 779 410 779 q 622 748 563 779 q 710 647 681 717 q 836 744 768 708 q 975 779 904 779 z "},"n":{"ha":868,"x_min":132,"x_max":743,"o":"m 472 779 q 677 706 611 779 q 743 461 743 633 l 743 0 l 640 0 l 640 461 q 601 632 640 582 q 464 682 563 682 q 235 581 347 682 l 235 0 l 132 0 l 132 763 l 235 763 l 235 676 q 350 752 289 725 q 472 779 411 779 z "},"ń":{"ha":868,"x_min":132,"x_max":743,"o":"m 132 0 m 472 779 q 677 706 611 779 q 743 461 743 633 l 743 0 l 640 0 l 640 461 q 601 632 640 582 q 464 682 563 682 q 235 581 347 682 l 235 0 l 132 0 l 132 763 l 235 763 l 235 676 q 350 752 289 725 q 472 779 411 779 m 528 1124 l 653 1124 l 485 911 l 381 911 l 528 1124 z "},"ň":{"ha":868,"x_min":-69,"x_max":743,"o":"m 0 0 m 472 779 q 677 706 611 779 q 743 461 743 633 l 743 0 l 640 0 l 640 461 q 601 632 640 582 q 464 682 563 682 q 235 581 347 682 l 235 0 l 132 0 l 132 763 l 235 763 l 235 676 q 350 752 289 725 q 472 779 411 779 m 0 1053 l 103 1053 l 21 772 l -69 772 l 0 1053 z "},"ņ":{"ha":868,"x_min":132,"x_max":743,"o":"m 132 0 m 472 779 q 677 706 611 779 q 743 461 743 633 l 743 0 l 640 0 l 640 461 q 601 632 640 582 q 464 682 563 682 q 235 581 347 682 l 235 0 l 132 0 l 132 763 l 235 763 l 235 676 q 350 752 289 725 q 472 779 411 779 m 385 -111 l 496 -111 l 440 -342 l 340 -342 l 385 -111 z "},"ŋ":{"ha":854,"x_min":132,"x_max":743,"o":"m 472 779 q 677 706 611 779 q 743 461 743 633 l 743 -128 q 726 -261 743 -214 q 671 -328 710 -308 q 561 -349 632 -349 q 488 -340 528 -349 l 488 -244 q 556 -250 517 -250 q 608 -239 590 -250 q 633 -197 625 -228 q 640 -106 640 -167 l 640 461 q 601 632 640 582 q 464 682 563 682 q 235 581 347 682 l 235 0 l 132 0 l 132 763 l 235 763 l 235 676 q 350 752 289 725 q 472 779 411 779 z "},"ñ":{"ha":868,"x_min":132,"x_max":743,"o":"m 132 0 m 472 779 q 677 706 611 779 q 743 461 743 633 l 743 0 l 640 0 l 640 461 q 601 632 640 582 q 464 682 563 682 q 235 581 347 682 l 235 0 l 132 0 l 132 763 l 235 763 l 235 676 q 350 752 289 725 q 472 779 411 779 m 231 942 q 263 1051 232 1018 q 339 1085 293 1085 q 421 1064 379 1085 l 472 1038 q 517 1024 500 1024 q 558 1085 558 1024 l 643 1085 q 611 975 642 1008 q 535 942 581 942 q 454 963 496 942 l 403 989 q 357 1003 372 1003 q 315 942 315 1003 l 231 942 z "},"o":{"ha":907,"x_min":86,"x_max":822,"o":"m 454 -24 q 252 30 335 -24 q 128 175 169 83 q 86 382 86 267 q 128 588 86 496 q 252 732 169 679 q 454 785 335 785 q 656 732 574 785 q 781 588 739 679 q 822 382 822 496 q 781 175 822 267 q 656 30 739 83 q 454 -24 574 -24 m 454 74 q 647 160 578 74 q 715 382 715 246 q 647 603 715 517 q 454 689 578 689 q 262 603 331 689 q 193 382 193 517 q 262 160 193 246 q 454 74 331 74 z "},"ó":{"ha":907,"x_min":86,"x_max":822,"o":"m 86 0 m 454 -24 q 252 30 335 -24 q 128 175 169 83 q 86 382 86 267 q 128 588 86 496 q 252 732 169 679 q 454 785 335 785 q 656 732 574 785 q 781 588 739 679 q 822 382 822 496 q 781 175 822 267 q 656 30 739 83 q 454 -24 574 -24 m 454 74 q 647 160 578 74 q 715 382 715 246 q 647 603 715 517 q 454 689 578 689 q 262 603 331 689 q 193 382 193 517 q 262 160 193 246 q 454 74 331 74 m 543 1124 l 668 1124 l 500 911 l 396 911 l 543 1124 z "},"ô":{"ha":907,"x_min":86,"x_max":822,"o":"m 86 0 m 454 -24 q 252 30 335 -24 q 128 175 169 83 q 86 382 86 267 q 128 588 86 496 q 252 732 169 679 q 454 785 335 785 q 656 732 574 785 q 781 588 739 679 q 822 382 822 496 q 781 175 822 267 q 656 30 739 83 q 454 -24 574 -24 m 454 74 q 647 160 578 74 q 715 382 715 246 q 647 603 715 517 q 454 689 578 689 q 262 603 331 689 q 193 382 193 517 q 262 160 193 246 q 454 74 331 74 m 554 911 l 453 1065 l 350 911 l 232 911 l 393 1124 l 511 1124 l 672 911 l 554 911 z "},"ö":{"ha":907,"x_min":86,"x_max":822,"o":"m 86 0 m 454 -24 q 252 30 335 -24 q 128 175 169 83 q 86 382 86 267 q 128 588 86 496 q 252 732 169 679 q 454 785 335 785 q 656 732 574 785 q 781 588 739 679 q 822 382 822 496 q 781 175 822 267 q 656 30 739 83 q 454 -24 574 -24 m 454 74 q 647 160 578 74 q 715 382 715 246 q 647 603 715 517 q 454 689 578 689 q 262 603 331 689 q 193 382 193 517 q 262 160 193 246 q 454 74 331 74 m 542 1099 l 640 1099 l 640 936 l 542 936 l 542 1099 m 265 1099 l 363 1099 l 363 936 l 265 936 l 265 1099 z "},"ò":{"ha":907,"x_min":86,"x_max":822,"o":"m 86 0 m 454 -24 q 252 30 335 -24 q 128 175 169 83 q 86 382 86 267 q 128 588 86 496 q 252 732 169 679 q 454 785 335 785 q 656 732 574 785 q 781 588 739 679 q 822 382 822 496 q 781 175 822 267 q 656 30 739 83 q 454 -24 574 -24 m 454 74 q 647 160 578 74 q 715 382 715 246 q 647 603 715 517 q 454 689 578 689 q 262 603 331 689 q 193 382 193 517 q 262 160 193 246 q 454 74 331 74 m 240 1124 l 365 1124 l 513 911 l 408 911 l 240 1124 z "},"ő":{"ha":907,"x_min":86,"x_max":822,"o":"m 86 0 m 454 -24 q 252 30 335 -24 q 128 175 169 83 q 86 382 86 267 q 128 588 86 496 q 252 732 169 679 q 454 785 335 785 q 656 732 574 785 q 781 588 739 679 q 822 382 822 496 q 781 175 822 267 q 656 30 739 83 q 454 -24 574 -24 m 454 74 q 647 160 578 74 q 715 382 715 246 q 647 603 715 517 q 454 689 578 689 q 262 603 331 689 q 193 382 193 517 q 262 160 193 246 q 454 74 331 74 m 669 1124 l 790 1124 l 622 911 l 522 911 l 669 1124 m 421 1124 l 540 1124 l 372 911 l 274 911 l 421 1124 z "},"ō":{"ha":907,"x_min":86,"x_max":822,"o":"m 86 0 m 454 -24 q 252 30 335 -24 q 128 175 169 83 q 86 382 86 267 q 128 588 86 496 q 252 732 169 679 q 454 785 335 785 q 656 732 574 785 q 781 588 739 679 q 822 382 822 496 q 781 175 822 267 q 656 30 739 83 q 454 -24 574 -24 m 454 74 q 647 160 578 74 q 715 382 715 246 q 647 603 715 517 q 454 689 578 689 q 262 603 331 689 q 193 382 193 517 q 262 160 193 246 q 454 74 331 74 m 238 1058 l 667 1058 l 667 978 l 238 978 l 238 1058 z "},"ø":{"ha":907,"x_min":40,"x_max":867,"o":"m 767 613 q 822 382 822 515 q 781 175 822 267 q 656 30 739 83 q 454 -24 574 -24 q 192 79 290 -24 l 103 -3 l 40 57 l 140 150 q 86 382 86 249 q 128 588 86 496 q 252 732 169 679 q 454 785 335 785 q 715 683 621 785 l 806 767 l 867 706 l 767 613 m 193 382 q 222 225 193 293 l 639 611 q 454 689 568 689 q 262 603 331 689 q 193 382 193 517 m 715 382 q 686 536 715 469 l 269 150 q 454 74 339 74 q 647 160 578 74 q 715 382 715 246 z "},"õ":{"ha":907,"x_min":86,"x_max":822,"o":"m 86 0 m 454 -24 q 252 30 335 -24 q 128 175 169 83 q 86 382 86 267 q 128 588 86 496 q 252 732 169 679 q 454 785 335 785 q 656 732 574 785 q 781 588 739 679 q 822 382 822 496 q 781 175 822 267 q 656 30 739 83 q 454 -24 574 -24 m 454 74 q 647 160 578 74 q 715 382 715 246 q 647 603 715 517 q 454 689 578 689 q 262 603 331 689 q 193 382 193 517 q 262 160 193 246 q 454 74 331 74 m 246 942 q 278 1051 247 1018 q 354 1085 308 1085 q 436 1064 394 1085 l 488 1038 q 532 1024 515 1024 q 574 1085 574 1024 l 658 1085 q 626 975 657 1008 q 550 942 596 942 q 469 963 511 942 l 418 989 q 372 1003 388 1003 q 331 942 331 1003 l 246 942 z "},"œ":{"ha":1432,"x_min":86,"x_max":1368,"o":"m 822 385 q 886 158 822 244 q 1090 72 950 72 q 1315 129 1192 72 l 1349 40 q 1085 -24 1226 -24 q 891 24 971 -24 q 768 161 811 72 q 645 26 725 75 q 453 -24 565 -24 q 252 30 335 -24 q 128 175 169 83 q 86 382 86 267 q 128 588 86 496 q 252 732 169 679 q 453 785 335 785 q 644 736 564 785 q 767 603 724 688 q 885 738 808 692 q 1057 785 961 785 q 1284 693 1201 785 q 1368 428 1367 601 l 1368 388 l 822 388 l 822 385 m 1054 689 q 905 637 964 689 q 829 481 846 585 l 1260 481 q 1201 638 1251 588 q 1054 689 1151 689 m 454 74 q 647 160 578 74 q 715 382 715 246 q 647 603 715 517 q 454 689 578 689 q 262 603 331 689 q 193 382 193 517 q 262 160 193 246 q 454 74 331 74 z "},"p":{"ha":881,"x_min":132,"x_max":796,"o":"m 460 785 q 704 682 613 785 q 796 381 796 579 q 704 80 796 183 q 460 -24 613 -24 q 235 75 347 -24 l 235 -325 l 132 -325 l 132 763 l 235 763 l 235 688 q 460 785 346 785 m 451 75 q 629 153 569 75 q 689 381 689 231 q 628 609 689 531 q 451 688 568 688 q 235 593 343 688 l 235 168 q 451 75 342 75 z "},"þ":{"ha":865,"x_min":132,"x_max":796,"o":"m 460 785 q 704 682 613 785 q 796 381 796 579 q 704 80 796 183 q 460 -24 613 -24 q 235 75 347 -24 l 235 -325 l 132 -325 l 132 1175 l 235 1175 l 235 688 q 460 785 346 785 m 451 75 q 629 153 569 75 q 689 381 689 231 q 628 609 689 531 q 451 688 568 688 q 235 593 343 688 l 235 168 q 451 75 342 75 z "},"q":{"ha":881,"x_min":86,"x_max":749,"o":"m 749 763 l 749 -325 l 646 -325 l 646 75 q 421 -24 533 -24 q 177 80 268 -24 q 86 382 86 183 q 177 682 86 579 q 421 785 268 785 q 646 688 535 785 l 646 763 l 749 763 m 431 75 q 646 168 539 75 l 646 593 q 431 688 538 688 q 253 610 314 688 q 193 382 193 532 q 253 153 193 231 q 431 75 313 75 z "},"r":{"ha":546,"x_min":132,"x_max":504,"o":"m 504 779 l 504 682 l 472 682 q 235 579 350 682 l 235 0 l 132 0 l 132 763 l 235 763 l 235 674 q 350 751 289 724 q 472 779 411 779 l 504 779 z "},"ŕ":{"ha":546,"x_min":132,"x_max":540,"o":"m 132 0 m 504 779 l 504 682 l 472 682 q 235 579 350 682 l 235 0 l 132 0 l 132 763 l 235 763 l 235 674 q 350 751 289 724 q 472 779 411 779 l 504 779 m 415 1124 l 540 1124 l 372 911 l 268 911 l 415 1124 z "},"ř":{"ha":546,"x_min":104,"x_max":544,"o":"m 104 0 m 504 779 l 504 682 l 472 682 q 235 579 350 682 l 235 0 l 132 0 l 132 763 l 235 763 l 235 674 q 350 751 289 724 q 472 779 411 779 l 504 779 m 544 1124 l 383 911 l 265 911 l 104 1124 l 222 1124 l 325 969 l 426 1124 l 544 1124 z "},"ŗ":{"ha":546,"x_min":79,"x_max":504,"o":"m 79 0 m 504 779 l 504 682 l 472 682 q 235 579 350 682 l 235 0 l 132 0 l 132 763 l 235 763 l 235 674 q 350 751 289 724 q 472 779 411 779 l 504 779 m 124 -111 l 235 -111 l 179 -342 l 79 -342 l 124 -111 z "},"s":{"ha":696,"x_min":75,"x_max":615,"o":"m 350 -24 q 206 -10 269 -24 q 75 36 143 4 l 75 144 q 350 72 201 72 q 472 108 433 72 q 510 201 510 144 q 478 285 510 258 q 379 331 447 311 l 299 351 q 151 424 206 375 q 96 575 96 474 q 160 728 96 672 q 347 785 224 785 q 469 772 415 785 q 579 735 524 760 l 579 633 q 472 674 524 660 q 350 689 421 689 q 236 656 271 689 q 201 576 201 624 q 233 494 201 521 q 328 450 265 467 l 408 429 q 519 388 475 411 q 589 321 563 365 q 615 203 615 276 q 543 35 615 94 q 350 -24 471 -24 z "},"ś":{"ha":696,"x_min":75,"x_max":615,"o":"m 75 0 m 350 -24 q 206 -10 269 -24 q 75 36 143 4 l 75 144 q 350 72 201 72 q 472 108 433 72 q 510 201 510 144 q 478 285 510 258 q 379 331 447 311 l 299 351 q 151 424 206 375 q 96 575 96 474 q 160 728 96 672 q 347 785 224 785 q 469 772 415 785 q 579 735 524 760 l 579 633 q 472 674 524 660 q 350 689 421 689 q 236 656 271 689 q 201 576 201 624 q 233 494 201 521 q 328 450 265 467 l 408 429 q 519 388 475 411 q 589 321 563 365 q 615 203 615 276 q 543 35 615 94 q 350 -24 471 -24 m 436 1124 l 561 1124 l 393 911 l 289 911 l 436 1124 z "},"š":{"ha":696,"x_min":75,"x_max":615,"o":"m 75 0 m 350 -24 q 206 -10 269 -24 q 75 36 143 4 l 75 144 q 350 72 201 72 q 472 108 433 72 q 510 201 510 144 q 478 285 510 258 q 379 331 447 311 l 299 351 q 151 424 206 375 q 96 575 96 474 q 160 728 96 672 q 347 785 224 785 q 469 772 415 785 q 579 735 524 760 l 579 633 q 472 674 524 660 q 350 689 421 689 q 236 656 271 689 q 201 576 201 624 q 233 494 201 521 q 328 450 265 467 l 408 429 q 519 388 475 411 q 589 321 563 365 q 615 203 615 276 q 543 35 615 94 q 350 -24 471 -24 m 567 1124 l 406 911 l 288 911 l 126 1124 l 244 1124 l 347 969 l 449 1124 l 567 1124 z "},"ş":{"ha":696,"x_min":75,"x_max":615,"o":"m 615 203 q 553 46 615 104 q 388 -22 492 -12 l 365 -94 q 382 -93 371 -93 q 494 -129 454 -93 q 533 -225 533 -165 q 488 -327 533 -289 q 358 -365 443 -365 q 226 -337 285 -365 l 226 -260 q 354 -289 290 -289 q 424 -271 401 -289 q 446 -226 446 -253 q 368 -168 446 -168 q 253 -190 317 -168 l 303 -22 q 187 -6 240 -19 q 75 36 133 8 l 75 144 q 350 72 201 72 q 472 108 433 72 q 510 201 510 144 q 478 285 510 258 q 379 331 447 311 l 299 351 q 151 424 206 375 q 96 575 96 474 q 160 728 96 672 q 347 785 224 785 q 469 772 415 785 q 579 735 524 760 l 579 633 q 472 674 524 660 q 350 689 421 689 q 236 656 271 689 q 201 576 201 624 q 233 494 201 521 q 328 450 265 467 l 408 429 q 519 388 475 411 q 589 321 563 365 q 615 203 615 276 z "},"ș":{"ha":696,"x_min":75,"x_max":615,"o":"m 75 0 m 350 -24 q 206 -10 269 -24 q 75 36 143 4 l 75 144 q 350 72 201 72 q 472 108 433 72 q 510 201 510 144 q 478 285 510 258 q 379 331 447 311 l 299 351 q 151 424 206 375 q 96 575 96 474 q 160 728 96 672 q 347 785 224 785 q 469 772 415 785 q 579 735 524 760 l 579 633 q 472 674 524 660 q 350 689 421 689 q 236 656 271 689 q 201 576 201 624 q 233 494 201 521 q 328 450 265 467 l 408 429 q 519 388 475 411 q 589 321 563 365 q 615 203 615 276 q 543 35 615 94 q 350 -24 471 -24 m 289 -111 l 400 -111 l 344 -342 l 244 -342 l 289 -111 z "},"ß":{"ha":846,"x_min":132,"x_max":786,"o":"m 526 -24 q 442 -16 482 -24 q 360 11 403 -8 l 360 111 q 447 81 411 89 q 519 72 482 72 q 681 204 679 72 q 645 290 681 260 q 539 351 610 319 q 445 402 481 379 q 385 466 410 425 q 360 569 360 507 q 378 665 360 625 q 433 756 397 706 q 491 853 472 811 q 510 956 510 894 q 476 1061 510 1028 q 375 1094 443 1094 q 267 1061 300 1094 q 235 946 235 1028 l 235 0 l 132 0 l 132 946 q 193 1136 132 1079 q 382 1193 254 1193 q 551 1133 490 1193 q 613 958 613 1072 q 589 819 613 874 q 522 700 565 765 q 478 629 492 657 q 465 569 465 601 q 497 498 465 525 q 596 438 528 471 q 694 381 657 407 q 759 312 732 356 q 786 204 786 268 q 713 33 782 90 q 526 -24 644 -24 z "},"t":{"ha":494,"x_min":54,"x_max":432,"o":"m 254 660 l 254 179 q 272 101 254 122 q 340 81 290 81 q 431 92 382 81 l 431 -6 q 329 -18 379 -18 q 222 0 260 -18 q 167 57 183 18 q 151 164 151 96 l 151 660 l 54 660 l 54 758 l 151 758 l 151 1022 l 254 1022 l 254 758 l 432 758 l 432 660 l 254 660 z "},"ŧ":{"ha":494,"x_min":54,"x_max":432,"o":"m 254 340 l 254 179 q 272 101 254 122 q 340 81 290 81 q 431 92 382 81 l 431 -6 q 329 -18 379 -18 q 222 0 260 -18 q 167 57 183 18 q 151 164 151 96 l 151 340 l 54 340 l 54 429 l 151 429 l 151 660 l 54 660 l 54 758 l 151 758 l 151 1022 l 254 1022 l 254 758 l 432 758 l 432 660 l 254 660 l 254 429 l 432 429 l 432 340 l 254 340 z "},"ť":{"ha":494,"x_min":54,"x_max":519,"o":"m 54 0 m 254 660 l 254 179 q 272 101 254 122 q 340 81 290 81 q 431 92 382 81 l 431 -6 q 329 -18 379 -18 q 222 0 260 -18 q 167 57 183 18 q 151 164 151 96 l 151 660 l 54 660 l 54 758 l 151 758 l 151 1022 l 254 1022 l 254 758 l 432 758 l 432 660 l 254 660 m 417 1122 l 519 1122 l 438 842 l 347 842 l 417 1122 z "},"ţ":{"ha":494,"x_min":54,"x_max":461,"o":"m 310 -93 q 422 -129 382 -93 q 461 -225 461 -165 q 416 -327 461 -289 q 288 -365 371 -365 q 154 -337 214 -365 l 154 -260 q 282 -289 218 -289 q 351 -271 329 -289 q 374 -226 374 -253 q 296 -168 374 -168 q 181 -190 247 -168 l 236 -6 q 170 50 189 10 q 151 164 151 90 l 151 660 l 54 660 l 54 758 l 151 758 l 151 1022 l 254 1022 l 254 758 l 432 758 l 432 660 l 254 660 l 254 179 q 272 101 254 122 q 340 81 290 81 q 431 92 382 81 l 431 -6 q 329 -18 379 -18 l 318 -18 l 294 -94 q 310 -93 299 -93 z "},"ț":{"ha":494,"x_min":54,"x_max":432,"o":"m 54 0 m 254 660 l 254 179 q 272 101 254 122 q 340 81 290 81 q 431 92 382 81 l 431 -6 q 329 -18 379 -18 q 222 0 260 -18 q 167 57 183 18 q 151 164 151 96 l 151 660 l 54 660 l 54 758 l 151 758 l 151 1022 l 254 1022 l 254 758 l 432 758 l 432 660 l 254 660 m 217 -111 l 328 -111 l 272 -342 l 172 -342 l 217 -111 z "},"u":{"ha":868,"x_min":125,"x_max":736,"o":"m 736 763 l 736 0 l 633 0 l 633 88 q 519 11 581 39 q 396 -17 458 -17 q 191 57 257 -17 q 125 303 125 131 l 125 763 l 228 763 l 228 303 q 267 132 228 182 q 406 82 306 82 q 633 183 522 82 l 633 763 l 736 763 z "},"ú":{"ha":868,"x_min":125,"x_max":736,"o":"m 125 0 m 736 763 l 736 0 l 633 0 l 633 88 q 519 11 581 39 q 396 -17 458 -17 q 191 57 257 -17 q 125 303 125 131 l 125 763 l 228 763 l 228 303 q 267 132 228 182 q 406 82 306 82 q 633 183 522 82 l 633 763 l 736 763 m 518 1124 l 643 1124 l 475 911 l 371 911 l 518 1124 z "},"û":{"ha":868,"x_min":125,"x_max":736,"o":"m 125 0 m 736 763 l 736 0 l 633 0 l 633 88 q 519 11 581 39 q 396 -17 458 -17 q 191 57 257 -17 q 125 303 125 131 l 125 763 l 228 763 l 228 303 q 267 132 228 182 q 406 82 306 82 q 633 183 522 82 l 633 763 l 736 763 m 529 911 l 428 1065 l 325 911 l 207 911 l 368 1124 l 486 1124 l 647 911 l 529 911 z "},"ü":{"ha":868,"x_min":125,"x_max":736,"o":"m 125 0 m 736 763 l 736 0 l 633 0 l 633 88 q 519 11 581 39 q 396 -17 458 -17 q 191 57 257 -17 q 125 303 125 131 l 125 763 l 228 763 l 228 303 q 267 132 228 182 q 406 82 306 82 q 633 183 522 82 l 633 763 l 736 763 m 518 1099 l 617 1099 l 617 936 l 518 936 l 518 1099 m 242 1099 l 339 1099 l 339 936 l 242 936 l 242 1099 z "},"ù":{"ha":868,"x_min":125,"x_max":736,"o":"m 125 0 m 736 763 l 736 0 l 633 0 l 633 88 q 519 11 581 39 q 396 -17 458 -17 q 191 57 257 -17 q 125 303 125 131 l 125 763 l 228 763 l 228 303 q 267 132 228 182 q 406 82 306 82 q 633 183 522 82 l 633 763 l 736 763 m 215 1124 l 340 1124 l 488 911 l 383 911 l 215 1124 z "},"ű":{"ha":868,"x_min":125,"x_max":765,"o":"m 125 0 m 736 763 l 736 0 l 633 0 l 633 88 q 519 11 581 39 q 396 -17 458 -17 q 191 57 257 -17 q 125 303 125 131 l 125 763 l 228 763 l 228 303 q 267 132 228 182 q 406 82 306 82 q 633 183 522 82 l 633 763 l 736 763 m 644 1124 l 765 1124 l 597 911 l 497 911 l 644 1124 m 396 1124 l 515 1124 l 347 911 l 249 911 l 396 1124 z "},"ū":{"ha":868,"x_min":125,"x_max":736,"o":"m 125 0 m 736 763 l 736 0 l 633 0 l 633 88 q 519 11 581 39 q 396 -17 458 -17 q 191 57 257 -17 q 125 303 125 131 l 125 763 l 228 763 l 228 303 q 267 132 228 182 q 406 82 306 82 q 633 183 522 82 l 633 763 l 736 763 m 213 1058 l 642 1058 l 642 978 l 213 978 l 213 1058 z "},"ų":{"ha":868,"x_min":125,"x_max":736,"o":"m 736 763 l 736 0 q 634 -98 669 -56 q 599 -186 599 -140 q 615 -226 599 -211 q 664 -242 631 -242 q 736 -225 706 -242 l 736 -303 q 657 -319 696 -319 q 547 -287 585 -319 q 508 -199 508 -254 q 542 -99 508 -146 q 643 0 575 -51 l 633 0 l 633 88 q 519 11 581 39 q 396 -17 458 -17 q 191 57 257 -17 q 125 303 125 131 l 125 763 l 228 763 l 228 303 q 267 132 228 182 q 406 82 306 82 q 633 183 522 82 l 633 763 l 736 763 z "},"ů":{"ha":868,"x_min":125,"x_max":736,"o":"m 125 0 m 736 763 l 736 0 l 633 0 l 633 88 q 519 11 581 39 q 396 -17 458 -17 q 191 57 257 -17 q 125 303 125 131 l 125 763 l 228 763 l 228 303 q 267 132 228 182 q 406 82 306 82 q 633 183 522 82 l 633 763 l 736 763 m 428 889 q 330 926 368 889 q 292 1017 292 963 q 329 1108 292 1072 q 428 1143 367 1143 q 525 1107 488 1143 q 563 1017 563 1071 q 525 925 563 961 q 428 889 488 889 m 428 949 q 476 967 457 949 q 494 1017 494 986 q 476 1066 494 1047 q 428 1085 458 1085 q 379 1066 399 1085 q 360 1017 360 1047 q 379 967 360 986 q 428 949 399 949 z "},"v":{"ha":767,"x_min":28,"x_max":739,"o":"m 739 763 l 438 -12 l 329 -12 l 28 763 l 136 763 l 383 118 l 631 763 l 739 763 z "},"w":{"ha":1163,"x_min":31,"x_max":1132,"o":"m 1132 763 l 888 -12 l 783 -12 l 582 607 l 381 -12 l 276 -12 l 31 763 l 139 763 l 328 133 l 524 763 l 639 763 l 835 133 l 1024 763 l 1132 763 z "},"ẃ":{"ha":1163,"x_min":31,"x_max":1132,"o":"m 31 0 m 1132 763 l 888 -12 l 783 -12 l 582 607 l 381 -12 l 276 -12 l 31 763 l 139 763 l 328 133 l 524 763 l 639 763 l 835 133 l 1024 763 l 1132 763 m 671 1124 l 796 1124 l 628 911 l 524 911 l 671 1124 z "},"ŵ":{"ha":1163,"x_min":31,"x_max":1132,"o":"m 31 0 m 1132 763 l 888 -12 l 783 -12 l 582 607 l 381 -12 l 276 -12 l 31 763 l 139 763 l 328 133 l 524 763 l 639 763 l 835 133 l 1024 763 l 1132 763 m 682 911 l 581 1065 l 478 911 l 360 911 l 521 1124 l 639 1124 l 800 911 l 682 911 z "},"ẅ":{"ha":1163,"x_min":31,"x_max":1132,"o":"m 31 0 m 1132 763 l 888 -12 l 783 -12 l 582 607 l 381 -12 l 276 -12 l 31 763 l 139 763 l 328 133 l 524 763 l 639 763 l 835 133 l 1024 763 l 1132 763 m 669 1099 l 768 1099 l 768 936 l 669 936 l 669 1099 m 393 1099 l 490 1099 l 490 936 l 393 936 l 393 1099 z "},"ẁ":{"ha":1163,"x_min":31,"x_max":1132,"o":"m 31 0 m 1132 763 l 888 -12 l 783 -12 l 582 607 l 381 -12 l 276 -12 l 31 763 l 139 763 l 328 133 l 524 763 l 639 763 l 835 133 l 1024 763 l 1132 763 m 367 1124 l 492 1124 l 639 911 l 535 911 l 367 1124 z "},"x":{"ha":793,"x_min":53,"x_max":740,"o":"m 614 0 l 392 317 l 179 0 l 53 0 l 328 399 l 67 763 l 193 763 l 397 471 l 604 763 l 728 763 l 460 389 l 740 0 l 614 0 z "},"y":{"ha":757,"x_min":28,"x_max":729,"o":"m 729 763 l 382 -124 q 318 -267 343 -222 q 257 -330 293 -311 q 154 -349 221 -349 q 85 -340 119 -349 l 85 -244 q 153 -250 114 -250 q 205 -237 185 -250 q 242 -195 225 -225 q 283 -103 258 -165 l 325 4 l 28 763 l 136 763 l 378 139 l 624 763 l 729 763 z "},"ý":{"ha":757,"x_min":28,"x_max":729,"o":"m 28 0 m 729 763 l 382 -124 q 318 -267 343 -222 q 257 -330 293 -311 q 154 -349 221 -349 q 85 -340 119 -349 l 85 -244 q 153 -250 114 -250 q 205 -237 185 -250 q 242 -195 225 -225 q 283 -103 258 -165 l 325 4 l 28 763 l 136 763 l 378 139 l 624 763 l 729 763 m 468 1124 l 593 1124 l 425 911 l 321 911 l 468 1124 z "},"ŷ":{"ha":757,"x_min":28,"x_max":729,"o":"m 28 0 m 729 763 l 382 -124 q 318 -267 343 -222 q 257 -330 293 -311 q 154 -349 221 -349 q 85 -340 119 -349 l 85 -244 q 153 -250 114 -250 q 205 -237 185 -250 q 242 -195 225 -225 q 283 -103 258 -165 l 325 4 l 28 763 l 136 763 l 378 139 l 624 763 l 729 763 m 479 911 l 378 1065 l 275 911 l 157 911 l 318 1124 l 436 1124 l 597 911 l 479 911 z "},"ÿ":{"ha":757,"x_min":28,"x_max":729,"o":"m 28 0 m 729 763 l 382 -124 q 318 -267 343 -222 q 257 -330 293 -311 q 154 -349 221 -349 q 85 -340 119 -349 l 85 -244 q 153 -250 114 -250 q 205 -237 185 -250 q 242 -195 225 -225 q 283 -103 258 -165 l 325 4 l 28 763 l 136 763 l 378 139 l 624 763 l 729 763 m 467 1099 l 565 1099 l 565 936 l 467 936 l 467 1099 m 190 1099 l 288 1099 l 288 936 l 190 936 l 190 1099 z "},"ỳ":{"ha":757,"x_min":28,"x_max":729,"o":"m 28 0 m 729 763 l 382 -124 q 318 -267 343 -222 q 257 -330 293 -311 q 154 -349 221 -349 q 85 -340 119 -349 l 85 -244 q 153 -250 114 -250 q 205 -237 185 -250 q 242 -195 225 -225 q 283 -103 258 -165 l 325 4 l 28 763 l 136 763 l 378 139 l 624 763 l 729 763 m 165 1124 l 290 1124 l 438 911 l 333 911 l 165 1124 z "},"z":{"ha":732,"x_min":93,"x_max":653,"o":"m 653 96 l 653 0 l 93 0 l 93 96 l 507 668 l 118 668 l 118 763 l 622 763 l 622 668 l 208 96 l 653 96 z "},"ź":{"ha":732,"x_min":93,"x_max":653,"o":"m 93 0 m 653 96 l 653 0 l 93 0 l 93 96 l 507 668 l 118 668 l 118 763 l 622 763 l 622 668 l 208 96 l 653 96 m 444 1124 l 569 1124 l 401 911 l 297 911 l 444 1124 z "},"ž":{"ha":732,"x_min":93,"x_max":653,"o":"m 93 0 m 653 96 l 653 0 l 93 0 l 93 96 l 507 668 l 118 668 l 118 763 l 622 763 l 622 668 l 208 96 l 653 96 m 574 1124 l 413 911 l 294 911 l 133 1124 l 251 1124 l 354 969 l 456 1124 l 574 1124 z "},"ż":{"ha":732,"x_min":93,"x_max":653,"o":"m 93 0 m 653 96 l 653 0 l 93 0 l 93 96 l 507 668 l 118 668 l 118 763 l 622 763 l 622 668 l 208 96 l 653 96 m 304 1099 l 407 1099 l 407 936 l 304 936 l 304 1099 z "},"ﬁ":{"ha":806,"x_min":54,"x_max":674,"o":"m 54 0 m 338 1094 q 269 1074 288 1094 q 251 997 251 1054 l 251 763 l 404 763 l 404 665 l 251 665 l 251 0 l 149 0 l 149 665 l 54 665 l 54 763 l 149 763 l 149 1018 q 191 1154 149 1115 q 332 1193 233 1193 q 404 1185 365 1193 l 404 1089 q 338 1094 376 1094 m 571 1122 l 674 1122 l 674 913 l 571 913 l 571 1122 m 571 763 l 674 763 l 674 0 l 571 0 l 571 763 z "},"ﬂ":{"ha":861,"x_min":54,"x_max":826,"o":"m 54 0 m 338 1094 q 269 1074 288 1094 q 251 997 251 1054 l 251 763 l 404 763 l 404 665 l 251 665 l 251 0 l 149 0 l 149 665 l 54 665 l 54 763 l 149 763 l 149 1018 q 191 1154 149 1115 q 332 1193 233 1193 q 404 1185 365 1193 l 404 1089 q 338 1094 376 1094 m 754 -18 q 613 21 654 -18 q 571 157 571 60 l 571 1175 l 674 1175 l 674 179 q 692 101 674 122 q 760 81 710 81 q 826 86 799 81 l 826 -10 q 754 -18 786 -18 z "},"ª":{"ha":551,"x_min":43,"x_max":471,"o":"m 268 943 q 396 913 351 943 q 456 833 440 883 q 471 706 471 782 l 471 394 l 382 394 l 382 444 q 229 382 314 382 q 98 432 153 382 q 43 567 43 482 q 101 706 43 656 q 254 756 160 756 q 382 726 317 756 q 354 828 379 796 q 253 860 329 860 l 179 860 l 179 943 l 268 943 m 238 465 q 382 525 310 465 l 382 647 q 263 671 329 671 q 173 647 210 671 q 136 568 136 624 q 168 491 136 517 q 238 465 200 465 z "},"º":{"ha":718,"x_min":86,"x_max":632,"o":"m 360 382 q 213 420 275 382 q 119 525 151 458 q 86 674 86 592 q 119 820 86 754 q 213 924 151 886 q 360 963 275 963 q 506 924 444 963 q 600 820 568 886 q 632 674 632 754 q 600 525 632 592 q 506 420 568 458 q 360 382 444 382 m 360 471 q 494 528 450 471 q 538 674 538 585 q 494 817 538 761 q 360 874 450 874 q 225 817 269 874 q 181 674 181 761 q 225 528 181 585 q 360 471 269 471 z "},"ॲ":{"ha":999,"x_min":76,"x_max":1061,"o":"m 76 0 m 1013 890 l 1013 810 l 853 810 l 853 0 l 754 0 l 754 335 l 493 335 q 496 296 496 310 q 400 112 496 168 q 157 56 304 56 l 76 56 l 76 135 l 157 135 q 329 169 261 135 q 397 300 397 204 q 353 407 397 372 q 211 442 308 442 l 140 442 l 140 521 l 213 521 q 351 564 306 521 q 397 676 397 607 q 349 781 397 751 q 199 810 300 810 l 119 810 l 119 890 l 199 890 q 423 842 350 890 q 496 682 496 794 q 465 564 496 613 q 369 483 433 515 q 463 415 432 463 l 754 415 l 754 810 l 579 810 l 579 890 l 1013 890 m 801 996 q 610 1052 678 996 q 542 1213 542 1108 l 542 1228 l 625 1228 l 625 1213 q 669 1110 625 1146 q 801 1075 714 1075 q 933 1110 889 1075 q 978 1213 978 1146 l 978 1228 l 1061 1228 l 1061 1213 q 993 1052 1061 1108 q 801 996 925 996 z "},"ऄ":{"ha":999,"x_min":74,"x_max":1013,"o":"m 1013 890 l 1013 810 l 853 810 l 853 0 l 754 0 l 754 335 l 493 335 q 496 296 496 310 q 400 112 496 168 q 157 56 304 56 l 76 56 l 76 135 l 157 135 q 329 169 261 135 q 397 300 397 204 q 353 407 397 372 q 211 442 308 442 l 140 442 l 140 521 l 213 521 q 351 564 306 521 q 397 676 397 607 q 349 781 397 751 q 199 810 300 810 l 119 810 l 119 890 l 199 890 q 423 842 350 890 q 496 682 496 794 q 465 564 496 613 q 369 483 433 515 q 463 415 432 463 l 754 415 l 754 810 l 579 810 l 579 890 l 754 890 l 754 946 q 741 1037 754 1004 q 691 1085 728 1069 q 582 1101 654 1101 l 350 1101 q 182 1126 242 1101 q 98 1203 122 1151 q 74 1339 74 1254 l 74 1365 l 172 1365 l 172 1339 q 183 1246 172 1278 q 233 1197 194 1214 q 350 1181 271 1181 l 582 1181 q 754 1156 696 1181 q 833 1083 813 1132 q 853 946 853 1033 l 853 890 l 1013 890 z "},"अ":{"ha":999,"x_min":76,"x_max":1013,"o":"m 1013 890 l 1013 810 l 853 810 l 853 0 l 754 0 l 754 335 l 493 335 q 496 296 496 310 q 400 112 496 168 q 157 56 304 56 l 76 56 l 76 135 l 157 135 q 329 169 261 135 q 397 300 397 204 q 353 407 397 372 q 211 442 308 442 l 140 442 l 140 521 l 213 521 q 351 564 306 521 q 397 676 397 607 q 349 781 397 751 q 199 810 300 810 l 119 810 l 119 890 l 199 890 q 423 842 350 890 q 496 682 496 794 q 465 564 496 613 q 369 483 433 515 q 463 415 432 463 l 754 415 l 754 810 l 579 810 l 579 890 l 1013 890 z "},"आ":{"ha":1388,"x_min":76,"x_max":1401,"o":"m 1401 810 l 1242 810 l 1242 0 l 1144 0 l 1144 810 l 985 810 l 853 810 l 853 0 l 754 0 l 754 335 l 493 335 q 496 296 496 310 q 400 112 496 168 q 157 56 304 56 l 76 56 l 76 135 l 157 135 q 329 169 261 135 q 397 300 397 204 q 353 407 397 372 q 211 442 308 442 l 140 442 l 140 521 l 213 521 q 351 564 306 521 q 397 676 397 607 q 349 781 397 751 q 199 810 300 810 l 119 810 l 119 890 l 199 890 q 423 842 350 890 q 496 682 496 794 q 465 564 496 613 q 369 483 433 515 q 463 415 432 463 l 754 415 l 754 810 l 579 810 l 579 890 l 985 890 l 1401 890 l 1401 810 z "},"इ":{"ha":708,"x_min":-14,"x_max":722,"o":"m 306 582 q 221 563 249 582 q 193 496 193 544 q 203 443 193 465 q 231 410 214 421 l 403 410 q 581 363 519 410 q 643 218 643 315 q 581 71 643 121 q 404 21 518 21 l 386 21 q 190 60 275 21 l 190 -81 l 97 -81 l 97 242 l 190 242 l 190 146 q 382 100 278 100 l 403 100 q 507 127 469 100 q 544 210 544 154 q 510 303 544 275 q 403 331 475 331 l 182 331 q 122 399 150 353 q 94 500 94 446 q 146 624 94 586 q 306 661 197 661 l 447 661 l 447 810 l -14 810 l -14 890 l 722 890 l 722 810 l 546 810 l 546 582 l 306 582 z "},"ई":{"ha":708,"x_min":-14,"x_max":722,"o":"m 306 582 q 221 563 249 582 q 193 496 193 544 q 203 443 193 465 q 231 410 214 421 l 403 410 q 581 363 519 410 q 643 218 643 315 q 581 71 643 121 q 404 21 518 21 l 386 21 q 190 60 275 21 l 190 -81 l 97 -81 l 97 242 l 190 242 l 190 146 q 382 100 278 100 l 403 100 q 507 127 469 100 q 544 210 544 154 q 510 303 544 275 q 403 331 475 331 l 182 331 q 122 399 150 353 q 94 500 94 446 q 146 624 94 586 q 306 661 197 661 l 447 661 l 447 810 l -14 810 l -14 890 l 446 890 q 390 1104 390 1007 q 451 1255 390 1211 q 594 1299 513 1299 q 688 1283 650 1299 l 688 1199 q 600 1219 646 1219 q 518 1191 549 1219 q 488 1097 488 1163 q 502 1000 488 1047 q 544 890 517 953 l 722 890 l 722 810 l 546 810 l 546 582 l 306 582 z "},"उ":{"ha":776,"x_min":-14,"x_max":790,"o":"m 790 810 l 624 810 q 672 669 672 761 q 642 554 672 601 q 544 476 611 507 q 641 394 610 453 q 672 254 672 335 q 594 58 672 117 q 378 0 515 0 q 83 256 83 0 l 83 325 l 181 325 l 181 256 q 233 117 181 154 q 378 79 286 79 q 523 117 471 79 q 575 256 575 154 q 531 392 575 347 q 390 436 486 436 l 292 436 l 292 517 l 392 517 q 529 560 483 517 q 575 671 575 604 q 554 752 575 724 q 482 810 533 781 l -14 810 l -14 890 l 790 890 l 790 810 z "},"ऊ":{"ha":1128,"x_min":-14,"x_max":1139,"o":"m 1139 810 l 624 810 q 672 669 672 761 q 642 554 672 601 q 544 476 611 507 q 642 393 608 453 q 731 439 686 424 q 831 454 775 454 q 1010 404 953 454 q 1068 228 1068 354 q 1009 52 1068 104 q 831 0 950 0 l 814 0 q 770 2 793 0 q 732 7 747 4 l 732 88 q 811 79 768 79 l 828 79 q 934 112 899 79 q 969 228 969 144 q 936 338 969 301 q 825 374 903 374 q 737 360 774 374 q 667 321 700 346 q 672 254 672 293 q 594 58 672 117 q 378 0 515 0 q 83 256 83 0 l 83 325 l 181 325 l 181 256 q 233 117 181 154 q 378 79 286 79 q 523 117 471 79 q 575 256 575 154 q 531 392 575 347 q 390 436 486 436 l 292 436 l 292 517 l 392 517 q 529 560 483 517 q 575 671 575 604 q 554 752 575 724 q 482 810 533 781 l -14 810 l -14 890 l 1139 890 l 1139 810 z "},"ऋ":{"ha":1154,"x_min":-14,"x_max":1168,"o":"m 622 810 l 622 483 l 836 483 l 836 663 l 933 663 l 933 475 q 1051 352 1008 413 q 1093 222 1093 292 q 1018 56 1093 113 q 822 0 943 0 l 781 0 l 781 79 l 822 79 q 947 115 899 79 q 996 224 996 151 q 965 319 996 276 q 875 403 935 363 l 622 403 l 622 0 l 525 0 l 525 328 l 146 -4 l 88 63 l 522 442 q 403 529 457 504 q 286 554 350 554 q 81 515 229 554 l 81 606 q 208 634 163 625 q 289 643 254 643 q 410 619 357 643 q 525 539 463 596 l 525 810 l -14 810 l -14 890 l 1168 890 l 1168 810 l 622 810 z "},"ॠ":{"ha":1125,"x_min":-14,"x_max":1188,"o":"m 1043 -197 q 1188 -156 1124 -197 l 1188 -242 q 1040 -275 1125 -275 q 882 -237 933 -275 q 831 -119 831 -200 q 878 -8 831 -46 q 815 42 833 10 q 796 117 796 74 q 820 208 796 174 q 901 254 844 242 l 825 403 l 622 403 l 622 0 l 525 0 l 525 328 l 146 -4 l 88 63 l 522 442 q 403 529 457 504 q 286 554 350 554 q 81 515 229 554 l 81 606 q 208 634 163 625 q 289 643 254 643 q 410 619 357 643 q 525 539 463 596 l 525 810 l -14 810 l -14 890 l 1138 890 l 1138 810 l 622 810 l 622 483 l 801 483 l 801 663 l 899 663 l 899 453 l 996 264 q 1063 257 1043 261 l 1063 179 q 988 186 1031 186 q 915 167 936 186 q 893 113 893 149 q 919 58 893 76 q 1018 40 946 40 l 1090 40 l 1090 -29 l 1067 -29 l 1067 -37 l 1025 -37 q 928 -117 928 -37 q 957 -178 928 -160 q 1043 -197 986 -197 z "},"ऌ":{"ha":1064,"x_min":-14,"x_max":1086,"o":"m 801 810 l 801 594 q 935 529 889 582 q 982 403 982 476 q 947 273 982 328 q 846 153 911 218 q 781 78 801 107 q 761 21 761 50 q 789 -40 761 -18 q 878 -62 817 -62 q 964 -46 918 -62 q 1042 -6 1010 -29 l 1042 -94 q 874 -142 972 -142 q 718 -97 774 -142 q 663 15 663 -51 q 690 106 663 65 q 769 199 717 146 q 854 299 825 254 q 883 400 883 343 q 849 488 883 458 q 751 518 814 518 q 636 468 675 518 q 594 325 597 418 l 594 275 l 496 275 l 496 325 q 456 467 494 417 q 342 518 417 518 q 226 467 265 518 q 185 325 186 417 q 242 147 188 215 q 438 79 296 79 l 464 79 l 464 0 l 438 0 q 168 94 250 0 q 86 325 86 188 q 151 523 86 449 q 336 597 215 597 q 546 489 483 597 q 704 593 597 578 l 704 810 l -14 810 l -14 890 l 1086 890 l 1086 810 l 801 810 z "},"ॡ":{"ha":1072,"x_min":-14,"x_max":1086,"o":"m 801 810 l 801 594 q 935 529 889 582 q 982 403 982 476 q 963 306 982 350 q 917 231 943 263 q 847 153 892 199 q 781 78 801 106 q 761 21 761 50 q 789 -40 761 -18 q 878 -62 817 -62 q 956 -50 908 -62 l 956 -133 q 878 -142 917 -142 q 835 -139 849 -142 q 796 -222 796 -169 q 824 -284 796 -265 q 910 -303 853 -303 q 983 -293 950 -303 q 1050 -261 1017 -283 l 1050 -347 q 903 -381 985 -381 q 749 -343 799 -381 q 699 -226 699 -306 q 744 -112 699 -153 q 683 -58 704 -92 q 663 15 663 -24 q 690 106 663 65 q 769 199 717 146 q 854 299 825 254 q 883 400 883 343 q 849 488 883 458 q 751 518 814 518 q 636 468 675 518 q 594 325 597 418 l 594 275 l 496 275 l 496 325 q 456 467 494 417 q 342 518 417 518 q 226 467 265 518 q 185 325 186 417 q 242 147 188 215 q 438 79 296 79 l 464 79 l 464 0 l 438 0 q 168 94 250 0 q 86 325 86 188 q 151 523 86 449 q 336 597 215 597 q 546 489 483 597 q 704 593 597 578 l 704 810 l -14 810 l -14 890 l 1086 890 l 1086 810 l 801 810 z "},"ऍ":{"ha":801,"x_min":-14,"x_max":815,"o":"m 0 46 m 453 421 q 525 431 499 422 q 566 469 551 440 q 581 554 581 497 l 581 810 l 246 810 l 246 406 q 288 217 246 278 q 395 141 331 156 q 568 126 460 126 l 683 126 l 683 46 l 568 46 q 343 72 432 46 q 201 176 254 97 q 149 406 149 256 l 149 810 l -14 810 l -14 890 l 815 890 l 815 810 l 679 810 l 679 554 q 625 389 679 436 q 453 340 571 342 l 418 340 l 418 421 l 453 421 m 415 986 q 224 1042 292 986 q 156 1203 156 1099 l 156 1218 l 239 1218 l 239 1203 q 283 1101 239 1136 q 415 1065 328 1065 q 547 1101 503 1065 q 592 1203 592 1136 l 592 1218 l 675 1218 l 675 1203 q 607 1042 675 1099 q 415 986 539 986 z "},"ऎ":{"ha":801,"x_min":-97,"x_max":815,"o":"m 453 421 q 525 431 499 422 q 566 469 551 440 q 581 554 581 497 l 581 810 l 246 810 l 246 406 q 288 217 246 278 q 395 141 331 156 q 568 126 460 126 l 683 126 l 683 46 l 568 46 q 343 72 432 46 q 201 176 254 97 q 149 406 149 256 l 149 810 l -14 810 l -14 890 l 583 890 l 583 946 q 570 1037 583 1004 q 520 1085 557 1069 q 411 1101 483 1101 l 179 1101 q 11 1126 71 1101 q -73 1203 -49 1151 q -97 1339 -97 1254 l -97 1365 l 0 1365 l 0 1339 q 11 1246 0 1278 q 61 1197 22 1214 q 179 1181 100 1181 l 411 1181 q 583 1156 525 1181 q 660 1083 640 1132 q 681 946 681 1033 l 681 890 l 815 890 l 815 810 l 679 810 l 679 554 q 625 389 679 436 q 453 340 571 342 l 418 340 l 418 421 l 453 421 z "},"ए":{"ha":801,"x_min":-14,"x_max":815,"o":"m 453 421 q 525 431 499 422 q 566 469 551 440 q 581 554 581 497 l 581 810 l 246 810 l 246 406 q 288 217 246 278 q 395 141 331 156 q 568 126 460 126 l 683 126 l 683 46 l 568 46 q 343 72 432 46 q 201 176 254 97 q 149 406 149 256 l 149 810 l -14 810 l -14 890 l 815 890 l 815 810 l 679 810 l 679 554 q 625 389 679 436 q 453 340 571 342 l 418 340 l 418 421 l 453 421 z "},"ऐ":{"ha":801,"x_min":-14,"x_max":815,"o":"m 453 421 q 525 431 499 422 q 566 469 551 440 q 581 554 581 497 l 581 810 l 246 810 l 246 406 q 288 217 246 278 q 395 141 331 156 q 568 126 460 126 l 683 126 l 683 46 l 568 46 q 343 72 432 46 q 201 176 254 97 q 149 406 149 256 l 149 810 l -14 810 l -14 890 l 582 890 l 540 1072 q 490 1168 524 1143 q 382 1193 456 1193 l 274 1193 l 274 1272 l 382 1272 q 508 1258 461 1272 q 587 1200 556 1243 q 638 1072 618 1157 l 679 890 l 815 890 l 815 810 l 679 810 l 679 554 q 625 389 679 436 q 453 340 571 342 l 418 340 l 418 421 l 453 421 z "},"ऑ":{"ha":1388,"x_min":76,"x_max":1451,"o":"m 76 0 m 1401 810 l 1242 810 l 1242 0 l 1144 0 l 1144 810 l 985 810 l 853 810 l 853 0 l 754 0 l 754 335 l 493 335 q 496 296 496 310 q 400 112 496 168 q 157 56 304 56 l 76 56 l 76 135 l 157 135 q 329 169 261 135 q 397 300 397 204 q 353 407 397 372 q 211 442 308 442 l 140 442 l 140 521 l 213 521 q 351 564 306 521 q 397 676 397 607 q 349 781 397 751 q 199 810 300 810 l 119 810 l 119 890 l 199 890 q 423 842 350 890 q 496 682 496 794 q 465 564 496 613 q 369 483 433 515 q 463 415 432 463 l 754 415 l 754 810 l 579 810 l 579 890 l 985 890 l 1401 890 l 1401 810 m 1192 996 q 1000 1052 1068 996 q 932 1213 932 1108 l 932 1228 l 1015 1228 l 1015 1213 q 1060 1110 1015 1146 q 1192 1075 1104 1075 q 1324 1110 1279 1075 q 1368 1213 1368 1146 l 1368 1228 l 1451 1228 l 1451 1213 q 1383 1052 1451 1108 q 1192 996 1315 996 z "},"ऒ":{"ha":1388,"x_min":76,"x_max":1401,"o":"m 1401 810 l 1242 810 l 1242 0 l 1144 0 l 1144 810 l 985 810 l 853 810 l 853 0 l 754 0 l 754 335 l 493 335 q 496 296 496 310 q 400 112 496 168 q 157 56 304 56 l 76 56 l 76 135 l 157 135 q 329 169 261 135 q 397 300 397 204 q 353 407 397 372 q 211 442 308 442 l 140 442 l 140 521 l 213 521 q 351 564 306 521 q 397 676 397 607 q 349 781 397 751 q 199 810 300 810 l 119 810 l 119 890 l 199 890 q 423 842 350 890 q 496 682 496 794 q 465 564 496 613 q 369 483 433 515 q 463 415 432 463 l 754 415 l 754 810 l 579 810 l 579 890 l 985 890 l 1144 890 l 1144 946 q 1131 1037 1144 1004 q 1081 1085 1118 1069 q 972 1101 1044 1101 l 740 1101 q 572 1126 632 1101 q 488 1203 513 1151 q 464 1339 464 1254 l 464 1365 l 561 1365 l 561 1339 q 572 1246 561 1278 q 622 1197 583 1214 q 740 1181 661 1181 l 972 1181 q 1144 1156 1086 1181 q 1222 1083 1201 1132 q 1242 946 1242 1033 l 1242 890 l 1401 890 l 1401 810 z "},"ओ":{"ha":1388,"x_min":76,"x_max":1401,"o":"m 1401 810 l 1242 810 l 1242 0 l 1144 0 l 1144 810 l 985 810 l 853 810 l 853 0 l 754 0 l 754 335 l 493 335 q 496 296 496 310 q 400 112 496 168 q 157 56 304 56 l 76 56 l 76 135 l 157 135 q 329 169 261 135 q 397 300 397 204 q 353 407 397 372 q 211 442 308 442 l 140 442 l 140 521 l 213 521 q 351 564 306 521 q 397 676 397 607 q 349 781 397 751 q 199 810 300 810 l 119 810 l 119 890 l 199 890 q 423 842 350 890 q 496 682 496 794 q 465 564 496 613 q 369 483 433 515 q 463 415 432 463 l 754 415 l 754 810 l 579 810 l 579 890 l 985 890 l 1143 890 l 1101 1072 q 1051 1168 1085 1143 q 943 1193 1017 1193 l 835 1193 l 835 1272 l 943 1272 q 1069 1258 1022 1272 q 1148 1200 1117 1243 q 1199 1072 1179 1157 l 1240 890 l 1401 890 l 1401 810 z "},"औ":{"ha":1388,"x_min":76,"x_max":1401,"o":"m 1401 810 l 1242 810 l 1242 0 l 1144 0 l 1144 810 l 985 810 l 853 810 l 853 0 l 754 0 l 754 335 l 493 335 q 496 296 496 310 q 400 112 496 168 q 157 56 304 56 l 76 56 l 76 135 l 157 135 q 329 169 261 135 q 397 300 397 204 q 353 407 397 372 q 211 442 308 442 l 140 442 l 140 521 l 213 521 q 351 564 306 521 q 397 676 397 607 q 349 781 397 751 q 199 810 300 810 l 119 810 l 119 890 l 199 890 q 423 842 350 890 q 496 682 496 794 q 465 564 496 613 q 369 483 433 515 q 463 415 432 463 l 754 415 l 754 810 l 579 810 l 579 890 l 985 890 l 1135 890 l 1063 981 q 997 1048 1028 1024 q 921 1083 965 1072 q 807 1094 876 1094 l 685 1094 l 685 1175 l 807 1175 q 948 1161 896 1175 q 1036 1117 1000 1147 q 1119 1025 1072 1086 l 1082 1190 q 1031 1282 1067 1258 q 918 1306 994 1306 l 810 1306 l 810 1385 l 918 1385 q 1044 1370 997 1385 q 1123 1314 1092 1356 q 1172 1190 1154 1272 l 1240 890 l 1401 890 l 1401 810 z "},"ॳ":{"ha":999,"x_min":76,"x_max":1013,"o":"m 1013 890 l 1013 810 l 853 810 l 853 0 l 754 0 l 754 335 l 493 335 q 496 296 496 310 q 400 112 496 168 q 157 56 304 56 l 76 56 l 76 135 l 157 135 q 329 169 261 135 q 397 300 397 204 q 353 407 397 372 q 211 442 308 442 l 140 442 l 140 521 l 213 521 q 351 564 306 521 q 397 676 397 607 q 349 781 397 751 q 199 810 300 810 l 119 810 l 119 890 l 199 890 q 423 842 350 890 q 496 682 496 794 q 465 564 496 613 q 369 483 433 515 q 463 415 432 463 l 754 415 l 754 810 l 579 810 l 579 890 l 754 890 l 754 1254 l 851 1254 l 851 890 l 1013 890 z "},"ॴ":{"ha":1388,"x_min":76,"x_max":1401,"o":"m 1401 810 l 1242 810 l 1242 0 l 1144 0 l 1144 810 l 985 810 l 853 810 l 853 0 l 754 0 l 754 335 l 493 335 q 496 296 496 310 q 400 112 496 168 q 157 56 304 56 l 76 56 l 76 135 l 157 135 q 329 169 261 135 q 397 300 397 204 q 353 407 397 372 q 211 442 308 442 l 140 442 l 140 521 l 213 521 q 351 564 306 521 q 397 676 397 607 q 349 781 397 751 q 199 810 300 810 l 119 810 l 119 890 l 199 890 q 423 842 350 890 q 496 682 496 794 q 465 564 496 613 q 369 483 433 515 q 463 415 432 463 l 754 415 l 754 810 l 579 810 l 579 890 l 985 890 l 1144 890 l 1144 1254 l 1242 1254 l 1242 890 l 1401 890 l 1401 810 z "},"ॶ":{"ha":999,"x_min":76,"x_max":1013,"o":"m 76 0 m 1013 890 l 1013 810 l 853 810 l 853 0 l 754 0 l 754 335 l 493 335 q 496 296 496 310 q 400 112 496 168 q 157 56 304 56 l 76 56 l 76 135 l 157 135 q 329 169 261 135 q 397 300 397 204 q 353 407 397 372 q 211 442 308 442 l 140 442 l 140 521 l 213 521 q 351 564 306 521 q 397 676 397 607 q 349 781 397 751 q 199 810 300 810 l 119 810 l 119 890 l 199 890 q 423 842 350 890 q 496 682 496 794 q 465 564 496 613 q 369 483 433 515 q 463 415 432 463 l 754 415 l 754 810 l 579 810 l 579 890 l 1013 890 m 547 -274 q 366 -229 444 -274 q 243 -112 288 -185 l 301 -67 q 547 -193 400 -193 q 793 -67 694 -193 l 851 -112 q 728 -228 807 -183 q 547 -274 649 -274 z "},"ॷ":{"ha":999,"x_min":76,"x_max":1013,"o":"m 76 0 m 1013 890 l 1013 810 l 853 810 l 853 0 l 754 0 l 754 335 l 493 335 q 496 296 496 310 q 400 112 496 168 q 157 56 304 56 l 76 56 l 76 135 l 157 135 q 329 169 261 135 q 397 300 397 204 q 353 407 397 372 q 211 442 308 442 l 140 442 l 140 521 l 213 521 q 351 564 306 521 q 397 676 397 607 q 349 781 397 751 q 199 810 300 810 l 119 810 l 119 890 l 199 890 q 423 842 350 890 q 496 682 496 794 q 465 564 496 613 q 369 483 433 515 q 463 415 432 463 l 754 415 l 754 810 l 579 810 l 579 890 l 1013 890 m 547 -274 q 366 -229 444 -274 q 243 -112 288 -185 l 301 -67 q 547 -193 400 -193 q 793 -67 694 -193 l 851 -112 q 728 -228 807 -183 q 547 -274 649 -274 m 547 -503 q 366 -458 444 -503 q 243 -342 288 -414 l 301 -296 q 547 -422 400 -422 q 793 -296 694 -422 l 851 -342 q 728 -458 807 -412 q 547 -503 649 -503 z "},"ा":{"ha":390,"x_min":-14,"x_max":404,"o":"m 404 810 l 244 810 l 244 0 l 146 0 l 146 810 l -14 810 l -14 890 l 404 890 l 404 810 z "},"ि":{"ha":390,"x_min":-14,"x_max":996,"o":"m 588 1292 q 820 1260 732 1292 q 951 1158 908 1229 q 996 965 994 1088 l 996 844 l 899 844 l 899 965 q 863 1126 899 1072 q 762 1195 826 1179 q 588 1211 697 1211 l 556 1211 q 382 1195 446 1211 q 282 1126 318 1179 q 246 965 246 1072 l 246 890 l 406 890 l 406 810 l 246 810 l 246 0 l 147 0 l 147 810 l -14 810 l -14 890 l 147 890 l 147 965 q 190 1158 147 1088 q 322 1260 233 1229 q 556 1292 411 1292 l 588 1292 z "},"ी":{"ha":390,"x_min":-244,"x_max":404,"o":"m 404 810 l 244 810 l 244 0 l 146 0 l 146 810 l -14 810 l -14 890 l 146 890 l 146 1010 q 131 1141 146 1097 q 90 1198 117 1185 q 14 1211 63 1211 l -14 1211 q -90 1198 -62 1211 q -131 1141 -117 1185 q -146 1010 -146 1097 l -146 844 l -244 844 l -244 1011 q -221 1178 -244 1117 q -147 1265 -197 1239 q -14 1292 -97 1292 l 14 1292 q 147 1265 97 1292 q 221 1178 197 1239 q 244 1011 244 1117 l 244 890 l 404 890 l 404 810 z "},"ॉ":{"ha":390,"x_min":-67,"x_max":453,"o":"m 0 0 m 404 810 l 244 810 l 244 0 l 146 0 l 146 810 l -14 810 l -14 890 l 404 890 l 404 810 m 193 996 q 1 1052 69 996 q -67 1213 -67 1108 l -67 1228 l 17 1228 l 17 1213 q 61 1110 17 1146 q 193 1075 106 1075 q 325 1110 281 1075 q 369 1213 369 1146 l 369 1228 l 453 1228 l 453 1213 q 385 1052 453 1108 q 193 996 317 996 z "},"ॊ":{"ha":390,"x_min":-535,"x_max":404,"o":"m 404 810 l 244 810 l 244 0 l 146 0 l 146 810 l -14 810 l -14 890 l 146 890 l 146 946 q 133 1037 146 1004 q 83 1085 119 1069 q -26 1101 46 1101 l -258 1101 q -426 1126 -367 1101 q -510 1203 -486 1151 q -535 1339 -535 1254 l -535 1365 l -436 1365 l -436 1339 q -425 1246 -436 1278 q -376 1197 -414 1214 q -258 1181 -337 1181 l -26 1181 q 146 1156 88 1181 q 224 1083 204 1132 q 244 946 244 1033 l 244 890 l 404 890 l 404 810 z "},"ो":{"ha":390,"x_min":-164,"x_max":404,"o":"m 404 810 l 244 810 l 244 0 l 146 0 l 146 810 l -14 810 l -14 890 l 144 890 l 103 1072 q 52 1168 86 1143 q -56 1193 18 1193 l -164 1193 l -164 1272 l -56 1272 q 71 1258 24 1272 q 149 1200 118 1243 q 200 1072 181 1157 l 243 890 l 404 890 l 404 810 z "},"ौ":{"ha":390,"x_min":-314,"x_max":404,"o":"m 404 810 l 244 810 l 244 0 l 146 0 l 146 810 l -14 810 l -14 890 l 136 890 l 64 981 q -1 1048 29 1024 q -76 1083 -32 1072 q -192 1094 -121 1094 l -314 1094 l -314 1175 l -192 1175 q -51 1161 -103 1175 q 38 1117 1 1147 q 121 1026 75 1088 l 83 1190 q 32 1282 68 1258 q -81 1306 -4 1306 l -189 1306 l -189 1385 l -81 1385 q 46 1370 -1 1385 q 124 1314 93 1356 q 175 1190 156 1272 l 243 890 l 404 890 l 404 810 z "},"ॎ":{"ha":358,"x_min":115,"x_max":372,"o":"m 372 810 l 213 810 l 213 0 l 115 0 l 115 890 l 372 890 l 372 810 z "},"ऻ":{"ha":390,"x_min":-14,"x_max":404,"o":"m 404 810 l 244 810 l 244 0 l 146 0 l 146 810 l -14 810 l -14 890 l 146 890 l 146 1254 l 244 1254 l 244 890 l 404 890 l 404 810 z "},"क":{"ha":1115,"x_min":-14,"x_max":1129,"o":"m 607 810 l 607 568 q 772 606 676 606 l 794 606 q 994 557 931 604 q 1057 392 1057 510 q 994 226 1057 275 q 796 178 931 178 l 779 178 q 735 180 758 178 q 696 185 711 182 l 696 265 q 776 258 738 258 l 793 258 q 918 286 878 258 q 958 392 958 314 q 940 477 958 449 q 885 515 921 506 q 789 525 850 525 l 768 525 q 607 485 674 525 l 607 0 l 508 0 l 508 215 q 343 178 436 178 l 321 178 q 122 226 185 179 q 58 392 58 274 q 122 557 58 508 q 319 606 185 606 l 336 606 q 381 603 357 606 q 419 599 404 601 l 419 518 q 339 525 378 525 l 322 525 q 197 497 238 525 q 157 392 157 469 q 176 308 157 336 q 230 269 194 279 q 326 258 265 260 l 347 258 q 508 297 442 258 l 508 810 l -14 810 l -14 890 l 1129 890 l 1129 810 l 607 810 z "},"ख":{"ha":1149,"x_min":-14,"x_max":1163,"o":"m 1163 810 l 1003 810 l 1003 0 l 904 0 l 904 254 q 776 233 849 233 l 751 233 q 533 419 533 233 q 588 560 533 514 q 726 606 643 606 l 743 606 q 815 599 778 606 l 815 519 q 750 525 782 525 l 733 525 q 659 502 688 525 q 631 419 631 479 q 661 335 631 356 q 760 314 692 314 l 783 314 q 904 335 851 314 l 904 810 l 468 810 l 468 549 q 403 393 468 438 q 199 349 338 349 l 190 349 l 190 271 q 237 121 190 163 q 397 79 283 79 l 626 79 l 626 0 l 397 0 q 172 58 250 0 q 93 271 93 115 l 93 596 l 190 596 l 190 429 l 199 429 q 296 438 260 429 q 351 472 332 446 q 371 549 371 497 l 371 810 l -14 810 l -14 890 l 1163 890 l 1163 810 z "},"ग":{"ha":833,"x_min":-14,"x_max":847,"o":"m 847 810 l 688 810 l 688 0 l 589 0 l 589 810 l 326 810 l 328 410 q 213 267 328 267 q 120 298 160 267 q 53 394 81 329 l 129 433 q 165 368 149 390 q 201 346 182 346 q 224 360 218 346 q 229 410 229 375 l 229 810 l -14 810 l -14 890 l 847 890 l 847 810 z "},"घ":{"ha":831,"x_min":-14,"x_max":844,"o":"m 844 890 l 844 810 l 685 810 l 685 0 l 586 0 l 586 207 q 419 174 511 174 l 394 174 q 199 222 261 175 q 136 382 136 268 q 210 547 136 499 q 117 609 147 567 q 86 721 86 651 q 101 810 86 775 l -14 810 l -14 890 l 844 890 m 424 254 q 586 296 518 254 l 586 810 l 207 810 q 185 725 185 782 q 236 622 186 647 q 399 596 286 596 l 431 596 l 431 588 l 443 588 l 443 517 l 399 517 q 274 490 314 517 q 235 385 235 463 q 253 301 235 329 q 306 265 272 274 q 399 254 340 256 l 424 254 z "},"ङ":{"ha":832,"x_min":-14,"x_max":846,"o":"m 846 890 l 846 810 l 546 810 l 546 579 l 538 579 l 538 554 l 299 554 q 213 536 240 554 q 185 469 185 518 q 195 417 185 439 q 222 383 206 394 l 396 383 q 573 336 511 383 q 635 192 635 289 q 572 44 635 94 q 396 -7 510 -7 l 378 -7 q 193 17 274 -7 q 39 86 113 40 l 78 161 q 217 95 147 117 q 375 74 288 74 l 394 74 q 499 101 461 74 q 536 183 536 128 q 501 276 536 249 q 396 304 467 304 l 174 304 q 115 374 143 328 q 86 474 86 419 q 138 597 86 560 q 299 635 190 635 l 447 635 l 447 810 l -14 810 l -14 890 l 846 890 m 717 533 l 804 446 l 717 360 l 629 446 l 717 533 z "},"च":{"ha":851,"x_min":-14,"x_max":865,"o":"m 865 890 l 865 810 l 706 810 l 706 0 l 607 0 l 607 193 q 446 160 540 160 l 418 160 q 210 210 279 160 q 142 382 142 261 q 196 540 142 486 l 38 540 l 38 621 l 483 621 l 483 540 l 321 540 q 261 483 282 519 q 240 386 240 447 q 263 294 240 325 q 324 251 285 263 q 426 240 363 240 l 450 240 q 607 278 540 240 l 607 810 l -14 810 l -14 890 l 865 890 z "},"छ":{"ha":993,"x_min":-14,"x_max":1007,"o":"m 838 810 l 838 701 q 886 593 886 672 l 886 421 q 777 121 886 213 q 499 29 668 29 l 476 29 q 230 88 326 29 q 133 278 133 147 q 225 476 133 424 q 125 538 157 494 q 93 656 93 582 q 158 810 93 753 l -14 810 l -14 890 l 1007 890 l 1007 810 l 838 810 m 740 810 l 310 810 q 224 753 256 789 q 192 657 192 718 q 244 553 193 579 q 411 526 294 526 l 449 526 l 449 447 l 426 447 q 278 411 326 447 q 231 281 231 375 q 301 146 231 183 q 476 108 372 108 l 499 108 q 706 178 622 108 q 789 421 789 247 l 789 590 q 779 630 789 618 q 742 642 769 642 q 706 630 717 642 q 696 590 696 618 l 696 447 l 601 447 l 601 593 q 634 688 601 656 q 740 721 667 719 l 740 810 z "},"ज":{"ha":917,"x_min":-14,"x_max":931,"o":"m 931 890 l 931 810 l 771 810 l 771 0 l 672 0 l 672 511 l 521 511 l 521 406 q 471 213 521 274 q 293 153 421 153 q 120 215 172 153 q 68 406 68 276 l 68 592 l 164 592 l 164 403 q 192 274 164 315 q 293 232 221 232 q 397 272 371 232 q 424 403 424 313 l 424 592 l 672 592 l 672 810 l -14 810 l -14 890 l 931 890 z "},"झ":{"ha":1047,"x_min":-14,"x_max":1061,"o":"m 1061 810 l 901 810 l 901 0 l 804 0 l 804 272 l 606 272 q 608 242 608 253 q 550 94 608 144 q 388 43 492 43 l 368 43 q 190 75 272 43 l 190 -58 l 97 -58 l 97 265 l 190 265 l 190 160 q 365 124 267 124 l 385 124 q 477 151 444 124 q 510 232 510 178 q 479 325 510 297 q 386 353 449 353 l 182 353 q 122 423 150 376 q 94 522 94 469 q 146 647 94 610 q 306 685 197 685 l 413 685 l 413 810 l -14 810 l -14 890 l 1061 890 l 1061 810 m 804 810 l 511 810 l 511 604 l 306 604 q 220 586 247 604 q 193 519 193 568 q 204 466 193 489 q 231 433 215 443 l 386 433 q 579 351 528 433 l 804 351 l 804 810 z "},"ञ":{"ha":800,"x_min":-14,"x_max":814,"o":"m 814 890 l 814 810 l 654 810 l 654 0 l 556 0 l 556 360 l 406 360 q 331 197 397 247 q 136 147 264 147 l 53 147 l 53 228 l 136 228 q 267 265 225 228 q 310 397 310 303 q 290 503 310 467 q 234 553 271 540 q 136 567 197 567 l 53 567 l 53 647 l 136 647 q 331 600 265 647 q 406 440 396 553 l 556 440 l 556 810 l -14 810 l -14 890 l 814 890 z "},"ट":{"ha":711,"x_min":-14,"x_max":725,"o":"m 371 565 q 260 547 303 565 q 195 481 218 529 q 172 342 172 432 q 193 201 172 250 q 253 135 214 153 q 357 118 292 118 l 383 118 q 520 157 478 118 q 563 301 563 196 l 563 343 l 660 343 l 660 301 q 594 100 660 163 q 383 38 528 38 l 357 38 q 143 106 211 38 q 75 342 75 175 q 147 576 75 507 q 371 646 219 646 l 468 646 l 468 810 l -14 810 l -14 890 l 725 890 l 725 810 l 565 810 l 565 565 l 371 565 z "},"ठ":{"ha":753,"x_min":-14,"x_max":767,"o":"m 607 751 q 540 614 607 658 q 635 515 604 582 q 665 342 665 449 q 597 106 665 175 q 382 38 529 38 l 361 38 q 147 106 215 38 q 79 342 79 175 q 151 577 79 508 q 375 646 224 646 q 478 669 447 646 q 508 751 508 692 l 508 810 l -14 810 l -14 890 l 767 890 l 767 810 l 607 810 l 607 751 m 382 118 q 487 135 447 118 q 547 201 526 153 q 567 342 567 250 q 544 480 567 431 q 481 548 522 529 q 375 567 439 567 q 266 549 308 567 q 201 481 224 531 q 178 342 178 432 q 199 201 178 250 q 260 135 219 153 q 369 118 301 118 l 382 118 z "},"ड":{"ha":694,"x_min":-14,"x_max":708,"o":"m 299 554 q 213 536 240 554 q 185 469 185 518 q 195 417 185 439 q 222 383 206 394 l 396 383 q 573 336 511 383 q 635 192 635 289 q 572 44 635 94 q 396 -7 510 -7 l 378 -7 q 193 17 274 -7 q 39 86 113 40 l 78 161 q 217 95 147 117 q 375 74 288 74 l 394 74 q 499 101 461 74 q 536 183 536 128 q 501 276 536 249 q 396 304 467 304 l 174 304 q 115 374 143 328 q 86 474 86 419 q 138 597 86 560 q 299 635 190 635 l 447 635 l 447 810 l -14 810 l -14 890 l 708 890 l 708 810 l 546 810 l 546 579 l 538 579 l 538 554 l 299 554 z "},"ढ":{"ha":711,"x_min":-14,"x_max":725,"o":"m 371 565 q 260 547 303 565 q 195 481 218 529 q 172 342 172 432 q 193 201 172 250 q 253 135 214 153 q 357 118 292 118 l 383 118 q 518 147 475 118 q 563 244 561 175 l 563 288 q 548 335 563 321 q 500 350 533 350 q 451 335 467 350 q 436 288 436 321 l 436 225 l 343 225 l 343 292 q 381 394 343 360 q 503 428 418 428 q 622 392 585 428 q 660 288 660 356 l 660 244 q 592 88 660 139 q 383 38 524 38 l 357 38 q 143 106 211 38 q 75 342 75 175 q 147 576 75 507 q 371 646 219 646 l 468 646 l 468 810 l -14 810 l -14 890 l 725 890 l 725 810 l 565 810 l 565 565 l 371 565 z "},"ण":{"ha":986,"x_min":-14,"x_max":1000,"o":"m 1000 890 l 1000 810 l 840 810 l 840 0 l 743 0 l 743 810 l 553 810 l 553 525 q 503 351 553 401 q 347 300 453 300 q 192 350 242 300 q 142 525 142 400 l 142 810 l -14 810 l -14 890 l 1000 890 m 454 810 l 239 810 l 239 522 q 265 411 239 442 q 347 381 292 381 q 428 412 403 381 q 454 522 454 443 l 454 810 z "},"त":{"ha":789,"x_min":-14,"x_max":803,"o":"m 803 890 l 803 810 l 643 810 l 643 0 l 546 0 l 546 546 l 315 546 q 238 527 267 546 q 194 458 210 508 q 178 315 179 408 q 218 130 179 181 q 336 79 257 79 l 354 79 l 354 0 l 336 0 q 144 74 210 0 q 79 315 79 147 q 135 555 79 485 q 315 625 192 625 l 546 625 l 546 810 l -14 810 l -14 890 l 803 890 z "},"थ":{"ha":831,"x_min":72,"x_max":844,"o":"m 844 890 l 844 810 l 685 810 l 685 0 l 586 0 l 586 258 q 489 219 540 232 q 393 207 438 207 q 210 254 278 207 q 92 424 143 301 q 213 482 174 457 q 273 551 253 507 q 293 674 293 594 l 293 726 q 280 806 293 785 q 229 828 267 828 q 178 806 192 828 q 165 726 165 783 l 165 664 l 72 664 l 72 726 q 109 860 72 815 q 229 906 146 906 q 350 861 314 906 q 386 726 386 817 l 386 674 q 365 533 386 588 q 308 447 344 479 q 210 381 272 414 q 285 307 239 326 q 396 288 331 288 q 586 346 493 288 l 586 810 l 468 810 l 468 890 l 844 890 z "},"द":{"ha":717,"x_min":-14,"x_max":731,"o":"m 403 589 q 278 572 326 589 q 203 511 229 556 q 178 383 178 467 q 201 256 178 301 q 268 194 224 211 q 383 178 313 178 l 406 178 q 506 190 463 178 l 506 311 l 604 311 l 604 -21 l 506 -21 l 506 110 q 400 99 463 99 l 378 99 q 152 163 225 99 q 79 382 79 228 q 158 604 79 539 q 403 669 238 669 l 472 669 l 472 810 l -14 810 l -14 890 l 731 890 l 731 810 l 571 810 l 571 589 l 403 589 z "},"ध":{"ha":835,"x_min":76,"x_max":849,"o":"m 849 890 l 849 810 l 689 810 l 689 0 l 590 0 l 590 178 q 418 146 514 146 l 394 146 q 193 194 257 147 q 129 357 129 242 q 147 459 129 418 q 204 526 165 500 q 108 591 139 547 q 76 708 76 635 q 139 863 76 817 q 333 908 201 908 l 350 908 q 393 906 374 908 l 393 825 l 350 828 l 333 828 q 213 803 250 828 q 175 703 175 778 q 200 621 175 649 q 272 584 225 593 q 396 575 318 575 l 442 575 l 442 493 l 399 493 q 268 465 310 493 q 226 360 226 438 q 246 276 226 304 q 301 238 265 247 q 399 226 338 228 l 424 226 q 590 265 522 226 l 590 810 l 476 810 l 476 890 l 849 890 z "},"न":{"ha":774,"x_min":-14,"x_max":788,"o":"m 788 890 l 788 810 l 628 810 l 628 0 l 529 0 l 529 474 l 226 474 q 183 465 196 474 q 171 436 171 457 q 243 364 171 399 l 204 292 q 107 357 139 319 q 75 446 75 394 q 111 526 75 499 q 215 553 147 553 l 529 553 l 529 810 l -14 810 l -14 890 l 788 890 z "},"ऩ":{"ha":774,"x_min":-14,"x_max":788,"o":"m 0 0 m 788 890 l 788 810 l 628 810 l 628 0 l 529 0 l 529 474 l 226 474 q 183 465 196 474 q 171 436 171 457 q 243 364 171 399 l 204 292 q 107 357 139 319 q 75 446 75 394 q 111 526 75 499 q 215 553 147 553 l 529 553 l 529 810 l -14 810 l -14 890 l 788 890 m 243 0 l 331 88 l 418 0 l 331 -86 l 243 0 z "},"प":{"ha":761,"x_min":-14,"x_max":775,"o":"m 775 890 l 775 810 l 615 810 l 615 0 l 518 0 l 518 332 q 360 288 444 288 q 177 342 236 288 q 118 531 118 396 l 118 810 l -14 810 l -14 890 l 775 890 m 367 368 q 518 419 451 368 l 518 810 l 217 810 l 217 531 q 250 404 217 440 q 367 368 283 368 z "},"फ":{"ha":1119,"x_min":-14,"x_max":1133,"o":"m 611 810 l 611 568 q 778 606 683 606 l 799 606 q 998 557 935 604 q 1061 392 1061 510 q 998 226 1061 275 q 801 178 935 178 l 785 178 q 740 180 764 178 q 701 185 717 182 l 701 265 q 782 258 740 258 l 799 258 q 922 286 882 258 q 963 392 963 314 q 944 477 963 449 q 890 515 925 506 q 794 525 854 525 l 772 525 q 611 485 678 525 l 611 0 l 513 0 l 513 332 q 354 288 442 288 q 176 342 235 288 q 118 531 118 396 l 118 810 l -14 810 l -14 890 l 1133 890 l 1133 810 l 611 810 m 361 368 q 513 418 450 368 l 513 810 l 217 810 l 217 531 q 249 404 217 440 q 361 368 281 368 z "},"ब":{"ha":753,"x_min":-14,"x_max":767,"o":"m 767 890 l 767 810 l 607 810 l 607 0 l 508 0 l 508 215 q 343 178 436 178 l 321 178 q 122 226 185 179 q 58 392 58 274 q 122 557 58 508 q 319 606 185 606 l 336 606 q 381 603 357 606 q 419 599 404 601 l 419 518 q 339 525 378 525 l 322 525 q 254 521 283 525 l 467 278 q 508 297 481 283 l 508 810 l -14 810 l -14 890 l 767 890 m 347 258 q 399 261 382 258 l 193 494 q 157 392 157 465 q 176 308 157 336 q 230 269 194 279 q 326 258 265 260 l 347 258 z "},"भ":{"ha":883,"x_min":36,"x_max":897,"o":"m 897 890 l 897 810 l 738 810 l 738 0 l 639 0 l 639 353 l 322 353 l 322 222 l 225 222 l 225 772 q 215 815 225 803 q 176 828 204 828 q 140 815 150 828 q 129 772 129 803 l 129 711 l 36 711 l 36 772 q 70 872 36 838 q 179 906 104 906 q 289 872 256 906 q 322 772 322 839 l 322 432 l 639 432 l 639 810 l 494 810 l 494 890 l 897 890 z "},"म":{"ha":794,"x_min":-14,"x_max":808,"o":"m 808 890 l 808 810 l 649 810 l 649 0 l 550 0 l 550 378 l 233 378 l 233 249 l 136 249 l 136 810 l -14 810 l -14 890 l 808 890 m 550 458 l 550 810 l 233 810 l 233 458 l 550 458 z "},"य":{"ha":817,"x_min":-14,"x_max":831,"o":"m 831 890 l 831 810 l 671 810 l 671 0 l 574 0 l 574 278 q 478 243 528 254 q 389 232 428 232 q 253 251 308 232 q 157 316 199 269 q 81 447 115 363 q 226 533 186 489 q 267 642 267 576 q 215 810 267 724 l -14 810 l -14 890 l 831 890 m 389 311 q 574 368 479 311 l 574 810 l 311 810 q 350 719 336 765 q 364 639 364 672 q 325 506 364 561 q 199 407 286 451 q 276 331 229 351 q 389 311 324 311 z "},"र":{"ha":614,"x_min":-14,"x_max":628,"o":"m 197 349 l 197 271 q 244 121 197 163 q 403 79 290 79 l 550 79 l 550 0 l 403 0 q 177 58 256 0 q 99 271 99 115 l 99 596 l 197 596 l 197 429 l 199 429 q 296 438 260 429 q 351 472 332 446 q 371 549 371 497 l 371 810 l -14 810 l -14 890 l 628 890 l 628 810 l 468 810 l 468 549 q 403 393 468 438 q 199 349 338 349 l 197 349 z "},"ऱ":{"ha":614,"x_min":-14,"x_max":628,"o":"m 0 0 m 197 349 l 197 271 q 244 121 197 163 q 403 79 290 79 l 550 79 l 550 0 l 403 0 q 177 58 256 0 q 99 271 99 115 l 99 596 l 197 596 l 197 429 l 199 429 q 296 438 260 429 q 351 472 332 446 q 371 549 371 497 l 371 810 l -14 810 l -14 890 l 628 890 l 628 810 l 468 810 l 468 549 q 403 393 468 438 q 199 349 338 349 l 197 349 m -1 -107 l 86 -19 l 174 -107 l 86 -193 l -1 -107 z "},"ल":{"ha":1082,"x_min":-14,"x_max":1096,"o":"m 1096 890 l 1096 810 l 936 810 l 932 0 l 835 0 l 836 511 q 753 532 801 532 q 637 481 676 532 q 594 336 597 429 l 594 286 l 583 286 l 583 275 l 496 275 l 496 325 q 456 467 494 417 q 342 518 417 518 q 226 467 265 518 q 185 325 186 417 q 242 147 188 215 q 438 79 296 79 l 464 79 l 464 0 l 438 0 q 168 94 250 0 q 86 325 86 188 q 151 523 86 449 q 336 597 215 597 q 542 497 478 597 q 622 581 569 551 q 750 611 675 611 q 836 599 799 611 l 838 810 l -14 810 l -14 890 l 1096 890 z "},"ळ":{"ha":1046,"x_min":-14,"x_max":1060,"o":"m 782 810 l 782 629 q 932 547 879 615 q 985 383 985 479 q 920 203 985 274 q 736 133 856 133 q 607 162 661 133 q 522 242 553 190 q 440 162 493 190 q 313 133 386 133 q 126 203 192 133 q 61 383 61 274 q 126 562 61 492 q 313 632 192 632 q 440 603 386 632 q 522 524 493 575 q 683 629 574 611 l 683 810 l -14 810 l -14 890 l 1060 890 l 1060 810 l 782 810 m 318 213 q 435 260 397 213 q 474 383 474 307 q 435 506 474 460 q 318 553 397 553 q 197 506 236 553 q 158 383 158 460 q 197 260 158 307 q 318 213 236 213 m 886 383 q 848 506 886 460 q 731 553 810 553 q 610 506 649 553 q 572 383 572 460 q 610 260 572 307 q 731 213 649 213 q 848 260 810 213 q 886 383 886 307 z "},"ऴ":{"ha":1046,"x_min":-14,"x_max":1060,"o":"m 0 0 m 782 810 l 782 629 q 932 547 879 615 q 985 383 985 479 q 920 203 985 274 q 736 133 856 133 q 607 162 661 133 q 522 242 553 190 q 440 162 493 190 q 313 133 386 133 q 126 203 192 133 q 61 383 61 274 q 126 562 61 492 q 313 632 192 632 q 440 603 386 632 q 522 524 493 575 q 683 629 574 611 l 683 810 l -14 810 l -14 890 l 1060 890 l 1060 810 l 782 810 m 318 213 q 435 260 397 213 q 474 383 474 307 q 435 506 474 460 q 318 553 397 553 q 197 506 236 553 q 158 383 158 460 q 197 260 158 307 q 318 213 236 213 m 886 383 q 848 506 886 460 q 731 553 810 553 q 610 506 649 553 q 572 383 572 460 q 610 260 572 307 q 731 213 649 213 q 848 260 810 213 q 886 383 886 307 m 433 0 l 521 88 l 608 0 l 521 -86 l 433 0 z "},"व":{"ha":753,"x_min":-14,"x_max":767,"o":"m 767 890 l 767 810 l 607 810 l 607 0 l 508 0 l 508 215 q 343 178 436 178 l 321 178 q 122 226 185 179 q 58 392 58 274 q 122 557 58 508 q 319 606 185 606 l 336 606 q 381 603 357 606 q 419 599 404 601 l 419 518 q 339 525 378 525 l 322 525 q 197 497 238 525 q 157 392 157 469 q 176 308 157 336 q 230 269 194 279 q 326 258 265 260 l 347 258 q 508 297 442 258 l 508 810 l -14 810 l -14 890 l 767 890 z "},"श":{"ha":982,"x_min":75,"x_max":996,"o":"m 253 326 q 324 132 261 185 q 499 79 388 79 l 582 79 l 582 0 l 496 0 q 254 76 343 0 q 157 325 165 151 l 75 325 l 75 404 l 207 404 q 392 469 328 404 q 457 651 456 533 q 445 757 457 719 q 406 811 433 794 q 329 828 379 828 q 233 789 264 828 q 200 656 201 750 l 200 596 l 103 596 l 103 660 q 158 844 104 782 q 329 906 213 906 q 502 842 449 906 q 556 651 556 779 q 474 428 554 517 q 253 326 393 340 m 996 810 l 836 810 l 836 0 l 738 0 l 738 890 l 996 890 l 996 810 z "},"ष":{"ha":796,"x_min":-14,"x_max":810,"o":"m 810 890 l 810 810 l 650 810 l 650 0 l 551 0 l 551 335 q 375 288 471 288 q 181 342 244 288 q 117 531 117 396 l 117 810 l -14 810 l -14 890 l 810 890 m 551 810 l 268 810 l 551 471 l 551 810 m 215 531 q 253 405 215 442 q 382 368 290 368 q 525 404 465 368 l 215 776 l 215 531 z "},"स":{"ha":1042,"x_min":-14,"x_max":1056,"o":"m 1056 890 l 1056 810 l 896 810 l 896 0 l 797 0 l 797 382 l 518 382 l 518 461 l 797 461 l 797 810 l 468 810 l 468 549 q 403 393 468 438 q 199 349 338 349 l 190 349 l 190 271 q 237 121 190 163 q 397 79 283 79 l 619 79 l 619 0 l 397 0 q 172 58 250 0 q 93 271 93 115 l 93 596 l 190 596 l 190 429 l 199 429 q 296 438 260 429 q 351 472 332 446 q 371 549 371 497 l 371 810 l -14 810 l -14 890 l 1056 890 z "},"ह":{"ha":743,"x_min":-14,"x_max":761,"o":"m 306 582 q 221 563 249 582 q 193 496 193 544 q 210 433 193 461 q 256 386 228 404 q 390 418 315 418 l 433 418 q 594 365 538 418 q 651 226 651 313 l 651 186 l 569 186 l 569 226 q 534 308 569 276 q 433 339 499 339 l 390 339 q 291 303 336 339 q 246 185 246 268 q 319 31 246 72 q 507 -11 392 -11 l 589 -11 l 589 -90 l 504 -90 q 247 -25 344 -90 q 149 188 149 40 q 189 328 149 272 q 123 402 151 357 q 94 500 94 447 q 145 624 94 586 q 304 661 196 661 l 499 661 l 499 810 l -14 810 l -14 890 l 761 890 l 761 810 l 596 810 l 596 582 l 306 582 z "},"क़":{"ha":1115,"x_min":-14,"x_max":1129,"o":"m 0 0 m 607 810 l 607 568 q 772 606 676 606 l 794 606 q 994 557 931 604 q 1057 392 1057 510 q 994 226 1057 275 q 796 178 931 178 l 779 178 q 735 180 758 178 q 696 185 711 182 l 696 265 q 776 258 738 258 l 793 258 q 918 286 878 258 q 958 392 958 314 q 940 477 958 449 q 885 515 921 506 q 789 525 850 525 l 768 525 q 607 485 674 525 l 607 0 l 508 0 l 508 215 q 343 178 436 178 l 321 178 q 122 226 185 179 q 58 392 58 274 q 122 557 58 508 q 319 606 185 606 l 336 606 q 381 603 357 606 q 419 599 404 601 l 419 518 q 339 525 378 525 l 322 525 q 197 497 238 525 q 157 392 157 469 q 176 308 157 336 q 230 269 194 279 q 326 258 265 260 l 347 258 q 508 297 442 258 l 508 810 l -14 810 l -14 890 l 1129 890 l 1129 810 l 607 810 m 224 -4 l 311 83 l 399 -4 l 311 -90 l 224 -4 z "},"ख़":{"ha":1149,"x_min":-14,"x_max":1163,"o":"m 0 0 m 1163 810 l 1003 810 l 1003 0 l 904 0 l 904 254 q 776 233 849 233 l 751 233 q 533 419 533 233 q 588 560 533 514 q 726 606 643 606 l 743 606 q 815 599 778 606 l 815 519 q 750 525 782 525 l 733 525 q 659 502 688 525 q 631 419 631 479 q 661 335 631 356 q 760 314 692 314 l 783 314 q 904 335 851 314 l 904 810 l 468 810 l 468 549 q 403 393 468 438 q 199 349 338 349 l 190 349 l 190 271 q 237 121 190 163 q 397 79 283 79 l 626 79 l 626 0 l 397 0 q 172 58 250 0 q 93 271 93 115 l 93 596 l 190 596 l 190 429 l 199 429 q 296 438 260 429 q 351 472 332 446 q 371 549 371 497 l 371 810 l -14 810 l -14 890 l 1163 890 l 1163 810 m 56 -140 l 143 -53 l 231 -140 l 143 -226 l 56 -140 z "},"ग़":{"ha":833,"x_min":-14,"x_max":847,"o":"m 0 0 m 847 810 l 688 810 l 688 0 l 589 0 l 589 810 l 326 810 l 328 410 q 213 267 328 267 q 120 298 160 267 q 53 394 81 329 l 129 433 q 165 368 149 390 q 201 346 182 346 q 224 360 218 346 q 229 410 229 375 l 229 810 l -14 810 l -14 890 l 847 890 l 847 810 m 190 0 l 278 88 l 365 0 l 278 -86 l 190 0 z "},"ज़":{"ha":917,"x_min":-14,"x_max":931,"o":"m 0 0 m 931 890 l 931 810 l 771 810 l 771 0 l 672 0 l 672 511 l 521 511 l 521 406 q 471 213 521 274 q 293 153 421 153 q 120 215 172 153 q 68 406 68 276 l 68 592 l 164 592 l 164 403 q 192 274 164 315 q 293 232 221 232 q 397 272 371 232 q 424 403 424 313 l 424 592 l 672 592 l 672 810 l -14 810 l -14 890 l 931 890 m 207 -10 l 294 78 l 382 -10 l 294 -96 l 207 -10 z "},"ड़":{"ha":694,"x_min":-14,"x_max":708,"o":"m 0 0 m 299 554 q 213 536 240 554 q 185 469 185 518 q 195 417 185 439 q 222 383 206 394 l 396 383 q 573 336 511 383 q 635 192 635 289 q 572 44 635 94 q 396 -7 510 -7 l 378 -7 q 193 17 274 -7 q 39 86 113 40 l 78 161 q 217 95 147 117 q 375 74 288 74 l 394 74 q 499 101 461 74 q 536 183 536 128 q 501 276 536 249 q 396 304 467 304 l 174 304 q 115 374 143 328 q 86 474 86 419 q 138 597 86 560 q 299 635 190 635 l 447 635 l 447 810 l -14 810 l -14 890 l 708 890 l 708 810 l 546 810 l 546 579 l 538 579 l 538 554 l 299 554 m 288 -149 l 375 -61 l 463 -149 l 375 -235 l 288 -149 z "},"ढ़":{"ha":711,"x_min":-14,"x_max":725,"o":"m 0 0 m 371 565 q 260 547 303 565 q 195 481 218 529 q 172 342 172 432 q 193 201 172 250 q 253 135 214 153 q 357 118 292 118 l 383 118 q 518 147 475 118 q 563 244 561 175 l 563 288 q 548 335 563 321 q 500 350 533 350 q 451 335 467 350 q 436 288 436 321 l 436 225 l 343 225 l 343 292 q 381 394 343 360 q 503 428 418 428 q 622 392 585 428 q 660 288 660 356 l 660 244 q 592 88 660 139 q 383 38 524 38 l 357 38 q 143 106 211 38 q 75 342 75 175 q 147 576 75 507 q 371 646 219 646 l 468 646 l 468 810 l -14 810 l -14 890 l 725 890 l 725 810 l 565 810 l 565 565 l 371 565 m 285 -121 l 372 -33 l 460 -121 l 372 -207 l 285 -121 z "},"फ़":{"ha":1119,"x_min":-14,"x_max":1133,"o":"m 0 0 m 611 810 l 611 568 q 778 606 683 606 l 799 606 q 998 557 935 604 q 1061 392 1061 510 q 998 226 1061 275 q 801 178 935 178 l 785 178 q 740 180 764 178 q 701 185 717 182 l 701 265 q 782 258 740 258 l 799 258 q 922 286 882 258 q 963 392 963 314 q 944 477 963 449 q 890 515 925 506 q 794 525 854 525 l 772 525 q 611 485 678 525 l 611 0 l 513 0 l 513 332 q 354 288 442 288 q 176 342 235 288 q 118 531 118 396 l 118 810 l -14 810 l -14 890 l 1133 890 l 1133 810 l 611 810 m 361 368 q 513 418 450 368 l 513 810 l 217 810 l 217 531 q 249 404 217 440 q 361 368 281 368 m 100 129 l 188 217 l 275 129 l 188 43 l 100 129 z "},"य़":{"ha":817,"x_min":-14,"x_max":831,"o":"m 0 0 m 831 890 l 831 810 l 671 810 l 671 0 l 574 0 l 574 278 q 478 243 528 254 q 389 232 428 232 q 253 251 308 232 q 157 316 199 269 q 81 447 115 363 q 226 533 186 489 q 267 642 267 576 q 215 810 267 724 l -14 810 l -14 890 l 831 890 m 389 311 q 574 368 479 311 l 574 810 l 311 810 q 350 719 336 765 q 364 639 364 672 q 325 506 364 561 q 199 407 286 451 q 276 331 229 351 q 389 311 324 311 m 93 83 l 181 171 l 268 83 l 181 -3 l 93 83 z "},"ॹ":{"ha":917,"x_min":-14,"x_max":931,"o":"m 0 0 m 931 890 l 931 810 l 771 810 l 771 0 l 672 0 l 672 511 l 521 511 l 521 406 q 471 213 521 274 q 293 153 421 153 q 120 215 172 153 q 68 406 68 276 l 68 592 l 164 592 l 164 403 q 192 274 164 315 q 293 232 221 232 q 397 272 371 232 q 424 403 424 313 l 424 592 l 672 592 l 672 810 l -14 810 l -14 890 l 931 890 m 67 11 l 154 99 l 242 11 l 154 -75 l 67 11 m 207 -126 l 294 -39 l 382 -126 l 294 -212 l 207 -126 m 349 11 l 436 99 l 524 11 l 436 -75 l 349 11 z "},"ॺ":{"ha":806,"x_min":-14,"x_max":831,"o":"m 831 890 l 831 810 l 671 810 l 671 0 l 574 0 l 574 278 q 478 243 528 254 q 389 232 428 232 q 253 251 308 232 q 157 316 199 269 q 81 447 115 363 q 226 533 186 489 q 267 642 267 576 q 215 810 267 724 l -14 810 l -14 890 l 831 890 m 574 810 l 319 810 l 574 472 l 574 810 m 199 407 q 276 331 229 351 q 389 311 324 311 q 568 364 478 311 l 364 635 q 325 506 364 560 q 199 407 286 451 z "},"ॻ":{"ha":833,"x_min":-14,"x_max":847,"o":"m 847 810 l 688 810 l 688 0 l 664 0 l 664 -18 l 69 -18 l 69 61 l 589 61 l 589 810 l 326 810 l 328 410 q 213 267 328 267 q 120 298 160 267 q 53 394 81 329 l 129 433 q 165 368 149 390 q 201 346 182 346 q 224 360 218 346 q 229 410 229 375 l 229 810 l -14 810 l -14 890 l 847 890 l 847 810 z "},"ॼ":{"ha":871,"x_min":-14,"x_max":931,"o":"m 931 890 l 931 810 l 771 810 l 771 0 l 740 0 l 740 -18 l 69 -18 l 69 61 l 672 61 l 672 511 l 521 511 l 521 406 q 471 213 521 274 q 293 153 421 153 q 120 215 172 153 q 68 406 68 276 l 68 592 l 164 592 l 164 403 q 192 274 164 315 q 293 232 221 232 q 397 272 371 232 q 424 403 424 313 l 424 592 l 672 592 l 672 810 l -14 810 l -14 890 l 931 890 z "},"ॾ":{"ha":694,"x_min":-14,"x_max":708,"o":"m 299 554 q 213 536 240 554 q 185 469 185 518 q 195 417 185 439 q 222 383 206 394 l 396 383 q 573 336 511 383 q 635 192 635 289 q 572 44 635 94 q 396 -7 510 -7 l 378 -7 q 193 17 274 -7 q 39 86 113 40 l 78 161 q 217 95 147 117 q 375 74 288 74 l 394 74 q 499 101 461 74 q 536 183 536 128 q 501 276 536 249 q 396 304 467 304 l 174 304 q 115 374 143 328 q 86 474 86 419 q 138 597 86 560 q 299 635 190 635 l 447 635 l 447 810 l -14 810 l -14 890 l 708 890 l 708 810 l 546 810 l 546 579 l 538 579 l 538 554 l 299 554 m 69 -106 l 625 -106 l 625 -185 l 69 -185 l 69 -106 z "},"ॿ":{"ha":753,"x_min":-14,"x_max":767,"o":"m 767 890 l 767 810 l 607 810 l 607 0 l 578 0 l 578 -29 l 69 -29 l 69 51 l 508 51 l 508 215 q 343 178 436 178 l 321 178 q 122 226 185 179 q 58 392 58 274 q 122 557 58 508 q 319 606 185 606 l 336 606 q 381 603 357 606 q 419 599 404 601 l 419 518 q 339 525 378 525 l 322 525 q 254 521 283 525 l 467 278 q 508 297 481 283 l 508 810 l -14 810 l -14 890 l 767 890 m 347 258 q 399 261 382 258 l 193 494 q 157 392 157 465 q 176 308 157 336 q 230 269 194 279 q 326 258 265 260 l 347 258 z "},"⁄":{"ha":549,"x_min":-65,"x_max":614,"o":"m 514 1074 l 614 1074 l 35 -46 l -65 -46 l 514 1074 z "},"½":{"ha":1461,"x_min":111,"x_max":1414,"o":"m 111 0 m 431 268 l 431 182 l 111 182 l 111 268 l 226 268 l 226 849 l 131 849 l 131 935 l 315 935 l 315 268 l 431 268 m 983 1074 l 1083 1074 l 504 -46 l 404 -46 l 983 1074 m 981 117 q 1169 334 1103 253 q 1269 478 1236 415 q 1303 596 1303 542 q 1271 683 1303 653 q 1178 714 1239 714 q 1004 672 1088 714 l 1004 760 q 1178 797 1089 797 q 1336 746 1278 797 q 1394 599 1394 694 q 1357 462 1394 533 q 1265 322 1319 390 q 1113 146 1210 254 l 1086 117 l 1414 117 l 1414 31 l 981 31 l 981 117 z "},"¼":{"ha":1382,"x_min":111,"x_max":1368,"o":"m 111 0 m 431 268 l 431 182 l 111 182 l 111 268 l 226 268 l 226 849 l 131 849 l 131 935 l 315 935 l 315 268 l 431 268 m 983 1074 l 1083 1074 l 504 -46 l 404 -46 l 983 1074 m 1368 215 l 1268 215 l 1268 31 l 1179 31 l 1179 215 l 865 215 l 865 299 l 1183 796 l 1268 796 l 1268 299 l 1368 299 l 1368 215 m 1179 299 l 1179 647 l 954 299 l 1179 299 z "},"¾":{"ha":1376,"x_min":75,"x_max":1363,"o":"m 75 0 m 346 579 q 445 507 411 556 q 479 396 479 458 q 414 226 479 286 q 236 167 349 167 q 75 194 149 167 l 75 282 q 233 250 150 250 q 344 288 301 250 q 386 399 386 326 q 340 501 386 465 q 207 536 293 536 l 154 536 l 154 622 l 207 622 q 333 656 290 622 q 376 753 376 689 q 340 835 376 806 q 236 865 304 865 q 85 838 156 865 l 85 924 q 236 949 156 949 q 410 897 351 949 q 469 753 469 844 q 346 579 469 632 m 976 1074 l 1076 1074 l 497 -46 l 397 -46 l 976 1074 m 1363 215 l 1263 215 l 1263 31 l 1174 31 l 1174 215 l 860 215 l 860 299 l 1178 796 l 1263 796 l 1263 299 l 1363 299 l 1363 215 m 1174 299 l 1174 647 l 949 299 l 1174 299 z "},"¹":{"ha":542,"x_min":111,"x_max":431,"o":"m 431 268 l 431 182 l 111 182 l 111 268 l 226 268 l 226 849 l 131 849 l 131 935 l 315 935 l 315 268 l 431 268 z "},"²":{"ha":542,"x_min":61,"x_max":494,"o":"m 61 268 q 250 485 183 404 q 350 630 317 567 q 383 747 383 693 q 351 835 383 804 q 258 865 319 865 q 85 824 168 865 l 85 911 q 258 949 169 949 q 417 897 358 949 q 475 750 475 846 q 438 613 475 685 q 345 474 400 542 q 193 297 290 406 l 167 268 l 494 268 l 494 182 l 61 182 l 61 268 z "},"³":{"ha":542,"x_min":75,"x_max":479,"o":"m 346 579 q 445 507 411 556 q 479 396 479 458 q 414 226 479 286 q 236 167 349 167 q 75 194 149 167 l 75 282 q 233 250 150 250 q 344 288 301 250 q 386 399 386 326 q 340 501 386 465 q 207 536 293 536 l 154 536 l 154 622 l 207 622 q 333 656 290 622 q 376 753 376 689 q 340 835 376 806 q 236 865 304 865 q 85 838 156 865 l 85 924 q 236 949 156 949 q 410 897 351 949 q 469 753 469 844 q 346 579 469 632 z "},"०":{"ha":886,"x_min":126,"x_max":760,"o":"m 443 165 q 274 205 346 165 q 165 313 203 244 q 126 465 126 382 q 165 617 126 549 q 274 726 203 686 q 443 765 346 765 q 612 726 540 765 q 722 617 683 686 q 760 465 760 549 q 722 313 760 382 q 612 205 683 244 q 443 165 540 165 m 443 244 q 603 308 546 244 q 661 465 661 371 q 603 623 661 560 q 443 686 546 686 q 283 623 340 686 q 225 465 225 560 q 283 308 225 371 q 443 244 340 244 z "},"१":{"ha":667,"x_min":90,"x_max":596,"o":"m 596 653 q 555 490 596 564 q 444 365 514 415 q 289 293 375 314 l 514 32 l 450 -24 l 190 279 q 174 278 185 278 l 90 278 l 90 358 l 174 358 q 333 394 260 358 q 452 496 407 429 q 497 653 497 563 q 465 792 497 753 q 351 831 433 831 q 242 790 278 831 q 204 653 206 749 l 204 600 l 106 600 l 106 653 q 166 845 107 781 q 351 910 225 910 q 538 846 481 910 q 596 653 596 782 z "},"२":{"ha":686,"x_min":122,"x_max":635,"o":"m 635 79 l 635 0 l 551 0 q 200 368 200 0 l 200 396 l 122 396 l 122 476 l 240 476 q 409 512 354 476 q 465 643 464 547 q 409 774 464 739 q 240 810 354 810 l 122 810 l 122 890 l 240 890 q 483 833 406 890 q 563 643 561 776 q 497 465 561 522 q 297 399 432 407 l 297 368 q 367 141 299 203 q 551 79 435 79 l 635 79 z "},"३":{"ha":672,"x_min":103,"x_max":614,"o":"m 422 494 q 564 414 514 469 q 614 281 614 358 q 538 98 614 158 q 335 38 461 38 q 199 56 260 38 l 199 -57 l 103 -57 l 103 269 l 199 269 l 199 140 q 335 117 260 117 q 467 155 417 117 q 518 282 518 193 q 450 401 518 361 q 249 442 382 442 l 181 442 l 181 521 l 250 521 q 389 565 343 521 q 435 678 435 608 q 387 781 435 753 q 239 810 339 810 l 118 810 l 118 890 l 239 890 q 459 842 388 890 q 531 682 531 793 q 422 494 531 554 z "},"४":{"ha":797,"x_min":96,"x_max":701,"o":"m 701 822 q 681 666 701 725 q 624 572 660 607 q 524 494 589 536 l 472 460 q 596 350 553 407 q 639 204 639 293 q 573 40 639 104 q 399 -24 507 -24 q 224 40 290 -24 q 158 204 158 104 q 203 346 158 286 q 326 460 249 406 l 274 494 q 172 574 208 536 q 115 672 135 613 q 96 822 96 731 l 96 890 l 193 890 l 193 822 q 207 688 193 735 q 252 612 221 642 q 356 536 283 582 l 399 507 l 442 536 q 542 610 510 579 q 589 690 574 642 q 604 822 604 738 l 604 890 l 701 890 l 701 822 m 542 204 q 506 319 542 274 q 400 413 471 364 q 293 317 331 364 q 256 204 256 269 q 295 94 256 131 q 399 57 335 57 q 502 94 463 57 q 542 204 542 131 z "},"५":{"ha":794,"x_min":142,"x_max":653,"o":"m 653 725 l 653 217 q 577 36 653 96 q 374 -24 501 -24 q 185 13 267 -24 l 164 111 q 259 70 211 85 q 369 56 307 56 q 504 94 453 56 q 556 224 556 133 l 556 389 q 474 349 515 363 q 382 335 433 335 q 201 389 260 335 q 142 578 142 443 l 142 890 l 239 890 l 239 578 q 272 451 239 488 q 385 415 304 415 q 481 432 442 415 q 556 478 519 449 l 556 724 l 653 725 z "},"६":{"ha":704,"x_min":82,"x_max":632,"o":"m 632 318 l 632 -14 l 535 -14 l 535 121 q 414 104 475 104 l 389 104 q 190 164 257 106 q 122 331 122 222 q 217 522 122 465 q 115 586 149 542 q 82 707 82 631 q 153 863 82 817 q 376 908 224 908 l 401 908 q 506 897 461 908 l 506 814 q 401 828 460 828 l 376 828 q 226 802 272 828 q 179 701 179 776 q 204 619 179 647 q 275 583 229 592 q 399 574 321 574 l 429 574 l 429 564 l 453 564 l 453 493 l 389 493 q 263 453 307 493 q 219 332 219 413 q 389 185 219 188 l 414 185 q 535 204 482 185 l 535 318 l 632 318 z "},"७":{"ha":819,"x_min":121,"x_max":699,"o":"m 410 35 q 246 67 308 35 q 152 178 183 99 q 121 400 121 258 l 121 890 l 219 890 l 219 401 q 240 220 219 282 q 301 136 261 158 q 410 114 342 114 q 517 136 476 114 q 578 221 557 158 q 600 401 600 283 l 600 779 q 591 819 600 807 q 557 831 582 831 q 522 819 532 831 q 513 779 513 807 l 513 636 l 414 636 l 414 782 q 447 876 414 843 q 557 908 481 908 q 665 876 632 908 q 699 782 699 843 l 699 400 q 666 179 699 260 q 570 67 633 99 q 410 35 507 35 z "},"८":{"ha":654,"x_min":54,"x_max":592,"o":"m 493 0 q 163 87 272 0 q 54 321 54 174 q 85 467 54 400 q 172 597 117 535 q 318 738 228 658 l 529 921 l 592 850 l 381 667 q 251 545 299 596 q 178 440 204 494 q 151 321 151 385 q 235 142 151 206 q 493 79 319 79 l 572 79 l 572 0 l 493 0 z "},"९":{"ha":724,"x_min":57,"x_max":690,"o":"m 411 186 l 378 215 q 207 376 269 313 q 101 515 144 440 q 57 668 57 590 q 129 849 57 789 q 333 908 201 908 q 506 849 444 908 q 567 668 567 789 l 567 581 l 468 581 l 468 668 q 432 791 468 754 q 331 828 396 828 q 201 791 247 828 q 156 668 156 754 q 188 549 156 606 q 272 441 221 492 q 417 307 322 390 q 475 256 456 274 l 690 63 l 626 -7 l 411 186 z "},"*":{"ha":858,"x_min":107,"x_max":751,"o":"m 494 865 l 751 735 l 704 653 l 461 808 l 476 521 l 382 521 l 397 808 l 154 653 l 107 735 l 365 865 l 107 997 l 154 1079 l 397 922 l 382 1211 l 476 1211 l 461 922 l 704 1079 l 751 997 l 494 865 z "},"\\":{"ha":561,"x_min":11,"x_max":549,"o":"m 11 1293 l 117 1293 l 549 -246 l 443 -246 l 11 1293 z "},"·":{"ha":394,"x_min":139,"x_max":256,"o":"m 139 581 l 256 581 l 256 364 l 139 364 l 139 581 z "},"•":{"ha":482,"x_min":78,"x_max":404,"o":"m 242 365 q 126 413 174 365 q 78 529 78 461 q 126 644 78 597 q 242 692 174 692 q 358 645 311 692 q 404 529 404 599 q 357 413 404 461 q 242 365 310 365 z "},":":{"ha":394,"x_min":139,"x_max":256,"o":"m 139 0 m 139 217 l 256 217 l 256 0 l 139 0 l 139 217 m 139 765 l 256 765 l 256 549 l 139 549 l 139 765 z "},",":{"ha":394,"x_min":93,"x_max":288,"o":"m 176 217 l 288 217 l 192 -210 l 93 -210 l 176 217 z "},"…":{"ha":1183,"x_min":139,"x_max":1044,"o":"m 139 217 l 256 217 l 256 0 l 139 0 l 139 217 m 533 217 l 650 217 l 650 0 l 533 0 l 533 217 m 1044 217 l 1044 0 l 928 0 l 928 217 l 1044 217 z "},"!":{"ha":394,"x_min":133,"x_max":261,"o":"m 133 1053 l 261 1053 l 242 319 l 153 319 l 133 1053 m 139 214 l 256 214 l 256 0 l 139 0 l 139 214 z "},"¡":{"ha":394,"x_min":133,"x_max":261,"o":"m 139 1053 l 256 1053 l 256 839 l 139 839 l 139 1053 m 153 733 l 242 733 l 261 0 l 133 0 l 153 733 z "},"#":{"ha":976,"x_min":83,"x_max":892,"o":"m 728 596 l 694 340 l 850 340 l 850 243 l 682 243 l 650 0 l 550 0 l 581 243 l 336 243 l 304 0 l 204 0 l 235 243 l 83 243 l 83 340 l 247 340 l 281 596 l 125 596 l 125 693 l 293 693 l 325 936 l 425 936 l 394 693 l 639 693 l 671 936 l 771 936 l 740 693 l 892 693 l 892 596 l 728 596 m 626 596 l 382 596 l 349 340 l 593 340 l 626 596 z "},".":{"ha":394,"x_min":139,"x_max":256,"o":"m 139 217 l 256 217 l 256 0 l 139 0 l 139 217 z "},"?":{"ha":753,"x_min":110,"x_max":646,"o":"m 289 378 q 305 476 289 436 q 346 544 321 517 q 417 613 371 572 l 460 649 q 520 720 503 688 q 538 799 538 753 q 488 930 538 883 q 351 976 438 976 q 110 919 224 976 l 110 1021 q 356 1072 225 1072 q 565 1002 483 1072 q 646 803 646 932 q 617 678 646 728 q 536 583 589 629 l 497 550 q 435 490 456 513 q 405 441 415 468 q 394 374 394 414 l 394 319 l 289 319 l 289 378 m 283 214 l 400 214 l 400 0 l 283 0 l 283 214 z "},"¿":{"ha":753,"x_min":107,"x_max":643,"o":"m 426 878 l 396 878 l 396 1014 l 426 1014 l 426 878 m 397 -19 q 188 51 269 -19 q 107 250 107 121 q 135 374 107 325 q 217 471 163 424 l 256 504 q 317 563 297 542 q 348 612 338 585 q 358 679 358 639 l 358 733 l 464 733 l 464 675 q 449 577 464 617 q 408 510 433 538 q 336 440 383 482 l 293 404 q 233 333 250 365 q 215 254 215 300 q 265 123 215 169 q 401 76 315 76 q 643 133 529 76 l 643 32 q 397 -19 528 -19 z "},"\"":{"ha":631,"x_min":147,"x_max":483,"o":"m 147 633 m 147 1053 l 247 1053 l 247 633 l 147 633 l 147 1053 m 383 1053 l 483 1053 l 483 633 l 383 633 l 383 1053 z "},"'":{"ha":394,"x_min":147,"x_max":247,"o":"m 147 1053 l 247 1053 l 247 633 l 147 633 l 147 1053 z "},";":{"ha":394,"x_min":93,"x_max":288,"o":"m 93 0 m 176 217 l 288 217 l 192 -210 l 93 -210 l 176 217 m 139 765 l 256 765 l 256 549 l 139 549 l 139 765 z "},"/":{"ha":561,"x_min":11,"x_max":549,"o":"m 443 1293 l 549 1293 l 117 -246 l 11 -246 l 443 1293 z "},"_":{"ha":694,"x_min":0,"x_max":694,"o":"m 0 -107 l 694 -107 l 694 -206 l 0 -206 l 0 -107 z "},"{":{"ha":469,"x_min":60,"x_max":418,"o":"m 269 693 q 249 557 269 599 q 174 499 229 515 q 249 438 228 481 q 269 304 269 396 l 269 21 q 288 -60 269 -39 q 354 -81 306 -81 q 418 -75 390 -81 l 418 -174 q 354 -179 386 -179 q 244 -163 285 -179 q 183 -108 203 -147 q 164 0 164 -69 l 164 297 q 157 394 164 361 q 133 438 150 426 q 81 450 115 450 l 60 450 l 60 547 l 81 547 q 133 559 115 547 q 157 603 150 571 q 164 700 164 636 l 164 997 q 183 1106 164 1067 q 244 1160 203 1144 q 354 1176 285 1176 q 418 1171 386 1176 l 418 1072 q 354 1078 390 1078 q 288 1057 306 1078 q 269 976 269 1036 l 269 693 z "},"}":{"ha":450,"x_min":32,"x_max":390,"o":"m 32 0 m 181 693 q 201 557 181 599 q 276 499 221 515 q 201 438 222 481 q 181 304 181 396 l 181 21 q 163 -60 181 -39 q 96 -81 144 -81 q 32 -75 60 -81 l 32 -174 q 96 -179 64 -179 q 206 -163 165 -179 q 267 -108 247 -147 q 286 0 286 -69 l 286 297 q 293 394 286 361 q 317 438 300 426 q 369 450 335 450 l 390 450 l 390 547 l 369 547 q 317 559 335 547 q 293 603 300 571 q 286 700 286 636 l 286 997 q 267 1106 286 1067 q 206 1160 247 1144 q 96 1176 165 1176 q 32 1171 64 1176 l 32 1072 q 96 1078 60 1078 q 163 1057 144 1078 q 181 976 181 1036 l 181 693 z "},"[":{"ha":454,"x_min":153,"x_max":378,"o":"m 378 -81 l 378 -179 l 153 -179 l 153 1176 l 371 1176 l 371 1078 l 258 1078 l 258 -81 l 378 -81 z "},"]":{"ha":454,"x_min":78,"x_max":301,"o":"m 301 -179 l 78 -179 l 78 -81 l 196 -81 l 196 1078 l 82 1078 l 82 1176 l 301 1176 l 301 -179 z "},"(":{"ha":467,"x_min":78,"x_max":393,"o":"m 322 -179 q 151 94 225 -67 q 78 499 78 254 q 151 903 78 743 q 322 1176 225 1064 l 393 1125 q 299 979 342 1056 q 223 780 257 903 q 189 499 189 657 q 223 217 189 340 q 299 18 257 94 q 393 -128 342 -58 l 322 -179 z "},")":{"ha":467,"x_min":74,"x_max":389,"o":"m 74 -128 q 167 18 125 -58 q 244 217 210 94 q 278 499 278 340 q 244 780 278 657 q 167 979 210 903 q 74 1125 125 1056 l 144 1176 q 315 903 242 1064 q 389 499 389 743 q 315 94 389 254 q 144 -179 242 -67 l 74 -128 z "},"—":{"ha":1389,"x_min":174,"x_max":1215,"o":"m 174 460 l 1215 460 l 1215 363 l 174 363 l 174 460 z "},"–":{"ha":694,"x_min":0,"x_max":694,"o":"m 0 460 l 694 460 l 694 363 l 0 363 l 0 460 z "},"-":{"ha":631,"x_min":111,"x_max":519,"o":"m 111 461 l 519 461 l 519 361 l 111 361 l 111 461 z "},"«":{"ha":1029,"x_min":160,"x_max":864,"o":"m 508 47 m 606 375 l 864 114 l 794 47 l 508 336 l 508 414 l 794 703 l 864 636 l 606 375 m 257 375 l 515 114 l 446 47 l 160 336 l 160 414 l 446 703 l 515 636 l 257 375 z "},"»":{"ha":1029,"x_min":165,"x_max":869,"o":"m 165 47 m 424 375 l 165 114 l 235 47 l 521 336 l 521 414 l 235 703 l 165 636 l 424 375 m 772 375 l 514 114 l 583 47 l 869 336 l 869 414 l 583 703 l 514 636 l 772 375 z "},"‹":{"ha":681,"x_min":160,"x_max":515,"o":"m 257 375 l 515 114 l 446 47 l 160 336 l 160 414 l 446 703 l 515 636 l 257 375 z "},"›":{"ha":681,"x_min":165,"x_max":521,"o":"m 165 47 m 424 375 l 165 114 l 235 47 l 521 336 l 521 414 l 235 703 l 165 636 l 424 375 z "},"„":{"ha":635,"x_min":93,"x_max":528,"o":"m 176 217 l 288 217 l 192 -210 l 93 -210 l 176 217 m 528 217 l 432 -210 l 333 -210 l 417 217 l 528 217 z "},"“":{"ha":635,"x_min":107,"x_max":542,"o":"m 206 1053 l 301 626 l 190 626 l 107 1053 l 206 1053 m 542 626 l 431 626 l 347 1053 l 446 1053 l 542 626 z "},"”":{"ha":635,"x_min":93,"x_max":528,"o":"m 93 626 m 176 1053 l 288 1053 l 192 626 l 93 626 l 176 1053 m 417 1053 l 528 1053 l 432 626 l 333 626 l 417 1053 z "},"‘":{"ha":394,"x_min":107,"x_max":301,"o":"m 107 626 m 190 626 l 301 626 l 206 1053 l 107 1053 l 190 626 z "},"’":{"ha":394,"x_min":93,"x_max":288,"o":"m 93 626 m 176 1053 l 288 1053 l 192 626 l 93 626 l 176 1053 z "},"‚":{"ha":394,"x_min":93,"x_max":288,"o":"m 93 0 m 176 217 l 288 217 l 192 -210 l 93 -210 l 176 217 z "},"ॽ":{"ha":629,"x_min":122,"x_max":563,"o":"m 563 636 q 493 449 563 511 q 276 382 424 386 l 276 0 l 179 0 l 179 461 l 254 461 q 415 502 364 461 q 465 636 465 543 q 408 769 465 728 q 240 810 351 810 l 122 810 l 122 890 l 240 890 q 482 828 401 890 q 563 636 563 765 z "},"।":{"ha":633,"x_min":386,"x_max":483,"o":"m 386 881 l 483 881 l 483 0 l 386 0 l 386 881 z "},"॥":{"ha":986,"x_min":386,"x_max":844,"o":"m 386 0 m 386 881 l 483 881 l 483 0 l 386 0 l 386 881 m 747 881 l 844 881 l 844 0 l 747 0 l 747 881 z "},"॰":{"ha":640,"x_min":96,"x_max":544,"o":"m 321 163 q 208 191 260 163 q 126 270 156 219 q 96 385 96 321 q 126 499 96 449 q 208 578 156 550 q 321 606 260 606 q 433 578 382 606 q 515 499 485 550 q 544 385 544 449 q 515 270 544 321 q 433 191 485 219 q 321 163 382 163 m 321 240 q 414 282 378 240 q 450 385 450 324 q 414 487 450 446 q 321 528 378 528 q 227 487 264 528 q 190 385 190 446 q 227 282 190 324 q 321 240 264 240 z "},"ॱ":{"ha":381,"x_min":103,"x_max":278,"o":"m 103 850 l 190 938 l 278 850 l 190 764 l 103 850 z "}," ":{"ha":306,"x_min":0,"x_max":0,"o":""},"‍":{"ha":0,"x_min":0,"x_max":0,"o":""},"":{"ha":833,"x_min":0,"x_max":0,"o":""},"¢":{"ha":764,"x_min":86,"x_max":715,"o":"m 715 42 q 506 -21 615 -10 l 506 -133 l 407 -133 l 407 -21 q 169 101 253 -6 q 86 381 86 208 q 169 656 86 550 q 407 778 253 763 l 407 890 l 506 890 l 506 779 q 656 743 574 774 l 656 639 q 506 681 583 674 l 506 78 q 681 132 589 88 l 715 42 m 193 382 q 244 176 193 257 q 407 78 296 94 l 407 679 q 244 583 296 663 q 193 382 193 504 z "},"¤":{"ha":764,"x_min":56,"x_max":708,"o":"m 60 199 l 172 314 q 121 467 121 381 q 169 617 121 550 l 56 732 l 114 792 l 229 676 q 378 724 299 724 q 535 671 464 724 l 650 785 l 708 725 l 592 608 q 636 467 636 542 q 588 317 636 383 l 703 203 l 642 143 l 528 258 q 378 210 460 210 q 233 256 297 210 l 118 139 l 60 199 m 378 290 q 463 314 424 290 q 524 378 501 338 q 547 467 547 419 q 524 555 547 514 q 463 619 501 596 q 378 643 424 643 q 259 592 308 643 q 210 467 210 540 q 259 342 210 393 q 378 290 308 290 z "},"$":{"ha":822,"x_min":74,"x_max":703,"o":"m 703 239 q 630 58 701 126 q 431 -22 558 -11 l 431 -133 l 332 -133 l 332 -22 q 201 1 263 -17 q 74 50 140 18 l 74 151 q 332 74 200 85 l 332 424 l 321 428 q 149 515 211 458 q 86 689 86 572 q 151 876 86 808 q 338 954 217 943 l 338 1053 l 436 1053 l 436 953 q 542 933 494 947 q 650 889 590 918 l 650 789 q 436 857 543 846 l 436 506 l 467 497 q 642 410 581 467 q 703 239 703 353 m 193 690 q 231 590 194 625 q 338 533 267 556 l 338 858 q 228 805 264 850 q 193 690 193 760 m 596 239 q 552 338 596 303 q 431 396 508 374 l 431 74 q 556 127 517 83 q 596 239 596 171 z "},"€":{"ha":764,"x_min":68,"x_max":669,"o":"m 669 50 q 563 -7 614 10 q 446 -24 513 -24 q 156 314 197 -24 l 69 314 l 103 406 l 149 406 q 147 467 147 425 q 149 529 147 508 l 68 529 l 103 619 l 156 619 q 450 956 200 956 q 639 897 556 956 l 601 810 q 531 845 569 831 q 453 860 492 860 q 264 619 299 860 l 556 619 l 522 529 l 257 529 q 256 467 256 508 q 257 406 256 425 l 476 406 l 442 314 l 264 314 q 453 72 299 72 q 541 88 503 72 q 629 138 579 103 l 669 50 z "},"ƒ":{"ha":764,"x_min":161,"x_max":592,"o":"m 525 1094 q 460 1075 476 1094 q 438 999 443 1056 l 413 758 l 567 758 l 549 660 l 401 660 l 300 -325 l 197 -325 l 299 660 l 161 660 l 161 758 l 308 758 l 335 1007 q 363 1120 343 1081 q 421 1176 382 1160 q 531 1193 460 1193 q 592 1188 563 1193 l 592 1089 q 525 1094 563 1094 z "},"₹":{"ha":764,"x_min":93,"x_max":672,"o":"m 511 810 l 511 679 l 672 679 l 672 600 l 511 600 l 511 539 q 444 383 511 428 q 235 338 378 339 l 235 271 q 256 151 235 194 q 321 90 276 108 q 442 71 365 71 l 592 71 l 592 -10 l 442 -10 q 216 50 294 -10 q 138 271 138 110 l 138 489 l 235 489 l 235 417 q 335 427 299 418 q 392 462 372 436 q 413 539 413 488 l 413 600 l 93 600 l 93 679 l 413 679 l 413 810 l 93 810 l 93 890 l 672 890 l 672 810 l 511 810 z "},"£":{"ha":764,"x_min":63,"x_max":701,"o":"m 701 99 l 701 0 l 63 0 l 63 99 l 194 99 l 194 439 l 104 439 l 104 536 l 194 536 l 194 683 q 219 847 194 789 q 301 931 244 906 q 456 956 357 956 q 534 950 493 956 q 603 931 575 944 l 603 828 q 531 851 567 846 q 457 857 496 857 q 359 842 393 857 q 311 788 325 826 q 297 678 297 750 l 297 536 l 536 536 l 536 439 l 297 439 l 297 99 l 701 99 z "},"¥":{"ha":764,"x_min":13,"x_max":753,"o":"m 481 483 l 639 483 l 639 392 l 435 392 l 435 268 l 639 268 l 639 176 l 435 176 l 435 0 l 329 0 l 329 176 l 125 176 l 125 268 l 329 268 l 329 392 l 125 392 l 125 483 l 283 483 l 13 936 l 122 936 l 382 494 l 643 936 l 753 936 l 481 483 z "},"≈":{"ha":764,"x_min":81,"x_max":683,"o":"m 489 501 q 425 515 453 501 q 364 553 397 528 q 315 585 335 575 q 271 594 294 594 q 202 574 232 594 q 128 515 172 554 l 81 579 q 176 660 132 631 q 269 689 219 689 q 337 675 308 689 q 399 635 365 661 q 444 604 425 614 q 486 594 464 594 q 559 615 528 594 q 633 675 590 635 l 681 611 q 585 529 626 557 q 489 501 543 501 m 490 224 q 428 237 454 224 q 365 275 401 250 q 317 306 338 296 q 274 317 297 317 q 203 297 235 317 q 131 238 172 276 l 82 301 q 176 382 132 353 q 272 411 221 411 q 340 397 311 411 q 401 357 368 383 q 447 326 428 336 q 489 317 467 317 q 562 337 531 317 q 636 397 593 357 l 683 333 q 587 251 629 279 q 490 224 544 224 z "},"~":{"ha":764,"x_min":58,"x_max":706,"o":"m 513 378 q 434 395 467 378 q 363 444 401 413 q 309 483 331 471 q 261 496 288 496 q 187 473 219 496 q 107 404 154 450 l 58 468 q 153 558 108 526 q 260 589 199 589 q 341 572 308 589 q 414 522 374 556 q 464 487 443 499 q 511 475 485 475 q 585 494 554 475 q 658 550 617 513 l 706 489 q 614 407 658 436 q 513 378 569 378 z "},"÷":{"ha":764,"x_min":93,"x_max":671,"o":"m 93 54 m 324 271 l 440 271 l 440 54 l 324 54 l 324 271 m 93 517 l 671 517 l 671 419 l 93 419 l 93 517 m 324 885 l 440 885 l 440 668 l 324 668 l 324 885 z "},"=":{"ha":764,"x_min":93,"x_max":671,"o":"m 93 656 l 671 656 l 671 558 l 93 558 l 93 656 m 93 378 l 671 378 l 671 281 l 93 281 l 93 378 z "},">":{"ha":764,"x_min":111,"x_max":671,"o":"m 111 125 m 553 467 l 111 207 l 161 125 l 671 426 l 671 508 l 160 811 l 111 726 l 553 467 z "},"≥":{"ha":764,"x_min":90,"x_max":671,"o":"m 90 0 m 547 460 l 90 236 l 107 142 l 671 421 l 671 497 l 107 779 l 90 685 l 547 460 m 671 99 l 93 99 l 93 0 l 671 0 l 671 99 z "},"∆":{"ha":988,"x_min":36,"x_max":951,"o":"m 951 0 l 36 0 l 439 1065 l 547 1065 l 951 0 m 803 99 l 493 918 l 183 99 l 803 99 z "},"∞":{"ha":764,"x_min":32,"x_max":732,"o":"m 532 681 q 677 621 622 681 q 732 467 732 561 q 677 311 732 371 q 532 251 622 251 q 434 279 476 251 q 368 356 392 307 q 306 294 344 317 q 221 272 268 272 q 85 327 139 272 q 32 467 32 382 q 85 606 32 551 q 221 661 139 661 q 306 639 268 661 q 368 578 344 617 q 435 653 393 625 q 532 681 478 681 m 529 338 q 611 373 581 338 q 642 467 642 408 q 611 560 642 525 q 529 594 581 594 q 446 560 476 594 q 415 467 415 525 q 446 373 415 408 q 529 338 476 338 m 224 358 q 297 387 269 358 q 325 467 325 415 q 297 547 325 518 q 224 575 269 575 q 150 547 178 575 q 122 467 122 518 q 150 387 122 415 q 224 358 178 358 z "},"∫":{"ha":764,"x_min":178,"x_max":586,"o":"m 514 1193 q 586 1185 547 1193 l 586 1089 q 519 1094 558 1094 q 451 1074 469 1094 q 433 997 433 1054 l 433 -128 q 417 -261 433 -214 q 360 -328 400 -308 q 250 -349 321 -349 q 178 -340 218 -349 l 178 -244 q 244 -250 206 -250 q 297 -238 279 -250 q 323 -197 315 -226 q 331 -106 331 -167 l 331 1018 q 372 1154 331 1115 q 514 1193 414 1193 z "},"<":{"ha":764,"x_min":93,"x_max":653,"o":"m 211 467 l 653 207 l 603 125 l 93 426 l 93 508 l 604 811 l 653 726 l 211 467 z "},"≤":{"ha":764,"x_min":93,"x_max":674,"o":"m 217 460 l 674 236 l 657 142 l 93 421 l 93 497 l 657 779 l 674 685 l 217 460 m 93 99 l 671 99 l 671 0 l 93 0 l 93 99 z "},"¬":{"ha":764,"x_min":93,"x_max":671,"o":"m 671 517 l 671 179 l 569 178 l 569 419 l 93 419 l 93 517 l 671 517 z "},"−":{"ha":764,"x_min":93,"x_max":671,"o":"m 93 517 l 671 517 l 671 419 l 93 419 l 93 517 z "},"≠":{"ha":833,"x_min":93,"x_max":671,"o":"m 472 558 l 421 378 l 671 378 l 671 281 l 393 281 l 349 125 l 243 125 l 288 281 l 93 281 l 93 378 l 315 378 l 367 558 l 93 558 l 93 656 l 394 656 l 433 797 l 539 797 l 500 656 l 671 656 l 671 558 l 472 558 z "},"∂":{"ha":857,"x_min":82,"x_max":774,"o":"m 365 1072 q 665 784 557 964 q 774 399 774 604 q 684 92 774 207 q 426 -24 594 -24 q 247 25 325 -24 q 125 156 168 74 q 82 339 82 239 q 127 532 82 450 q 249 658 172 614 q 415 701 325 701 q 631 615 539 701 q 503 833 588 733 q 297 999 418 932 l 365 1072 m 668 396 q 663 482 668 443 q 558 572 618 540 q 425 604 497 604 q 310 574 365 604 q 222 485 256 544 q 188 339 188 425 q 219 201 188 261 q 305 108 250 140 q 426 75 360 75 q 603 158 539 75 q 668 396 667 240 z "},"%":{"ha":1413,"x_min":58,"x_max":1354,"o":"m 957 1074 l 1057 1074 l 478 -46 l 378 -46 l 957 1074 m 329 425 q 192 461 254 425 q 94 560 129 497 q 58 696 58 622 q 94 832 58 769 q 192 931 129 894 q 329 967 254 967 q 467 931 406 967 q 565 832 529 894 q 600 696 600 769 q 565 560 600 622 q 467 461 529 497 q 329 425 406 425 m 329 511 q 455 565 407 511 q 503 696 503 618 q 455 826 503 774 q 329 879 407 879 q 203 826 253 879 q 154 696 154 774 q 203 565 154 618 q 329 511 253 511 m 1083 -24 q 946 13 1008 -24 q 848 111 883 49 q 813 247 813 174 q 848 383 813 321 q 946 482 883 446 q 1083 518 1008 518 q 1222 482 1160 518 q 1319 383 1283 446 q 1354 247 1354 321 q 1319 111 1354 174 q 1222 13 1283 49 q 1083 -24 1160 -24 m 1083 63 q 1209 116 1161 63 q 1257 247 1257 169 q 1209 378 1257 326 q 1083 431 1161 431 q 958 378 1007 431 q 908 247 908 325 q 958 116 908 169 q 1083 63 1007 63 z "},"‰":{"ha":2042,"x_min":58,"x_max":1983,"o":"m 957 1074 l 1057 1074 l 478 -46 l 378 -46 l 957 1074 m 329 425 q 192 461 254 425 q 94 560 129 497 q 58 696 58 622 q 94 832 58 769 q 192 931 129 894 q 329 967 254 967 q 467 931 406 967 q 565 832 529 894 q 600 696 600 769 q 565 560 600 622 q 467 461 529 497 q 329 425 406 425 m 329 511 q 455 565 407 511 q 503 696 503 618 q 455 826 503 774 q 329 879 407 879 q 203 826 253 879 q 154 696 154 774 q 203 565 154 618 q 329 511 253 511 m 1083 -24 q 946 13 1008 -24 q 848 111 883 49 q 813 247 813 174 q 848 383 813 321 q 946 482 883 446 q 1083 518 1008 518 q 1222 482 1160 518 q 1319 383 1283 446 q 1354 247 1354 321 q 1319 111 1354 174 q 1222 13 1283 49 q 1083 -24 1160 -24 m 1714 -24 q 1576 13 1639 -24 q 1478 111 1514 49 q 1442 247 1442 174 q 1478 383 1442 321 q 1576 482 1514 446 q 1714 518 1639 518 q 1851 482 1789 518 q 1948 383 1913 446 q 1983 247 1983 321 q 1948 111 1983 174 q 1851 13 1913 49 q 1714 -24 1789 -24 m 1083 63 q 1209 116 1161 63 q 1257 247 1257 169 q 1209 378 1257 326 q 1083 431 1161 431 q 958 378 1007 431 q 908 247 908 325 q 958 116 908 169 q 1083 63 1007 63 m 1714 63 q 1839 116 1790 63 q 1888 247 1888 169 q 1839 378 1888 325 q 1714 431 1790 431 q 1588 378 1636 431 q 1539 247 1539 326 q 1588 116 1539 169 q 1714 63 1636 63 z "},"+":{"ha":764,"x_min":93,"x_max":671,"o":"m 671 419 l 432 419 l 432 179 l 332 178 l 332 419 l 93 419 l 93 517 l 332 517 l 332 756 l 432 757 l 432 517 l 671 517 l 671 419 z "},"±":{"ha":764,"x_min":93,"x_max":671,"o":"m 93 0 m 671 419 l 432 419 l 432 179 l 332 178 l 332 419 l 93 419 l 93 517 l 332 517 l 332 756 l 432 757 l 432 517 l 671 517 l 671 419 m 93 86 l 671 86 l 671 -11 l 93 -11 l 93 86 z "},"∏":{"ha":1086,"x_min":157,"x_max":929,"o":"m 929 -329 l 822 -329 l 822 954 l 264 954 l 264 -329 l 157 -329 l 157 1053 l 929 1053 l 929 -329 z "},"√":{"ha":972,"x_min":79,"x_max":1047,"o":"m 1047 1303 l 578 -240 l 489 -240 l 233 389 l 131 314 l 79 396 l 276 542 l 531 -85 l 944 1303 l 1047 1303 z "},"∑":{"ha":946,"x_min":111,"x_max":863,"o":"m 863 -231 l 863 -329 l 111 -329 l 111 -233 l 528 363 l 111 957 l 111 1053 l 857 1053 l 857 954 l 244 954 l 640 388 l 640 336 l 244 -231 l 863 -231 z "},"◌":{"ha":1069,"x_min":129,"x_max":940,"o":"m 536 742 q 496 758 513 742 q 479 799 479 775 q 496 838 479 821 q 536 856 513 856 q 576 838 558 856 q 593 799 593 821 q 576 758 593 775 q 536 742 558 742 m 358 697 q 319 714 336 697 q 303 754 303 731 q 319 794 303 778 q 358 811 336 811 q 399 794 382 811 q 415 754 415 778 q 399 715 415 732 q 358 697 382 697 m 708 697 q 669 715 686 697 q 651 754 651 732 q 669 794 651 778 q 708 811 686 811 q 749 794 732 811 q 765 754 765 778 q 749 714 765 731 q 708 697 732 697 m 229 568 q 189 585 206 568 q 172 625 172 601 q 189 665 172 649 q 229 682 206 682 q 269 665 253 682 q 286 625 286 649 q 269 585 286 601 q 229 568 253 568 m 840 568 q 800 585 817 568 q 783 625 783 601 q 801 665 783 649 q 840 682 818 682 q 881 665 864 682 q 897 625 897 649 q 881 585 897 601 q 840 568 864 568 m 186 392 q 146 408 163 392 q 129 449 129 425 q 146 489 129 472 q 186 506 163 506 q 226 489 210 506 q 243 449 243 472 q 226 409 243 426 q 186 392 210 392 m 883 392 q 844 409 861 392 q 828 449 828 426 q 844 489 828 472 q 883 506 861 506 q 924 489 907 506 q 940 449 940 472 q 924 408 940 425 q 883 392 907 392 m 229 217 q 189 233 206 217 q 172 274 172 250 q 189 313 172 297 q 229 329 206 329 q 269 313 253 329 q 286 274 286 296 q 269 234 286 251 q 229 217 253 217 m 840 217 q 801 234 818 217 q 783 274 783 251 q 800 313 783 296 q 840 329 817 329 q 881 313 864 329 q 897 274 897 297 q 881 233 897 250 q 840 217 864 217 m 358 85 q 319 101 336 85 q 303 142 303 118 q 319 181 303 165 q 358 197 336 197 q 399 181 382 197 q 415 142 415 164 q 399 102 415 119 q 358 85 382 85 m 708 85 q 669 102 686 85 q 651 142 651 119 q 668 181 651 164 q 708 197 685 197 q 749 181 732 197 q 765 142 765 165 q 749 101 765 118 q 708 85 732 85 m 536 42 q 496 58 513 42 q 479 99 479 75 q 496 139 479 122 q 536 156 513 156 q 576 139 558 156 q 593 99 593 122 q 576 59 593 76 q 536 42 558 42 z "},"◊":{"ha":764,"x_min":64,"x_max":701,"o":"m 701 468 l 424 0 l 343 0 l 64 468 l 343 936 l 424 936 l 701 468 m 589 468 l 383 818 l 178 468 l 383 118 l 589 468 z "},"|":{"ha":421,"x_min":157,"x_max":263,"o":"m 157 1176 l 263 1176 l 263 -179 l 157 -179 l 157 1176 z "},"¦":{"ha":421,"x_min":157,"x_max":263,"o":"m 157 1176 l 263 1176 l 263 654 l 157 654 l 157 1176 m 157 343 l 263 343 l 263 -179 l 157 -179 l 157 343 z "},"@":{"ha":1369,"x_min":89,"x_max":1281,"o":"m 878 219 q 868 163 868 189 q 889 117 868 131 q 958 103 910 103 q 1083 154 1031 103 q 1161 289 1135 206 q 1188 468 1188 372 q 1065 802 1188 685 q 725 919 943 919 q 456 842 581 919 q 257 628 332 765 q 182 317 182 490 q 237 40 182 158 q 402 -145 292 -79 q 675 -211 513 -211 q 855 -185 769 -211 q 1035 -110 940 -160 l 1067 -190 q 874 -268 964 -242 q 675 -294 783 -294 q 370 -223 503 -294 q 163 -13 238 -151 q 89 317 89 125 q 175 673 89 517 q 407 916 261 829 q 725 1003 553 1003 q 1020 938 894 1003 q 1213 751 1146 872 q 1281 468 1281 631 q 1239 235 1281 338 q 1122 76 1197 133 q 951 19 1047 19 q 828 48 872 19 q 778 131 785 76 q 594 38 693 38 q 443 94 499 38 q 388 263 388 151 q 433 486 388 385 q 557 645 479 588 q 728 703 635 703 q 897 607 847 703 l 919 681 l 1014 681 l 878 219 m 874 526 q 732 614 817 614 q 605 563 661 614 q 517 432 549 513 q 483 265 485 351 q 512 158 483 189 q 601 126 540 126 q 705 160 656 126 q 794 254 754 194 l 874 526 z "},"&":{"ha":1131,"x_min":83,"x_max":1089,"o":"m 1089 99 l 1089 0 l 1040 0 q 750 119 908 0 q 598 14 681 51 q 425 -24 515 -24 q 238 17 315 -24 q 122 128 161 58 q 83 285 83 199 q 114 416 83 360 q 190 512 144 472 q 307 599 235 551 q 227 724 254 668 q 200 849 200 781 q 267 1017 200 953 q 443 1082 335 1082 q 613 1022 549 1082 q 678 864 678 963 q 500 615 678 733 l 444 579 q 583 417 501 506 q 744 257 665 328 q 833 453 801 342 q 867 692 865 565 l 975 692 q 933 425 975 554 q 817 196 892 296 q 1042 99 943 99 l 1089 99 m 443 989 q 342 952 376 989 q 308 849 308 915 q 327 750 308 796 q 386 650 346 704 l 453 694 q 569 865 569 769 q 538 956 569 922 q 443 989 506 989 m 192 286 q 218 179 192 228 q 297 101 244 131 q 425 72 350 72 q 679 179 568 72 q 363 524 547 303 q 234 415 276 467 q 192 286 192 364 z "},"¶":{"ha":928,"x_min":67,"x_max":771,"o":"m 429 440 l 389 440 q 147 518 228 440 q 67 746 67 596 q 389 1053 67 1053 l 771 1053 l 771 -139 l 669 -139 l 669 957 l 529 957 l 529 -139 l 429 -139 l 429 440 z "},"©":{"ha":1299,"x_min":93,"x_max":1206,"o":"m 650 -24 q 369 48 497 -24 q 167 244 242 119 q 93 525 93 369 q 168 798 93 672 q 371 998 243 924 q 650 1072 499 1072 q 926 998 799 1072 q 1130 798 1054 924 q 1206 525 1206 672 q 1131 245 1206 371 q 928 48 1056 119 q 650 -24 800 -24 m 650 63 q 878 124 772 63 q 1047 291 983 185 q 1110 528 1110 397 q 1046 756 1110 650 q 876 924 982 861 q 650 986 769 986 q 419 924 525 986 q 251 755 314 861 q 189 525 189 649 q 251 289 189 394 q 418 123 313 183 q 650 63 524 63 m 654 215 q 497 256 561 215 q 399 368 432 297 q 367 525 367 439 q 440 747 367 660 q 654 833 513 833 q 730 827 697 833 q 799 806 763 821 l 799 711 q 654 744 736 744 q 517 684 568 744 q 465 529 465 624 q 515 365 465 424 q 654 306 564 306 q 735 315 696 306 q 818 344 774 325 l 846 264 q 750 228 800 240 q 654 215 700 215 z "},"®":{"ha":1001,"x_min":99,"x_max":903,"o":"m 501 1068 q 702 1014 610 1068 q 849 868 794 960 q 903 671 903 776 q 849 467 903 558 q 702 324 794 376 q 501 272 610 272 q 298 324 390 272 q 152 467 206 375 q 99 671 99 558 q 153 868 99 776 q 299 1014 207 960 q 501 1068 392 1068 m 501 347 q 663 390 589 347 q 781 507 738 432 q 825 674 825 582 q 781 832 825 758 q 661 949 736 906 q 501 993 586 993 q 339 949 414 993 q 220 831 264 906 q 176 671 176 757 q 220 505 176 579 q 338 389 264 431 q 501 347 413 347 m 658 743 q 582 621 658 647 l 678 469 l 593 469 l 506 613 l 435 613 l 435 469 l 361 469 l 361 872 l 514 872 q 623 842 588 872 q 658 743 658 811 m 435 679 l 511 679 q 567 693 551 679 q 582 743 582 707 q 567 792 582 778 q 511 806 551 806 l 435 806 l 435 679 z "},"§":{"ha":764,"x_min":64,"x_max":700,"o":"m 700 414 q 658 301 699 346 q 542 226 617 256 q 638 58 638 168 q 565 -87 636 -35 q 371 -140 494 -140 q 249 -131 304 -140 q 142 -100 194 -122 l 142 1 q 371 -47 243 -47 q 494 -18 454 -47 q 533 60 533 11 q 497 136 533 108 q 394 182 460 164 l 310 206 q 178 253 231 228 q 95 321 126 278 q 64 431 64 364 q 218 607 64 553 q 158 671 179 633 q 138 764 138 708 q 203 908 138 860 q 389 956 269 956 q 511 944 458 956 q 619 906 564 932 l 619 807 q 508 849 561 836 q 389 863 454 863 q 279 836 317 863 q 242 763 242 810 q 274 690 242 714 q 367 650 306 667 l 451 626 q 631 548 564 596 q 700 414 699 500 m 440 271 q 556 324 515 289 q 596 408 596 358 q 549 482 596 454 q 418 533 503 510 l 336 557 q 317 563 325 560 q 168 435 168 529 q 185 374 168 397 q 238 335 201 351 q 343 299 274 319 l 425 276 l 440 271 z "},"™":{"ha":1583,"x_min":56,"x_max":1426,"o":"m 586 960 l 371 960 l 371 300 l 272 300 l 272 960 l 56 960 l 56 1053 l 586 1053 l 586 960 m 1426 1053 l 1426 300 l 1328 300 l 1328 892 l 1097 576 l 1051 576 l 822 890 l 822 300 l 724 300 l 724 1053 l 810 1053 l 1075 689 l 1340 1053 l 1426 1053 z "},"°":{"ha":657,"x_min":61,"x_max":596,"o":"m 329 425 q 194 461 256 425 q 97 558 133 497 q 61 693 61 619 q 97 828 61 767 q 194 924 133 889 q 329 960 256 960 q 464 924 403 960 q 560 828 525 889 q 596 693 596 767 q 560 558 596 619 q 464 461 525 497 q 329 425 403 425 m 329 515 q 450 567 403 515 q 497 693 497 618 q 450 819 497 768 q 329 869 403 869 q 208 818 256 869 q 160 693 160 767 q 208 567 160 619 q 329 515 256 515 z "},"^":{"ha":764,"x_min":39,"x_max":725,"o":"m 642 185 l 382 626 l 122 185 l 39 236 l 342 744 l 422 744 l 725 233 l 642 185 z "},"†":{"ha":644,"x_min":58,"x_max":586,"o":"m 586 765 l 375 765 l 375 65 l 269 65 l 269 765 l 58 765 l 58 865 l 269 865 l 269 1118 l 375 1118 l 375 865 l 586 865 l 586 765 z "},"‡":{"ha":644,"x_min":58,"x_max":586,"o":"m 375 765 l 375 449 l 586 449 l 586 349 l 375 349 l 375 -249 l 269 -249 l 269 349 l 58 349 l 58 449 l 269 449 l 269 765 l 58 765 l 58 865 l 269 865 l 269 1118 l 375 1118 l 375 865 l 586 865 l 586 765 l 375 765 z "},"ऽ":{"ha":674,"x_min":31,"x_max":597,"o":"m 31 79 l 207 79 q 417 235 417 79 q 384 340 417 293 q 288 449 351 388 q 211 530 240 496 q 162 608 182 564 q 142 704 142 651 q 197 841 142 792 q 372 890 253 890 l 597 890 l 597 810 l 383 810 q 272 783 306 810 q 239 704 239 757 q 269 612 239 654 q 360 510 299 569 q 440 424 410 460 q 492 340 471 388 q 514 235 514 292 q 442 62 514 124 q 218 0 371 0 l 31 0 l 31 79 z "},"ॐ":{"ha":1297,"x_min":76,"x_max":1215,"o":"m 813 965 l 725 1051 l 813 1138 l 900 1051 l 813 965 m 813 763 q 621 819 689 763 q 553 979 553 875 l 553 994 l 636 994 l 636 979 q 681 877 636 913 q 813 842 725 842 q 944 877 900 842 q 989 979 989 913 l 989 994 l 1072 994 l 1072 979 q 1004 819 1072 875 q 813 763 936 763 m 954 668 q 1156 594 1097 668 q 1215 357 1215 521 q 1154 117 1215 186 q 961 47 1093 47 l 940 47 q 751 112 813 47 q 686 335 690 176 l 493 335 q 496 296 496 310 q 400 112 496 168 q 157 56 304 56 l 76 56 l 76 135 l 157 135 q 329 169 261 135 q 397 300 397 204 q 353 407 397 372 q 211 442 308 442 l 140 442 l 140 521 l 213 521 q 351 564 306 521 q 397 676 397 607 q 349 781 397 751 q 199 810 300 810 l 119 810 l 119 890 l 199 890 q 423 842 350 890 q 496 682 496 794 q 465 564 496 613 q 369 483 433 515 q 463 415 432 463 l 688 415 q 760 610 697 551 q 954 668 822 668 m 961 126 q 1049 145 1015 126 q 1101 214 1083 164 q 1118 357 1118 264 q 1101 497 1118 447 q 1048 567 1083 547 q 954 588 1013 588 q 856 568 892 588 q 801 499 819 549 q 783 357 783 449 q 801 214 783 264 q 855 145 819 164 q 949 126 890 126 l 961 126 z "},"̦":{"ha":901,"x_min":-553,"x_max":-397,"o":"m -508 -111 l -397 -111 l -453 -342 l -553 -342 l -508 -111 z "},"´":{"ha":901,"x_min":381,"x_max":653,"o":"m 528 1124 l 653 1124 l 485 911 l 381 911 l 528 1124 z "},"˘":{"ha":901,"x_min":240,"x_max":669,"o":"m 453 911 q 298 962 356 911 q 240 1108 240 1013 l 240 1121 l 328 1121 l 328 1110 q 358 1019 328 1049 q 453 990 388 990 q 548 1019 518 990 q 578 1110 578 1049 l 578 1121 l 665 1121 l 665 1108 q 611 962 669 1013 q 453 911 553 911 z "},"ˇ":{"ha":901,"x_min":231,"x_max":671,"o":"m 671 1124 l 510 911 l 392 911 l 231 1124 l 349 1124 l 451 969 l 553 1124 l 671 1124 z "},"¸":{"ha":901,"x_min":325,"x_max":632,"o":"m 481 -93 q 592 -129 553 -93 q 632 -225 632 -165 q 587 -327 632 -289 q 457 -365 542 -365 q 325 -337 385 -365 l 325 -260 q 453 -289 389 -289 q 522 -271 499 -289 q 544 -226 544 -253 q 467 -168 544 -168 q 351 -190 415 -168 l 408 1 l 493 1 l 464 -94 l 481 -93 z "},"ˆ":{"ha":901,"x_min":231,"x_max":671,"o":"m 553 911 l 451 1065 l 349 911 l 231 911 l 392 1124 l 510 1124 l 671 911 l 553 911 z "},"¨":{"ha":901,"x_min":264,"x_max":639,"o":"m 540 1099 l 639 1099 l 639 936 l 540 936 l 540 1099 m 264 1099 l 361 1099 l 361 936 l 264 936 l 264 1099 z "},"˙":{"ha":901,"x_min":401,"x_max":504,"o":"m 401 1099 l 504 1099 l 504 936 l 401 936 l 401 1099 z "},"`":{"ha":901,"x_min":251,"x_max":524,"o":"m 251 1124 l 376 1124 l 524 911 l 419 911 l 251 1124 z "},"˝":{"ha":901,"x_min":258,"x_max":775,"o":"m 654 1124 l 775 1124 l 607 911 l 507 911 l 654 1124 m 406 1124 l 525 1124 l 357 911 l 258 911 l 406 1124 z "},"¯":{"ha":901,"x_min":236,"x_max":665,"o":"m 236 1058 l 665 1058 l 665 978 l 236 978 l 236 1058 z "},"˛":{"ha":901,"x_min":292,"x_max":521,"o":"m 442 -319 q 330 -287 368 -319 q 292 -199 292 -254 q 324 -99 292 -146 q 421 0 356 -51 l 521 0 q 417 -98 453 -56 q 381 -186 381 -140 q 398 -226 381 -211 q 449 -242 415 -242 q 521 -225 490 -242 l 521 -303 q 442 -319 482 -319 z "},"˚":{"ha":901,"x_min":315,"x_max":586,"o":"m 451 889 q 353 926 392 889 q 315 1017 315 963 q 353 1108 315 1072 q 451 1143 390 1143 q 549 1107 511 1143 q 586 1017 586 1071 q 549 925 586 961 q 451 889 511 889 m 451 949 q 499 967 481 949 q 518 1017 518 986 q 500 1066 518 1047 q 451 1085 482 1085 q 403 1066 422 1085 q 383 1017 383 1047 q 403 967 383 986 q 451 949 422 949 z "},"˜":{"ha":901,"x_min":244,"x_max":657,"o":"m 244 942 q 276 1051 246 1018 q 353 1085 307 1085 q 435 1064 393 1085 l 486 1038 q 531 1024 514 1024 q 572 1085 572 1024 l 657 1085 q 625 975 656 1008 q 549 942 594 942 q 468 963 510 942 l 417 989 q 371 1003 386 1003 q 329 942 329 1003 l 244 942 z "},"ु":{"ha":0,"x_min":-619,"x_max":53,"o":"m -199 -389 q -428 -338 -329 -389 q -619 -208 -526 -287 l -567 -150 q -394 -267 -482 -225 q -201 -310 -307 -310 q -85 -279 -125 -310 q -46 -190 -46 -249 q -78 -108 -46 -137 q -171 -78 -111 -78 l -267 -78 l -267 1 l -167 1 q -9 -49 -69 1 q 53 -189 51 -99 q -15 -338 53 -287 q -199 -389 -83 -389 z "},"ू":{"ha":0,"x_min":-468,"x_max":215,"o":"m -250 -382 q -407 -332 -347 -382 q -468 -192 -467 -282 q -400 -42 -468 -93 q -217 8 -332 8 q -36 -37 -115 8 q 99 -151 43 -83 q 215 -315 154 -218 l 147 -362 q 35 -204 81 -261 q -72 -109 -10 -147 q -214 -71 -133 -71 q -329 -102 -289 -71 q -369 -190 -369 -133 q -337 -273 -369 -243 q -244 -303 -304 -303 l -161 -303 l -161 -382 l -250 -382 z "},"ृ":{"ha":0,"x_min":-378,"x_max":-24,"o":"m -167 -290 q -326 -251 -275 -290 q -378 -128 -378 -212 q -330 -8 -378 -50 q -181 35 -282 35 l -142 35 l -142 -43 l -178 -43 q -255 -64 -228 -43 q -282 -128 -282 -85 q -252 -194 -282 -174 q -164 -214 -222 -214 q -24 -168 -89 -214 l -24 -256 q -167 -290 -86 -290 z "},"ॄ":{"ha":0,"x_min":-376,"x_max":10,"o":"m -131 -424 q 10 -381 -51 -424 l 10 -468 q -133 -501 -53 -501 q -291 -465 -240 -501 q -342 -346 -342 -428 q -294 -232 -342 -274 q -376 -107 -376 -200 q -333 4 -376 -33 q -189 42 -290 42 q -115 35 -150 42 l -115 -43 q -186 -36 -146 -36 q -260 -55 -239 -36 q -281 -111 -281 -74 q -253 -167 -281 -149 q -151 -186 -226 -186 l -87 -186 l -87 -254 l -110 -254 l -110 -261 l -144 -261 q -246 -342 -246 -261 q -217 -405 -246 -386 q -131 -424 -189 -424 z "},"ॢ":{"ha":0,"x_min":-664,"x_max":3,"o":"m -107 -556 q -50 -544 -79 -556 q 3 -517 -21 -532 l 3 -596 q -115 -629 -46 -629 q -228 -595 -187 -629 q -268 -511 -268 -561 q -251 -451 -268 -478 q -197 -387 -233 -425 q -140 -319 -160 -349 q -121 -253 -121 -290 q -201 -182 -121 -182 q -275 -214 -250 -182 q -300 -301 -300 -246 l -300 -347 l -381 -347 l -381 -301 q -406 -213 -382 -244 q -478 -182 -431 -182 q -550 -214 -525 -182 q -576 -304 -575 -246 q -537 -421 -574 -376 q -406 -465 -501 -465 l -394 -465 l -394 -540 l -406 -540 q -603 -472 -543 -540 q -664 -303 -664 -403 q -618 -158 -664 -211 q -483 -104 -572 -104 q -340 -172 -386 -104 q -244 -108 -306 -122 l -244 97 l -146 97 l -146 -110 q -62 -160 -92 -122 q -33 -249 -33 -199 q -58 -340 -33 -300 q -124 -422 -82 -379 q -165 -469 -151 -450 q -178 -508 -178 -489 q -107 -556 -178 -556 z "},"ॣ":{"ha":0,"x_min":-664,"x_max":11,"o":"m -83 -726 q 11 -696 -32 -726 l 11 -776 q -92 -800 -29 -800 q -242 -685 -242 -800 q -214 -604 -242 -636 q -256 -562 -242 -587 q -269 -511 -269 -537 q -252 -452 -269 -478 q -197 -387 -235 -426 q -140 -319 -160 -349 q -121 -253 -121 -290 q -142 -201 -121 -218 q -203 -183 -164 -183 q -275 -215 -250 -183 q -300 -301 -300 -246 l -300 -340 l -307 -340 l -307 -347 l -381 -347 l -381 -301 q -406 -213 -382 -244 q -478 -182 -431 -182 q -550 -214 -525 -182 q -576 -304 -575 -246 q -537 -421 -574 -376 q -406 -465 -501 -465 l -394 -465 l -394 -540 l -406 -540 q -603 -472 -543 -540 q -664 -303 -664 -403 q -618 -158 -664 -211 q -483 -104 -572 -104 q -340 -172 -386 -104 q -244 -108 -306 -122 l -244 97 l -146 97 l -146 -110 q -63 -160 -93 -122 q -33 -249 -33 -199 q -57 -338 -33 -300 q -124 -422 -81 -376 q -165 -469 -151 -450 q -179 -508 -179 -489 q -108 -556 -179 -556 q -49 -542 -79 -556 l -49 -619 q -106 -629 -71 -629 q -133 -628 -125 -629 q -153 -679 -153 -650 q -135 -715 -153 -704 q -83 -726 -118 -726 z "},"ॅ":{"ha":0,"x_min":-451,"x_max":68,"o":"m -192 986 q -383 1042 -315 986 q -451 1203 -451 1099 l -451 1218 l -368 1218 l -368 1203 q -324 1101 -368 1136 q -192 1065 -279 1065 q -60 1101 -104 1065 q -15 1203 -15 1136 l -15 1218 l 68 1218 l 68 1203 q 0 1042 68 1099 q -192 986 -68 986 z "},"ँ":{"ha":0,"x_min":-451,"x_max":68,"o":"m 0 986 m -192 986 q -383 1042 -315 986 q -451 1203 -451 1099 l -451 1218 l -368 1218 l -368 1203 q -324 1101 -368 1136 q -192 1065 -279 1065 q -60 1101 -104 1065 q -15 1203 -15 1136 l -15 1218 l 68 1218 l 68 1203 q 0 1042 68 1099 q -192 986 -68 986 m -279 1278 l -192 1364 l -104 1278 l -192 1192 l -279 1278 z "},"ॆ":{"ha":833,"x_min":-1753,"x_max":-975,"o":"m -1072 936 q -1085 1027 -1072 994 q -1135 1076 -1099 1060 q -1244 1092 -1172 1092 l -1476 1092 q -1644 1117 -1585 1092 q -1728 1193 -1704 1142 q -1753 1331 -1753 1244 l -1753 1356 l -1656 1356 l -1656 1331 q -1644 1236 -1656 1268 q -1595 1188 -1633 1204 q -1476 1172 -1557 1172 l -1244 1172 q -1073 1148 -1131 1172 q -995 1074 -1015 1124 q -975 936 -975 1024 l -975 867 l -1072 867 l -1072 936 z "},"े":{"ha":0,"x_min":-549,"x_max":-140,"o":"m -283 1063 q -333 1158 -299 1133 q -440 1183 -367 1183 l -549 1183 l -549 1264 l -440 1264 q -314 1249 -361 1264 q -235 1191 -267 1235 q -185 1063 -204 1147 l -140 867 l -237 867 l -283 1063 z "},"ै":{"ha":0,"x_min":-699,"x_max":-140,"o":"m -140 867 l -237 867 l -321 971 q -387 1038 -356 1014 q -462 1074 -418 1063 q -576 1086 -507 1086 l -699 1086 l -699 1165 l -576 1165 q -435 1152 -487 1165 q -347 1108 -383 1139 q -265 1017 -311 1078 l -301 1181 q -353 1272 -317 1249 q -465 1296 -389 1296 l -574 1296 l -574 1376 l -465 1376 q -339 1362 -386 1376 q -260 1305 -292 1347 q -211 1181 -229 1263 l -140 867 z "},"ं":{"ha":0,"x_min":-279,"x_max":-104,"o":"m -279 1060 l -192 1146 l -104 1060 l -192 974 l -279 1060 z "},"्":{"ha":0,"x_min":-278,"x_max":61,"o":"m -278 -150 l -219 -83 l 61 -300 l 3 -367 l -278 -150 z "},"़":{"ha":0,"x_min":-299,"x_max":-124,"o":"m -299 -162 l -211 -75 l -124 -162 l -211 -249 l -299 -162 z "},"ऺ":{"ha":0,"x_min":-239,"x_max":-142,"o":"m -239 1254 l -142 1254 l -142 851 l -239 851 l -239 1254 z "},"ॖ":{"ha":0,"x_min":-496,"x_max":113,"o":"m -192 -274 q -373 -229 -294 -274 q -496 -112 -451 -185 l -437 -67 q -192 -193 -339 -193 q 54 -67 -44 -193 l 113 -112 q -11 -228 68 -183 q -192 -274 -90 -274 z "},"ॗ":{"ha":0,"x_min":-496,"x_max":113,"o":"m -192 -274 q -373 -229 -294 -274 q -496 -112 -451 -185 l -437 -67 q -192 -193 -339 -193 q 54 -67 -44 -193 l 113 -112 q -11 -228 68 -183 q -192 -274 -90 -274 m -192 -503 q -373 -458 -294 -503 q -496 -342 -451 -414 l -437 -296 q -192 -422 -339 -422 q 54 -296 -44 -422 l 113 -342 q -11 -458 68 -412 q -192 -503 -90 -503 z "},"॑":{"ha":0,"x_min":-239,"x_max":-142,"o":"m -239 1392 l -142 1392 l -142 1026 l -239 1026 l -239 1392 z "},"॒":{"ha":0,"x_min":-535,"x_max":107,"o":"m -535 -278 l 107 -278 l 107 -362 l -535 -362 l -535 -278 z "},"॓":{"ha":0,"x_min":-565,"x_max":-221,"o":"m -565 1376 l -436 1376 l -221 1064 l -317 1064 l -565 1376 z "},"॔":{"ha":0,"x_min":-262,"x_max":82,"o":"m -47 1376 l 82 1376 l -167 1064 l -262 1064 l -47 1376 z "},"ः":{"ha":419,"x_min":122,"x_max":297,"o":"m 122 601 l 210 689 l 297 601 l 210 515 l 122 601 m 122 135 l 210 222 l 297 135 l 210 50 l 122 135 z "}}}
